<svg xmlns="http://www.w3.org/2000/svg" viewBox="0 0 182 48">
  <g fill="#243C66"  fill-rule="evenodd">
    <path d="M35.309 46.668L24.779 46.668 24.779 42.753 24.649 42.753C22.504 45.95 19.254 47.647 15.353 47.647 4.758 47.647.273 38.512.273 28.983.273 20.175 4.953 11.822 14.509 11.822 18.669 11.822 21.853 13.388 24.128 16.454L24.259 16.454 24.259.076 35.309.076 35.309 46.668zM11.323 29.375C11.323 34.009 13.014 39.164 18.084 39.164 23.479 39.164 24.649 34.009 24.649 29.702 24.649 24.807 22.894 20.305 18.084 20.305 13.014 20.305 11.323 25.068 11.323 29.375L11.323 29.375zM39.15 23.241C39.345 18.805 41.425 15.932 44.415 14.17 47.405 12.475 51.304 11.823 55.14 11.823 63.135 11.823 70.87 13.584 70.87 23.175L70.87 37.989C70.87 40.861 70.87 43.993 72.17 46.668L61.055 46.668C60.665 45.625 60.535 44.58 60.405 43.47 57.545 46.471 53.32 47.648 49.289 47.648 42.854 47.648 37.785 44.384 37.785 37.402 37.785 26.375 49.745 27.221 57.415 25.655 59.3 25.264 60.34 24.611 60.34 22.523 60.34 19.979 57.285 19 55.01 19 51.955 19 50.005 20.37 49.485 23.241L39.15 23.241zM53.449 40.795C58.715 40.795 60.47 37.793 60.21 30.811 58.65 31.789 55.79 31.986 53.385 32.637 50.915 33.225 48.835 34.27 48.835 36.945 48.835 39.686 50.98 40.795 53.449 40.795L53.449 40.795zM77.31 19.979L71.98 19.979 71.98 12.8 77.31 12.8C77.31 3.079 80.69.075 90.115.075 91.87.075 93.69.206 95.445.27L95.445 8.102C94.405 7.971 93.43 7.906 92.455 7.906 89.92 7.906 88.36 8.232 88.36 11.3L88.36 12.8 94.99 12.8 94.99 19.979 88.36 19.979 88.36 46.668 77.31 46.668 77.31 19.979zM109.225 46.668L98.175 46.668 98.175.075 109.225.075 109.225 46.668zM128.277 11.822C138.743 11.822 146.088 19.587 146.088 29.766 146.088 39.947 138.743 47.647 128.277 47.647 117.813 47.647 110.532 39.947 110.532 29.766 110.532 19.587 117.813 11.822 128.277 11.822M128.277 39.164C133.413 39.164 135.038 34.073 135.038 29.766 135.038 25.459 133.413 20.305 128.277 20.305 123.141 20.305 121.582 25.459 121.582 29.766 121.582 34.073 123.141 39.164 128.277 39.164M147.003 12.8L157.728 12.8 157.728 17.434 157.858 17.434C159.873 13.976 164.423 11.822 168.453 11.822 179.698 11.822 180.609 20.044 180.609 24.938L180.609 46.668 169.558 46.668 169.558 30.29C169.558 25.656 170.078 20.958 164.033 20.958 159.873 20.958 158.054 24.482 158.054 28.201L158.054 46.668 147.003 46.668"/>
  </g>
</svg>
