<svg xmlns="http://www.w3.org/2000/svg" width="313" height="70" viewBox="0 0 313 70">
  <g fill="#FFF" fill-rule="evenodd">
    <path fill-rule="nonzero" d="M11.05 29.3C11.05 33.93 12.74 39.09 17.81 39.09 23.2 39.09 24.38 33.93 24.38 29.63 24.38 24.73 22.62 20.23 17.81 20.23 12.74 20.23 11.05 24.99 11.05 29.3L11.05 29.3zM35.05 46.59L24.51 46.59 24.51 42.67 24.38 42.67C22.3393277 45.8041925 18.8187724 47.6553231 15.08 47.56 4.48 47.56-2.84217094e-14 38.42-2.84217094e-14 28.9-2.84217094e-14 20.09 4.68 11.74 14.24 11.74 18.0202759 11.5720704 21.6329101 13.3107914 23.86 16.37L23.99 16.37 23.99.03 35.04.03 35.05 46.59zM53.18 40.71C58.45 40.71 60.18 37.71 59.94 30.71 58.38 31.71 55.52 31.88 53.11 32.54 50.7 33.2 48.56 34.17 48.56 36.85 48.56 39.53 50.7 40.7 53.17 40.7L53.18 40.71zM38.87 23.15C38.8658108 19.3984153 40.8786523 15.934189 44.14 14.08 47.4603496 12.4118547 51.1463075 11.6038322 54.86 11.73 62.86 11.73 70.59 13.49 70.59 23.08L70.59 37.89C70.59 40.76 70.59 43.89 71.89 46.57L60.79 46.57C60.4426191 45.5341072 60.224305 44.4593301 60.14 43.37 57.28 46.37 53.06 47.55 49.02 47.55 42.59 47.55 37.52 44.29 37.52 37.3 37.52 26.3 49.52 27.12 57.15 25.55 59.04 25.16 60.07 24.55 60.07 22.42 60.07 19.88 57.02 18.9 54.74 18.9 51.69 18.9 49.74 20.27 49.22 23.14L38.87 23.15zM108.96 46.59L97.96 46.59 97.96.03 108.96.03 108.96 46.59zM77.05 19.93L71.73 19.93 71.73 12.75 77.06 12.75C77.06 3.03 80.44.03 89.86.03 91.62.03 93.44.16 95.19.23L95.19 8.03C94.1952462 7.89985134 93.193227 7.83305006 92.19 7.83 89.65 7.83 88.09 8.16 88.09 11.22L88.09 12.72 94.73 12.72 94.73 19.9 88.1 19.9 88.1 46.59 77.1 46.59 77.05 19.93zM128.01 39.08C133.15 39.08 134.77 33.99 134.77 29.68 134.77 25.37 133.15 20.22 128.01 20.22 122.87 20.22 121.31 25.37 121.31 29.68 121.31 33.99 122.87 39.08 128.01 39.08M128.01 11.74C138.48 11.74 145.82 19.5 145.82 29.68 145.82 39.86 138.48 47.56 128.01 47.56 117.54 47.56 110.27 39.86 110.27 29.68 110.27 19.5 117.55 11.74 128.01 11.74M146.73 12.72L157.45 12.72 157.45 17.35 157.58 17.35C159.58 13.89 164.15 11.74 168.18 11.74 179.42 11.74 180.34 19.96 180.34 24.86L180.34 46.59 169.29 46.59 169.29 30.21C169.29 25.58 169.81 20.88 163.77 20.88 159.61 20.88 157.77 24.4 157.77 28.12L157.77 46.59 146.73 46.59M197.97 36.3C197.97 38.92 200.86 40.44 203.28 40.44 204.73581 40.527802 206.16138 39.9990111 207.207771 38.9830602 208.254163 37.9671094 208.824797 36.5577668 208.78 35.1 208.78 31.86 206.88 29.62 203.56 29.62 201.29 29.62 199.56 30.14 198.29 32.14L190.98 32.14 194.21 13.37 215.09 13.37 215.09 20.23 200.44 20.23 199.21 26.23 199.31 26.23C201.060333 24.6143774 203.379762 23.758526 205.76 23.85 212.54 23.85 216.86 27.76 216.86 34.66 216.86 42.85 210.98 46.95 203.29 46.95 196.08 46.95 190.39 44.19 189.91 36.23M239.16 29.96C239.16 25.63 239.02 19.53 233.7 19.53 228.58 19.53 228.29 25.63 228.29 29.96 228.29 34.29 228.57 40.44 233.7 40.44 239.01 40.44 239.16 34.29 239.16 29.96M220.51 29.96C220.51 21.1 224.07 12.96 233.51 12.96 243.19 12.96 246.98 21.11 246.98 29.96 246.98 38.81 243.15 47.03 233.47 47.03 224.08 47.03 220.47 38.84 220.47 29.98M269.06 29.96C269.06 25.63 268.92 19.53 263.6 19.53 258.48 19.53 258.19 25.63 258.19 29.96 258.19 34.29 258.47 40.44 263.6 40.44 268.91 40.44 269.06 34.29 269.06 29.96M250.41 29.96C250.41 21.1 253.97 12.96 263.41 12.96 273.09 12.96 276.89 21.11 276.89 29.96 276.89 38.81 273.05 47.03 263.37 47.03 253.98 47.03 250.37 38.84 250.37 29.98M280.22 33.09L282.3 33.09 282.3 35.09 282.35 35.09C283.294451 33.616628 284.940507 32.7442942 286.69 32.79 288.29971 32.6292193 289.815446 33.5739868 290.38 35.09 291.299896 33.6562135 292.886488 32.7894294 294.59 32.79 297.27 32.79 299.06 33.91 299.06 36.7L299.06 46.59 296.85 46.59 296.85 37.74C296.85 36.07 296.41 34.74 294.25 34.74 293.308915 34.6658275 292.381884 35.0032351 291.708643 35.6649676 291.035402 36.3267001 290.682063 37.2477758 290.74 38.19L290.74 46.6 288.53 46.6 288.53 37.75C288.53 36 287.98 34.75 286.01 34.75 284.088926 34.7688111 282.515172 36.2811932 282.42 38.2L282.42 46.61 280.21 46.61M310.51 39.57C310.51 37.19 309.51 34.74 306.69 34.74 303.87 34.74 302.69 37.06 302.69 39.65 302.69 42.08 303.57 44.79 306.49 44.79 309.41 44.79 310.49 42.1 310.49 39.57L310.51 39.57zM312.67 45.44C312.67 49.83 310.67 52.07 306.43 52.07 303.91 52.07 301 51.07 300.87 48.07L303.08 48.07C303.18 49.69 305.08 50.26 306.56 50.26 309.45 50.26 310.56 48.17 310.56 45.14L310.56 44.25 310.51 44.25C309.715034 45.8180506 308.076402 46.7762007 306.32 46.7 302.32 46.7 300.32 43.54 300.32 39.86 300.32 36.67 301.88 32.73 306.53 32.73 308.17828 32.6658757 309.723392 33.5311382 310.53 34.97L310.53 34.97 310.53 33.04 312.73 33.04 312.67 45.44z"/>
    <path d="M0.14,66 L0.14,56.01 C0.77,55.905 1.595,55.815 2.645,55.815 C3.935,55.815 4.88,56.115 5.48,56.655 C6.035,57.135 6.365,57.87 6.365,58.77 C6.365,59.685 6.095,60.405 5.585,60.93 C4.895,61.665 3.77,62.04 2.495,62.04 C2.105,62.04 1.745,62.025 1.445,61.95 L1.445,66 L0.14,66 Z M1.445,56.955 L1.445,60.885 C1.73,60.96 2.09,60.99 2.525,60.99 C4.1,60.99 5.06,60.225 5.06,58.83 C5.06,57.495 4.115,56.85 2.675,56.85 C2.105,56.85 1.67,56.895 1.445,56.955 Z M8,66 L9.32,66 L9.32,61.62 C9.32,61.365 9.335,61.17 9.41,60.99 C9.65,60.27 10.325,59.67 11.18,59.67 C12.425,59.67 12.86,60.66 12.86,61.83 L12.86,66 L14.18,66 L14.18,61.68 C14.18,59.175 12.62,58.575 11.645,58.575 C11.15,58.575 10.685,58.725 10.295,58.95 C9.89,59.175 9.56,59.505 9.35,59.88 L9.32,59.88 L9.32,55.35 L8,55.35 L8,66 Z M21.545,66 L20.345,66 L20.24,65.085 L20.195,65.085 C19.79,65.655 19.01,66.165 17.975,66.165 C16.505,66.165 15.755,65.13 15.755,64.08 C15.755,62.325 17.315,61.365 20.12,61.38 L20.12,61.23 C20.12,60.63 19.955,59.55 18.47,59.55 C17.795,59.55 17.09,59.76 16.58,60.09 L16.28,59.22 C16.88,58.83 17.75,58.575 18.665,58.575 C20.885,58.575 21.425,60.09 21.425,61.545 L21.425,64.26 C21.425,64.89 21.455,65.505 21.545,66 Z M20.15,63.555 L20.15,62.295 C18.71,62.265 17.075,62.52 17.075,63.93 C17.075,64.785 17.645,65.19 18.32,65.19 C19.265,65.19 19.865,64.59 20.075,63.975 C20.12,63.84 20.15,63.69 20.15,63.555 Z M18.305,55.605 L16.895,57.75 L17.885,57.75 L18.755,56.325 L18.785,56.325 L19.655,57.75 L20.66,57.75 L19.22,55.605 L18.305,55.605 Z M23.555,66 L24.875,66 L24.875,61.635 C24.875,61.41 24.905,61.185 24.965,61.02 C25.19,60.285 25.865,59.67 26.735,59.67 C27.98,59.67 28.415,60.645 28.415,61.815 L28.415,66 L29.735,66 L29.735,61.665 C29.735,59.175 28.175,58.575 27.17,58.575 C25.97,58.575 25.13,59.25 24.77,59.94 L24.74,59.94 L24.665,58.74 L23.495,58.74 C23.54,59.34 23.555,59.955 23.555,60.705 L23.555,66 Z M42.485,57.72 L41.33,57.72 L41.33,64.125 C41.33,64.77 41.345,65.505 41.39,66 L40.205,66 L40.145,64.74 L40.115,64.74 C39.71,65.55 38.825,66.165 37.64,66.165 C35.885,66.165 34.535,64.68 34.535,62.475 C34.52,60.06 36.02,58.575 37.79,58.575 C38.9,58.575 39.65,59.1 39.98,59.685 L40.01,59.685 L40.01,57.72 L37.055,57.72 L37.055,56.895 L40.01,56.895 L40.01,55.35 L41.33,55.35 L41.33,56.895 L42.485,56.895 L42.485,57.72 Z M40.01,62.955 L40.01,61.695 C40.01,61.53 39.995,61.305 39.95,61.14 C39.755,60.3 39.035,59.61 38.045,59.61 C36.68,59.61 35.87,60.81 35.87,62.415 C35.87,63.885 36.59,65.1 38.015,65.1 C38.9,65.1 39.71,64.515 39.95,63.525 C39.995,63.345 40.01,63.165 40.01,62.955 Z M46.595,58.575 C48.68,58.575 50.09,60.09 50.09,62.31 C50.09,64.995 48.23,66.165 46.475,66.165 C44.51,66.165 42.995,64.725 42.995,62.43 C42.995,60 44.585,58.575 46.595,58.575 Z M46.565,59.565 C45.005,59.565 44.33,61.005 44.33,62.385 C44.33,63.975 45.245,65.175 46.535,65.175 C47.795,65.175 48.74,63.99 48.74,62.355 C48.74,61.125 48.125,59.565 46.565,59.565 Z M56.975,66 L55.775,66 L55.67,65.085 L55.625,65.085 C55.22,65.655 54.44,66.165 53.405,66.165 C51.935,66.165 51.185,65.13 51.185,64.08 C51.185,62.325 52.745,61.365 55.55,61.38 L55.55,61.23 C55.55,60.63 55.385,59.55 53.9,59.55 C53.225,59.55 52.52,59.76 52.01,60.09 L51.71,59.22 C52.31,58.83 53.18,58.575 54.095,58.575 C56.315,58.575 56.855,60.09 56.855,61.545 L56.855,64.26 C56.855,64.89 56.885,65.505 56.975,66 Z M55.58,63.555 L55.58,62.295 C54.14,62.265 52.505,62.52 52.505,63.93 C52.505,64.785 53.075,65.19 53.75,65.19 C54.695,65.19 55.295,64.59 55.505,63.975 C55.55,63.84 55.58,63.69 55.58,63.555 Z M54.29,67.2 C53.855,67.2 53.525,67.545 53.525,67.965 C53.525,68.385 53.84,68.745 54.26,68.745 C54.725,68.745 55.025,68.385 55.025,67.965 C55.025,67.545 54.71,67.2 54.29,67.2 Z M58.985,66 L60.305,66 L60.305,61.635 C60.305,61.41 60.335,61.185 60.395,61.02 C60.62,60.285 61.295,59.67 62.165,59.67 C63.41,59.67 63.845,60.645 63.845,61.815 L63.845,66 L65.165,66 L65.165,61.665 C65.165,59.175 63.605,58.575 62.6,58.575 C61.4,58.575 60.56,59.25 60.2,59.94 L60.17,59.94 L60.095,58.74 L58.925,58.74 C58.97,59.34 58.985,59.955 58.985,60.705 L58.985,66 Z M73.455,66 L73.455,58.1 L75.435,58.1 L75.435,56.26 L73.435,56.26 L73.435,55.82 C73.435,54.52 73.995,53.44 75.495,53.44 C76.115,53.44 76.515,53.52 76.775,53.66 L76.775,66 L79.255,66 L79.255,52.32 C78.375,51.84 77.175,51.58 75.875,51.58 C74.395,51.58 73.295,51.92 72.435,52.62 C71.495,53.4 70.995,54.62 70.995,55.84 L70.995,56.26 L69.675,56.26 L69.675,58.1 L70.995,58.1 L70.995,66 L73.455,66 Z M89.595,66 L87.375,66 L87.215,64.92 L87.155,64.92 C86.555,65.68 85.535,66.22 84.275,66.22 C82.315,66.22 81.215,64.8 81.215,63.32 C81.215,60.86 83.395,59.62 86.995,59.64 L86.995,59.48 C86.995,58.84 86.735,57.78 85.015,57.78 C84.055,57.78 83.055,58.08 82.395,58.5 L81.915,56.9 C82.635,56.46 83.895,56.04 85.435,56.04 C88.555,56.04 89.455,58.02 89.455,60.14 L89.455,63.66 C89.455,64.54 89.495,65.4 89.595,66 Z M87.055,62.58 L87.055,61.24 C85.315,61.2 83.655,61.58 83.655,63.06 C83.655,64.02 84.275,64.46 85.055,64.46 C86.035,64.46 86.755,63.82 86.975,63.12 C87.035,62.94 87.055,62.74 87.055,62.58 Z M90.755,56.26 L94.375,66 L96.795,66 L100.515,56.26 L97.915,56.26 L96.375,61.2 C96.115,62.08 95.895,62.84 95.715,63.64 L95.655,63.64 C95.475,62.84 95.275,62.06 94.995,61.2 L93.415,56.26 L90.755,56.26 Z M106.175,56.04 C109.075,56.04 111.015,58.08 111.015,61.04 C111.015,64.62 108.495,66.22 106.015,66.22 C103.255,66.22 101.135,64.32 101.135,61.2 C101.135,58 103.235,56.04 106.175,56.04 Z M106.115,57.84 C104.375,57.84 103.675,59.52 103.675,61.14 C103.675,63.02 104.595,64.44 106.095,64.44 C107.495,64.44 108.475,63.06 108.475,61.1 C108.475,59.58 107.795,57.84 106.115,57.84 Z M113.035,66 L115.515,66 L115.515,60.28 C115.515,60 115.535,59.7 115.615,59.48 C115.875,58.74 116.555,58.04 117.535,58.04 C118.875,58.04 119.395,59.1 119.395,60.5 L119.395,66 L121.855,66 L121.855,60.22 C121.855,57.14 120.095,56.04 118.395,56.04 C116.775,56.04 115.715,56.96 115.295,57.72 L115.235,57.72 L115.115,56.26 L112.955,56.26 C113.015,57.1 113.035,58.04 113.035,59.16 L113.035,66 Z M128.895,56.04 C131.795,56.04 133.735,58.08 133.735,61.04 C133.735,64.62 131.215,66.22 128.735,66.22 C125.975,66.22 123.855,64.32 123.855,61.2 C123.855,58 125.955,56.04 128.895,56.04 Z M128.835,57.84 C127.095,57.84 126.395,59.52 126.395,61.14 C126.395,63.02 127.315,64.44 128.815,64.44 C130.215,64.44 131.195,63.06 131.195,61.1 C131.195,59.58 130.515,57.84 128.835,57.84 Z M138.235,66 L138.235,56.26 L135.755,56.26 L135.755,66 L138.235,66 Z M136.995,52.2 C136.175,52.2 135.615,52.78 135.615,53.54 C135.615,54.28 136.155,54.86 136.975,54.86 C137.835,54.86 138.375,54.28 138.375,53.54 C138.355,52.78 137.835,52.2 136.995,52.2 Z M147.395,51.8 L149.855,51.8 L149.855,63.26 C149.855,64.26 149.895,65.34 149.935,66 L147.735,66 L147.635,64.46 L147.595,64.46 C147.015,65.54 145.835,66.22 144.415,66.22 C142.095,66.22 140.255,64.24 140.255,61.24 C140.235,57.98 142.275,56.04 144.615,56.04 C145.955,56.04 146.915,56.6 147.355,57.32 L147.395,57.32 L147.395,51.8 Z M147.395,61.78 L147.395,60.32 C147.395,60.12 147.375,59.88 147.335,59.68 C147.115,58.72 146.335,57.94 145.215,57.94 C143.635,57.94 142.755,59.34 142.755,61.16 C142.755,62.94 143.635,64.24 145.195,64.24 C146.195,64.24 147.075,63.56 147.315,62.5 C147.375,62.28 147.395,62.04 147.395,61.78 Z M155.75,57 L155.75,58.74 L154.625,58.74 L154.625,59.745 L155.75,59.745 L155.75,63.705 C155.75,64.56 155.885,65.205 156.26,65.595 C156.575,65.955 157.07,66.15 157.685,66.15 C158.195,66.15 158.6,66.075 158.855,65.97 L158.795,64.98 C158.63,65.025 158.375,65.07 158.03,65.07 C157.295,65.07 157.04,64.56 157.04,63.66 L157.04,59.745 L158.93,59.745 L158.93,58.74 L157.04,58.74 L157.04,56.655 L155.75,57 Z M161.735,66 L161.735,58.74 L160.415,58.74 L160.415,66 L161.735,66 Z M161.075,55.875 C160.595,55.875 160.25,56.235 160.25,56.7 C160.25,57.15 160.58,57.51 161.045,57.51 C161.57,57.51 161.9,57.15 161.885,56.7 C161.885,56.235 161.57,55.875 161.075,55.875 Z M163.925,66 L165.245,66 L165.245,61.635 C165.245,61.41 165.275,61.185 165.335,61.02 C165.56,60.285 166.235,59.67 167.105,59.67 C168.35,59.67 168.785,60.645 168.785,61.815 L168.785,66 L170.105,66 L170.105,61.665 C170.105,59.175 168.545,58.575 167.54,58.575 C166.34,58.575 165.5,59.25 165.14,59.94 L165.11,59.94 L165.035,58.74 L163.865,58.74 C163.91,59.34 163.925,59.955 163.925,60.705 L163.925,66 Z M172.25,66 L173.57,66 L173.57,61.62 C173.57,61.365 173.585,61.17 173.66,60.99 C173.9,60.27 174.575,59.67 175.43,59.67 C176.675,59.67 177.11,60.66 177.11,61.83 L177.11,66 L178.43,66 L178.43,61.68 C178.43,59.175 176.87,58.575 175.895,58.575 C175.4,58.575 174.935,58.725 174.545,58.95 C174.14,59.175 173.81,59.505 173.6,59.88 L173.57,59.88 L173.57,55.35 L172.25,55.35 L172.25,66 Z M188.705,64.74 C188.33,64.905 187.835,65.1 187.085,65.1 C185.645,65.1 184.565,64.065 184.565,62.385 C184.565,60.87 185.465,59.64 187.13,59.64 C187.85,59.64 188.345,59.805 188.66,59.985 L188.96,58.965 C188.6,58.785 187.91,58.59 187.13,58.59 C184.76,58.59 183.23,60.21 183.23,62.445 C183.23,64.665 184.655,66.15 186.845,66.15 C187.82,66.15 188.585,65.91 188.93,65.73 L188.705,64.74 Z M190.475,66 L191.795,66 L191.795,61.62 C191.795,61.365 191.81,61.17 191.885,60.99 C192.125,60.27 192.8,59.67 193.655,59.67 C194.9,59.67 195.335,60.66 195.335,61.83 L195.335,66 L196.655,66 L196.655,61.68 C196.655,59.175 195.095,58.575 194.12,58.575 C193.625,58.575 193.16,58.725 192.77,58.95 C192.365,59.175 192.035,59.505 191.825,59.88 L191.795,59.88 L191.795,55.35 L190.475,55.35 L190.475,66 Z M204.635,62.61 L199.535,62.61 C199.565,64.395 200.705,65.13 202.025,65.13 C202.97,65.13 203.54,64.965 204.035,64.755 L204.26,65.7 C203.795,65.91 203,66.15 201.845,66.15 C199.61,66.15 198.275,64.68 198.275,62.49 C198.275,60.3 199.565,58.575 201.68,58.575 C204.05,58.575 204.68,60.66 204.68,61.995 C204.68,62.265 204.65,62.475 204.635,62.61 Z M199.55,61.665 L203.405,61.665 C203.42,60.825 203.06,59.52 201.575,59.52 C200.24,59.52 199.655,60.75 199.55,61.665 Z M201.215,55.605 L202.175,55.605 L203.48,57.75 L202.475,57.75 L201.71,56.34 L201.68,56.34 L200.915,57.75 L199.955,57.75 L201.215,55.605 Z M204.08,54.375 L205.31,54.375 L203.825,56.355 L203.06,56.355 L204.08,54.375 Z M214.445,55.35 L215.765,55.35 L215.765,64.125 C215.765,64.77 215.78,65.505 215.825,66 L214.64,66 L214.58,64.74 L214.55,64.74 C214.145,65.55 213.26,66.165 212.075,66.165 C210.32,66.165 208.97,64.68 208.97,62.475 C208.955,60.06 210.455,58.575 212.225,58.575 C213.335,58.575 214.085,59.1 214.415,59.685 L214.445,59.685 L214.445,55.35 Z M214.445,62.955 L214.445,61.695 C214.445,61.53 214.43,61.305 214.385,61.14 C214.19,60.3 213.47,59.61 212.48,59.61 C211.115,59.61 210.305,60.81 210.305,62.415 C210.305,63.885 211.025,65.1 212.45,65.1 C213.335,65.1 214.145,64.515 214.385,63.525 C214.43,63.345 214.445,63.165 214.445,62.955 Z M223.175,66 L221.975,66 L221.87,65.085 L221.825,65.085 C221.42,65.655 220.64,66.165 219.605,66.165 C218.135,66.165 217.385,65.13 217.385,64.08 C217.385,62.325 218.945,61.365 221.75,61.38 L221.75,61.23 C221.75,60.63 221.585,59.55 220.1,59.55 C219.425,59.55 218.72,59.76 218.21,60.09 L217.91,59.22 C218.51,58.83 219.38,58.575 220.295,58.575 C222.515,58.575 223.055,60.09 223.055,61.545 L223.055,64.26 C223.055,64.89 223.085,65.505 223.175,66 Z M221.78,63.555 L221.78,62.295 C220.34,62.265 218.705,62.52 218.705,63.93 C218.705,64.785 219.275,65.19 219.95,65.19 C220.895,65.19 221.495,64.59 221.705,63.975 C221.75,63.84 221.78,63.69 221.78,63.555 Z M220.49,67.2 C220.055,67.2 219.725,67.545 219.725,67.965 C219.725,68.385 220.04,68.745 220.46,68.745 C220.925,68.745 221.225,68.385 221.225,67.965 C221.225,67.545 220.91,67.2 220.49,67.2 Z M225.185,66 L226.505,66 L226.505,61.635 C226.505,61.41 226.535,61.185 226.595,61.02 C226.82,60.285 227.495,59.67 228.365,59.67 C229.61,59.67 230.045,60.645 230.045,61.815 L230.045,66 L231.365,66 L231.365,61.665 C231.365,59.175 229.805,58.575 228.8,58.575 C227.6,58.575 226.76,59.25 226.4,59.94 L226.37,59.94 L226.295,58.74 L225.125,58.74 C225.17,59.34 225.185,59.955 225.185,60.705 L225.185,66 Z M238.61,58.74 L239.765,58.74 C239.735,59.265 239.705,59.85 239.705,60.735 L239.705,64.95 C239.705,66.615 239.375,67.635 238.67,68.265 C237.965,68.925 236.945,69.135 236.03,69.135 C235.16,69.135 234.2,68.925 233.615,68.535 L233.945,67.53 C234.425,67.83 235.175,68.1 236.075,68.1 C237.425,68.1 238.415,67.395 238.415,65.565 L238.415,64.755 L238.385,64.755 C237.98,65.43 237.2,65.97 236.075,65.97 C234.275,65.97 232.985,64.44 232.985,62.43 C232.985,59.97 234.59,58.575 236.255,58.575 C237.515,58.575 238.205,59.235 238.52,59.835 L238.55,59.835 L238.61,58.74 Z M238.4,62.91 L238.4,61.605 C238.4,61.38 238.385,61.185 238.325,61.005 C238.085,60.24 237.44,59.61 236.48,59.61 C235.22,59.61 234.32,60.675 234.32,62.355 C234.32,63.78 235.04,64.965 236.465,64.965 C237.275,64.965 238.01,64.455 238.295,63.615 C238.37,63.39 238.4,63.135 238.4,62.91 Z M244.175,58.74 L246.935,66 L248.195,66 L251.045,58.74 L249.665,58.74 L248.255,62.82 C248.015,63.48 247.805,64.08 247.64,64.68 L247.595,64.68 C247.445,64.08 247.25,63.48 247.01,62.82 L245.585,58.74 L244.175,58.74 Z M253.61,66 L253.61,58.74 L252.29,58.74 L252.29,66 L253.61,66 Z M252.95,55.875 C252.47,55.875 252.125,56.235 252.125,56.7 C252.125,57.15 252.455,57.51 252.92,57.51 C253.445,57.51 253.775,57.15 253.76,56.7 C253.76,56.235 253.445,55.875 252.95,55.875 Z M258.98,66 L260.3,66 L260.3,61.62 C260.3,61.365 260.315,61.17 260.39,60.99 C260.63,60.27 261.305,59.67 262.16,59.67 C263.405,59.67 263.84,60.66 263.84,61.83 L263.84,66 L265.16,66 L265.16,61.68 C265.16,59.175 263.6,58.575 262.625,58.575 C262.13,58.575 261.665,58.725 261.275,58.95 C260.87,59.175 260.54,59.505 260.33,59.88 L260.3,59.88 L260.3,55.35 L258.98,55.35 L258.98,66 Z M272.525,66 L271.325,66 L271.22,65.085 L271.175,65.085 C270.77,65.655 269.99,66.165 268.955,66.165 C267.485,66.165 266.735,65.13 266.735,64.08 C266.735,62.325 268.295,61.365 271.1,61.38 L271.1,61.23 C271.1,60.63 270.935,59.55 269.45,59.55 C268.775,59.55 268.07,59.76 267.56,60.09 L267.26,59.22 C267.86,58.83 268.73,58.575 269.645,58.575 C271.865,58.575 272.405,60.09 272.405,61.545 L272.405,64.26 C272.405,64.89 272.435,65.505 272.525,66 Z M271.13,63.555 L271.13,62.295 C269.69,62.265 268.055,62.52 268.055,63.93 C268.055,64.785 268.625,65.19 269.3,65.19 C270.245,65.19 270.845,64.59 271.055,63.975 C271.1,63.84 271.13,63.69 271.13,63.555 Z M269.84,67.2 C269.405,67.2 269.075,67.545 269.075,67.965 C269.075,68.385 269.39,68.745 269.81,68.745 C270.275,68.745 270.575,68.385 270.575,67.965 C270.575,67.545 270.26,67.2 269.84,67.2 Z M274.775,57 L274.775,58.74 L273.65,58.74 L273.65,59.745 L274.775,59.745 L274.775,63.705 C274.775,64.56 274.91,65.205 275.285,65.595 C275.6,65.955 276.095,66.15 276.71,66.15 C277.22,66.15 277.625,66.075 277.88,65.97 L277.82,64.98 C277.655,65.025 277.4,65.07 277.055,65.07 C276.32,65.07 276.065,64.56 276.065,63.66 L276.065,59.745 L277.955,59.745 L277.955,58.74 L276.065,58.74 L276.065,56.655 L274.775,57 Z"/>
    <path fill-rule="nonzero" d="M184.35,8.37 C185.01,8.37 185.6,8.31 185.6,7.52 C185.6,6.73 184.96,6.79 184.43,6.79 L183.36,6.79 L183.36,8.37 L184.35,8.37 Z M183.36,11.44 L182.48,11.44 L182.48,6.03 L184.48,6.03 C185.78,6.03 186.48,6.49 186.48,7.58 C186.505378,7.96660006 186.367075,8.34606189 186.098884,8.62566451 C185.830694,8.90526713 185.457322,9.05925449 185.07,9.05 L186.58,11.43 L185.58,11.43 L184.19,9.12 L183.36,9.12 L183.36,11.44 Z M184.36,4.62 C182.721541,4.50503078 181.179326,5.40335461 180.471039,6.88527824 C179.762753,8.36720188 180.03237,10.1314919 181.150925,11.3342394 C182.269481,12.5369868 184.009603,12.933707 185.538944,12.3346376 C187.068284,11.7355682 188.075971,10.2624831 188.08,8.62 C188.140136,7.59028119 187.776863,6.58071128 187.074417,5.82539259 C186.37197,5.07007391 185.39137,4.63461808 184.36,4.62 L184.36,4.62 Z M184.36,13.53 C182.376032,13.5788008 180.560111,12.4212666 179.766825,10.602144 C178.97354,8.78302134 179.36091,6.66467277 180.746635,5.24401306 C182.132361,3.82335336 184.24041,3.38337266 186.078716,4.13113004 C187.917022,4.87888742 189.1194,6.66543237 189.12,8.65 C189.17241,9.93869463 188.691802,11.1920977 187.791227,12.1153768 C186.890651,13.0386559 185.6496,13.5503155 184.36,13.53 L184.36,13.53 Z"/>
  </g>
</svg>
