<svg xmlns="http://www.w3.org/2000/svg" width="1002" height="365" viewBox="0 0 1002 365">
  <defs>
    <linearGradient id="sprite-a" x1="50%" x2="50%" y1="0%" y2="100%">
      <stop offset="0%" stop-color="#007AFF"/>
      <stop offset="100%" stop-color="#005DC2"/>
    </linearGradient>
  </defs>
  <g fill="none" fill-rule="evenodd">
    <path fill="#2F2F4F" fill-rule="nonzero" d="M5.14771947,46.1460224 C4.95245733,46.3412845 4.95245733,46.657867 5.14771947,46.8531292 C5.34298162,47.0483913 5.65956411,47.0483913 5.85482626,46.8531292 L9.85397769,42.8539777 C10.0492399,42.6587156 10.0492399,42.3421331 9.85397769,42.146871 L5.85312913,38.1460224 C5.65786698,37.9507602 5.34128449,37.9507602 5.14602235,38.1460224 C4.9507602,38.3412845 4.9507602,38.657867 5.14602235,38.8531292 L8.79331752,42.5004243 L5.14771947,46.1460224 Z" transform="rotate(90 7.5 42.5)"/>
    <g fill-rule="nonzero" transform="translate(13 61)">
      <path fill="url(#sprite-a)" d="M12.3609394,40 C7.82447466,40 5.21631644,40 2.60815822,37.3918418 C-1.55509864e-08,34.7836836 0,32.1755253 0,27.6390606 L0,12.3609394 C0,7.82447466 -1.55509864e-08,5.21631642 2.60815822,2.60815822 C5.21631644,0 7.82447466,0 12.3609394,0 L27.6390606,0 C32.1755253,0 34.7836836,0 37.3918418,2.60815822 C40,5.21631642 40,7.82447466 40,12.3609394 L40,27.6390606 C40,32.1755253 40,34.7836836 37.3918418,37.3918418 C34.7836836,40 32.1755253,40 27.6390606,40 L12.3609394,40 Z"/>
      <path fill="#FFF" d="M31.7309689,35.3607508 L24.8992215,35.3607508 L24.8992215,32.8096189 L24.8148789,32.8096189 C23.4232266,34.8928804 21.3146626,35.9986967 18.783737,35.9986967 C11.9098183,35.9986967 9,30.0460555 9,23.8366721 C9,18.0971139 12.0363322,12.6540475 18.2361592,12.6540475 C20.9351211,12.6540475 23.0008651,13.6745002 24.4768599,15.6723982 L24.5618512,15.6723982 L24.5618512,5 L31.7309689,5 L31.7309689,35.3607508 Z M16.1691176,24.0921111 C16.1691176,27.1117651 17.2662197,30.4709184 20.5555796,30.4709184 C24.0557958,30.4709184 24.8148789,27.1117651 24.8148789,24.3051941 C24.8148789,21.1154647 23.6762543,18.1818258 20.5555796,18.1818258 C17.2662197,18.1818258 16.1691176,21.2855401 16.1691176,24.0921111 L16.1691176,24.0921111 Z"/>
    </g>
    <g fill-rule="nonzero" transform="translate(13 121)">
      <circle cx="20" cy="20" r="20" fill="#000"/>
      <circle cx="20" cy="20" r="20" fill="#FFF"/>
      <circle cx="20" cy="20" r="20" fill="#000"/>
      <path fill="#FFF" d="M28.7299995,31.6811771 L23.4012835,31.6811771 L23.4012835,29.6913117 L23.3354969,29.6913117 C22.2500177,31.3162414 20.6053522,32.1787705 18.6312477,32.1787705 C13.2696383,32.1787705 11,27.5357512 11,22.6924748 C11,18.2156589 13.3683182,13.9701044 18.2041407,13.9701044 C20.3093125,13.9701044 21.9205786,14.7660506 23.0718444,16.3243973 L23.138137,16.3243973 L23.138137,8 L28.7299995,8 L28.7299995,31.6811771 Z M16.5918625,22.8917155 C16.5918625,25.2470248 17.4475946,27.8671413 20.0132727,27.8671413 C22.7434173,27.8671413 23.3354969,25.2470248 23.3354969,23.0579188 C23.3354969,20.5699517 22.4473775,18.2817336 20.0132727,18.2817336 C17.4475946,18.2817336 16.5918625,20.7026094 16.5918625,22.8917155 L16.5918625,22.8917155 Z"/>
    </g>
    <path fill="#2F2F4F" fill-rule="nonzero" d="M3,180 L23,180 L23,200 L3,200 L3,180 Z M8.92835215,196 L8.92835215,186.480057 L6.09770969,186.480057 L6.09770969,196 L8.92835215,196 Z M7.51303092,182.333333 C6.60052118,182.333333 6.00459645,182.975783 6.0232191,183.832384 C6.00459645,184.650047 6.60052118,185.311966 7.49440827,185.311966 C8.42554066,185.311966 9.02146539,184.650047 9.02146539,183.832384 C9.00284274,182.975783 8.42554066,182.333333 7.51303092,182.333333 Z M11.2003152,196 L14.0309576,196 L14.0309576,190.509972 C14.0309576,190.237417 14.0682029,189.945394 14.1426935,189.77018 C14.32892,189.225071 14.7944862,188.660494 15.5766374,188.660494 C16.600883,188.660494 17.0105813,189.497626 17.0105813,190.724122 L17.0105813,196 L19.8412237,196 L19.8412237,190.354226 C19.8412237,187.550807 18.4445252,186.265907 16.5822604,186.265907 C15.0738259,186.265907 14.1426935,187.180912 13.7702406,187.784425 L13.7143726,187.784425 L13.5840141,186.480057 L11.1258246,186.480057 C11.1630699,187.317189 11.2003152,188.329535 11.2003152,189.517094 L11.2003152,196 Z M83,180 L103,180 L103,200 L83,200 L83,180 Z M96.4485333,182.928909 C95.9118667,182.928909 95.3966667,182.993818 94.7956,183.231818 C93.572,183.729455 92.9494667,184.897818 92.9494667,186.715273 L92.9494667,188.489455 L91.2321333,188.489455 L91.2321333,191.453636 L92.9494667,191.453636 L92.9494667,200 L96.4485333,200 L96.4485333,191.453636 L98.8313333,191.453636 L99.1533333,188.489455 L96.4485333,188.489455 L96.4485333,187.148 C96.4485333,186.736909 96.4914667,186.434 96.5988,186.260909 C96.7490667,186.001273 97.0496,185.871455 97.5218667,185.871455 L99.1104,185.871455 L99.1104,182.928909 L96.4485333,182.928909 Z M43,180 L63,180 L63,200 L43,200 L43,180 Z M49.099504,186.753952 C46.6186443,185.49568 46.0164938,184.358775 46.0164938,184.358775 C46.0164938,184.358775 45.6311176,185.036305 45.7997197,186.294577 C45.9683219,187.552848 47.1533128,189.171792 47.1533128,189.171792 L45.7274616,188.593342 C45.7274616,188.593342 45.7997196,189.39186 46.3536981,190.214576 C46.9076765,191.037292 48.8586438,192.077785 48.8586438,192.077785 L47.0040205,192.101983 C47.0040205,192.101983 47.1726227,192.489143 47.8470311,193.142477 C48.5214396,193.79581 50.4001489,194.37655 50.4001489,194.37655 C50.4001489,194.37655 49.0788502,195.306125 48.1601494,195.659019 C47.2414485,196.011914 45.7997197,196.094575 45.7997197,196.094575 C45.7997197,196.094575 47.9466447,197.436619 51.2431595,197.110871 C54.5396744,196.785122 56.8089685,195.237368 58.5653087,192.658526 C60.3216486,190.079684 60.1549858,186.730132 60.1549858,186.730132 C60.1549858,186.730132 60.3472724,186.508057 60.8138185,186.07819 C61.2803646,185.648323 61.4240445,185.437273 61.4240445,185.437273 L60.2583105,185.561413 L61.0153551,184.203875 C61.0153551,184.203875 60.5532775,184.414883 60.234024,184.533047 C59.9147704,184.651211 59.4862985,184.769376 59.4862985,184.769376 C59.4862985,184.769376 57.7956852,182.688767 55.3389115,183.922841 C52.8821376,185.156915 53.6769763,187.93963 53.6769763,187.93963 C53.6769763,187.93963 51.5803638,188.012223 49.099504,186.753952 Z"/>
    <g fill="#0F1180" fill-rule="nonzero" transform="translate(984 1)">
      <path d="M9.15606671,17.1121212 C4.56875611,17.1121212 0.850006104,13.3933712 0.850006104,8.80606061 C0.850006104,4.21875 4.56875611,0.5 9.15606671,0.5 C13.7433773,0.5 17.4621273,4.21875 17.4621273,8.80606061 C17.4621273,13.3933712 13.7433773,17.1121212 9.15606671,17.1121212 Z M9.15606671,16.1121212 C13.1910926,16.1121212 16.4621273,12.8410865 16.4621273,8.80606061 C16.4621273,4.77103475 13.1910926,1.5 9.15606671,1.5 C5.12104086,1.5 1.8500061,4.77103475 1.8500061,8.80606061 C1.8500061,12.8410865 5.12104086,16.1121212 9.15606671,16.1121212 Z"/>
      <path d="M11.5618651,8.80219142 L8,6.1219761 L8,11.4471407 L11.5618651,8.80219142 Z M7,4.11801414 L13.2320743,8.80749578 L7,13.4352737 L7,4.11801414 Z"/>
    </g>
    <polyline stroke="#FFF" stroke-linecap="round" stroke-linejoin="round" stroke-width="2" points="11 237.498 14.502 241 19.118 232"/>
    <path fill="#FFF" fill-rule="nonzero" d="M10.4426829,291.627178 L4.93314323,286.117638 C4.73788109,285.922376 4.4212986,285.922376 4.22603645,286.117638 C4.03077431,286.3129 4.03077431,286.629483 4.22603645,286.824745 L9.73557616,292.334285 L4.22603645,297.843824 C4.03077431,298.039086 4.03077431,298.355669 4.22603645,298.550931 C4.4212986,298.746193 4.73788109,298.746193 4.93314323,298.550931 L10.4426829,293.041391 L15.9522227,298.550931 C16.1474848,298.746193 16.4640673,298.746193 16.6593294,298.550931 C16.8545916,298.355669 16.8545916,298.039086 16.6593294,297.843824 L11.1497897,292.334285 L16.6593294,286.824745 C16.8545916,286.629483 16.8545916,286.3129 16.6593294,286.117638 C16.4640673,285.922376 16.1474848,285.922376 15.9522227,286.117638 L10.4426829,291.627178 Z"/>
    <path fill="#2F2F4F" fill-rule="nonzero" d="M4,335 L14,335 C14.5522847,335 15,335.447715 15,336 L15,336 C15,336.552285 14.5522847,337 14,337 L4,337 C3.44771525,337 3,336.552285 3,336 L3,336 L3,336 C3,335.447715 3.44771525,335 4,335 L4,335 Z M4,339 L14,339 C14.5522847,339 15,339.447715 15,340 C15,340.552285 14.5522847,341 14,341 L4,341 C3.44771525,341 3,340.552285 3,340 C3,339.447715 3.44771525,339 4,339 L4,339 Z M4,343 L14,343 C14.5522847,343 15,343.447715 15,344 C15,344.552285 14.5522847,345 14,345 L4,345 C3.44771525,345 3,344.552285 3,344 C3,343.447715 3.44771525,343 4,343 L4,343 Z"/>
    <path fill="#2F2F4F" fill-rule="nonzero" d="M8,359 L4,359 L4,359 C3.44771525,359 3,359.447715 3,360 C3,360.552285 3.44771525,361 4,361 L8,361 L8,365 C8,365.552285 8.44771525,366 9,366 L9,366 C9.55228475,366 10,365.552285 10,365 L10,361 L14,361 C14.5522847,361 15,360.552285 15,360 C15,359.447715 14.5522847,359 14,359 L10,359 L10,355 L10,355 C10,354.447715 9.55228475,354 9,354 L9,354 L9,354 C8.44771525,354 8,354.447715 8,355 L8,359 Z" transform="rotate(-45 9 360)"/>
    <path fill="#243C66" fill-rule="nonzero" d="M35.309 268.668L24.779 268.668 24.779 264.753 24.649 264.753C22.504 267.95 19.254 269.647 15.353 269.647 4.758 269.647.273 260.512.273 250.983.273 242.175 4.953 233.822 14.509 233.822 18.669 233.822 21.853 235.388 24.128 238.454L24.259 238.454 24.259 222.076 35.309 222.076 35.309 268.668zM11.323 251.375C11.323 256.009 13.014 261.164 18.084 261.164 23.479 261.164 24.649 256.009 24.649 251.702 24.649 246.807 22.894 242.305 18.084 242.305 13.014 242.305 11.323 247.068 11.323 251.375L11.323 251.375zM39.15 245.241C39.345 240.805 41.425 237.932 44.415 236.17 47.405 234.475 51.304 233.823 55.14 233.823 63.135 233.823 70.87 235.584 70.87 245.175L70.87 259.989C70.87 262.861 70.87 265.993 72.17 268.668L61.055 268.668C60.665 267.625 60.535 266.58 60.405 265.47 57.545 268.471 53.32 269.648 49.289 269.648 42.854 269.648 37.785 266.384 37.785 259.402 37.785 248.375 49.745 249.221 57.415 247.655 59.3 247.264 60.34 246.611 60.34 244.523 60.34 241.979 57.285 241 55.01 241 51.955 241 50.005 242.37 49.485 245.241L39.15 245.241zM53.449 262.795C58.715 262.795 60.47 259.793 60.21 252.811 58.65 253.789 55.79 253.986 53.385 254.637 50.915 255.225 48.835 256.27 48.835 258.945 48.835 261.686 50.98 262.795 53.449 262.795L53.449 262.795zM77.31 241.979L71.98 241.979 71.98 234.8 77.31 234.8C77.31 225.079 80.69 222.075 90.115 222.075 91.87 222.075 93.69 222.206 95.445 222.27L95.445 230.102C94.405 229.971 93.43 229.906 92.455 229.906 89.92 229.906 88.36 230.232 88.36 233.3L88.36 234.8 94.99 234.8 94.99 241.979 88.36 241.979 88.36 268.668 77.31 268.668 77.31 241.979zM109.225 268.668L98.175 268.668 98.175 222.075 109.225 222.075 109.225 268.668zM128.277 233.822C138.743 233.822 146.088 241.587 146.088 251.766 146.088 261.947 138.743 269.647 128.277 269.647 117.813 269.647 110.532 261.947 110.532 251.766 110.532 241.587 117.813 233.822 128.277 233.822L128.277 233.822zM128.277 261.164C133.413 261.164 135.038 256.073 135.038 251.766 135.038 247.459 133.413 242.305 128.277 242.305 123.141 242.305 121.582 247.459 121.582 251.766 121.582 256.073 123.141 261.164 128.277 261.164L128.277 261.164zM147.003 234.8L157.728 234.8 157.728 239.434 157.858 239.434C159.873 235.976 164.423 233.822 168.453 233.822 179.698 233.822 180.609 242.044 180.609 246.938L180.609 268.668 169.558 268.668 169.558 252.29C169.558 247.656 170.078 242.958 164.033 242.958 159.873 242.958 158.054 246.482 158.054 250.201L158.054 268.668 147.003 268.668 147.003 234.8zM24.7309689 30.3614025L17.8992215 30.3614025 17.8992215 27.8102705 17.8148789 27.8102705C16.4232266 29.893532 14.3146626 30.9993484 11.783737 30.9993484 4.90981834 30.9993484 2 25.0467072 2 18.8373237 2 13.0977655 5.03633218 7.65469909 11.2361592 7.65469909 13.9351211 7.65469909 16.0008651 8.67515187 17.4768599 10.6730498L17.5618512 10.6730498 17.5618512.000651630126 24.7309689.000651630126 24.7309689 30.3614025zM9.16911765 19.0927627C9.16911765 22.1124167 10.2662197 25.47157 13.5555796 25.47157 17.0557958 25.47157 17.8148789 22.1124167 17.8148789 19.3058458 17.8148789 16.1161163 16.6762543 13.1824775 13.5555796 13.1824775 10.2662197 13.1824775 9.16911765 16.2861917 9.16911765 19.0927627L9.16911765 19.0927627zM27.2229671 15.0956635C27.349481 12.2050323 28.6989619 10.3328989 30.6388408 9.18472663 32.5787197 8.08021357 35.1083478 7.65535072 37.5971021 7.65535072 42.7841696 7.65535072 47.8025519 8.80287138 47.8025519 15.0526559L47.8025519 24.7059046C47.8025519 26.5773863 47.8025519 28.6182919 48.6459775 30.3614025L41.4346886 30.3614025C41.1816609 29.6817523 41.0973183 29.0007988 41.0129758 28.2774893 39.1574394 30.2330313 36.4163062 31 33.8010381 31 29.6260813 31 26.3373702 28.8730793 26.3373702 24.3233977 26.3373702 17.1378723 34.0968858 17.6891514 39.0730969 16.6686986 40.296064 16.4139113 40.9708045 15.9883968 40.9708045 14.6277931 40.9708045 12.970046 38.9887543 12.3321001 37.5127595 12.3321001 35.5307093 12.3321001 34.2655709 13.2248334 33.9282007 15.0956635L27.2229671 15.0956635zM36.5 26.5343787C39.9165225 26.5343787 41.0551471 24.5781851 40.8864619 20.0285036 39.8743512 20.6657978 38.0188149 20.794169 36.4584775 21.2183802 34.8559689 21.6015387 33.5064879 22.2824922 33.5064879 24.0256028 33.5064879 25.8117209 34.8981401 26.5343787 36.5 26.5343787L36.5 26.5343787zM51.9807526 12.970046L48.5227076 12.970046 48.5227076 8.29199336 51.9807526 8.29199336C51.9807526 1.9574969 54.1736592 0 60.2884948 0 61.4271194 0 62.6079152.0853635465 63.7465398.127067875L63.7465398 5.23063502C63.0717993 5.14527148 62.4392301 5.10291552 61.8066609 5.10291552 60.161981 5.10291552 59.1498702 5.31534694 59.1498702 7.31454817L59.1498702 8.29199336 63.4513408 8.29199336 63.4513408 12.970046 59.1498702 12.970046 59.1498702 30.3614025 51.9807526 30.3614025 51.9807526 12.970046zM72.6868512 30.3614025L65.5177336 30.3614025 65.5177336 0 72.6868512 0 72.6868512 30.3614025zM85.0475779 7.65469909C91.8378028 7.65469909 96.6031574 12.714607 96.6031574 19.3475501 96.6031574 25.9817964 91.8378028 30.9993484 85.0475779 30.9993484 78.2586505 30.9993484 73.5348183 25.9817964 73.5348183 19.3475501 73.5348183 12.714607 78.2586505 7.65469909 85.0475779 7.65469909L85.0475779 7.65469909zM85.0475779 25.47157C88.3797578 25.47157 89.4340398 22.154121 89.4340398 19.3475501 89.4340398 16.5409791 88.3797578 13.1824775 85.0475779 13.1824775 81.7153979 13.1824775 80.703936 16.5409791 80.703936 19.3475501 80.703936 22.154121 81.7153979 25.47157 85.0475779 25.47157L85.0475779 25.47157zM97.1967993 8.29199336L104.155061 8.29199336 104.155061 11.3116474 104.239403 11.3116474C105.546713 9.05831039 108.498702 7.65469909 111.113322 7.65469909 118.408953 7.65469909 119 13.012402 119 16.2014798L119 30.3614025 111.830234 30.3614025 111.830234 19.6890043C111.830234 16.6693503 112.167604 13.6079919 108.245675 13.6079919 105.546713 13.6079919 104.366566 15.9043365 104.366566 18.3277489L104.366566 30.3614025 97.1967993 30.3614025 97.1967993 8.29199336z"/>
    <g fill="#243C66" transform="translate(136)">
      <path d="M13.4975858 35.6950343C13.4975858 41.3413619 15.5619224 47.6340294 21.7549324 47.6340294 28.3388226 47.6340294 29.7801938 41.3413619 29.7801938 36.0974723 29.7801938 30.1218772 27.6303521 24.6340858 21.7549324 24.6340858 15.5619224 24.6340858 13.4975858 30.4389496 13.4975858 35.6950343L13.4975858 35.6950343zM42.8136092 56.7803484L29.9389889 56.7803484 29.9389889 51.9998723 29.7801938 51.9998723C27.2875106 55.8220489 22.9871488 58.0795197 18.4202347 57.9632723 5.47232437 57.9632723 0 46.8169582 0 35.2072306 0 24.4633546 5.71662456 14.2804527 17.3941739 14.2804527 22.0117846 14.075661 26.4246208 16.1960473 29.1450133 19.9267803L29.3038084 19.9267803 29.3038084 0 42.8013942 0 42.8136092 56.7803484zM64.9594219 49.6096343C71.396732 49.6096343 73.5099287 45.9511067 73.2167685 37.4145423 71.3112269 38.6340515 67.8177341 38.841368 64.8739168 39.6462441 61.9300994 40.4511202 59.3160874 41.6340441 59.3160874 44.9023288 59.3160874 48.1706134 61.9300994 49.5974392 64.9472069 49.5974392L64.9594219 49.6096343zM47.4797429 28.1950527C47.4746258 23.6199607 49.9333137 19.3953048 53.917053 17.1341043 57.9728633 15.0997857 62.4752645 14.1143949 67.0115435 14.2682576 76.7835513 14.2682576 86.2257538 16.4145938 86.2257538 28.1096871L86.2257538 46.1706183C86.2257538 49.6706097 86.2257538 53.4876735 87.8137051 56.7559582L74.2550443 56.7559582C73.8307182 55.4926774 73.5640473 54.1819768 73.4610687 52.8535287 69.9675759 56.5120563 64.8128417 57.9510772 59.8779778 57.9510772 52.0237265 57.9510772 45.8307166 53.9754772 45.8307166 45.4511079 45.8307166 32.0365067 60.4887283 33.0365042 69.8087807 31.1218748 72.1174176 30.6462662 73.3755636 29.9023656 73.3755636 27.304811 73.3755636 24.2072576 69.6499856 23.0121386 66.8649634 23.0121386 63.1393854 23.0121386 60.7574585 24.6828662 60.122278 28.1828576L47.4797429 28.1950527zM133.094746 56.7803484L119.658236 56.7803484 119.658236 0 133.094746 0 133.094746 56.7803484zM94.1166501 24.2682331L87.618265 24.2682331 87.618265 15.512157 94.1288652 15.512157C94.1288652 3.6585276 98.2575385 0 109.764078 0 111.913919 0 114.137051.158536196 116.274678.24390184L116.274678 9.7560736C115.059585 9.59735611 113.835618 9.51589134 112.610175 9.51217176 109.507562 9.51217176 107.602021 9.9146098 107.602021 13.646308L107.602021 15.4755718 115.712787 15.4755718 115.712787 24.2316478 107.614236 24.2316478 107.614236 56.7803484 94.1777252 56.7803484 94.1166501 24.2682331zM156.36434 47.6218343C162.642855 47.6218343 164.621686 41.4145324 164.621686 36.1584478 164.621686 30.9023631 162.642855 24.6218908 156.36434 24.6218908 150.085825 24.6218908 148.180283 30.9023631 148.180283 36.1584478 148.180283 41.4145324 150.085825 47.6218343 156.36434 47.6218343L156.36434 47.6218343zM156.36434 14.2804527C169.153455 14.2804527 178.119272 23.7438441 178.119272 36.1584478 178.119272 48.5730514 169.153455 57.9632723 156.36434 57.9632723 143.575225 57.9632723 134.694913 48.5730514 134.694913 36.1584478 134.694913 23.7438441 143.58744 14.2804527 156.36434 14.2804527L156.36434 14.2804527zM179.230838 15.4755718L192.325329 15.4755718 192.325329 21.1218993 192.484124 21.1218993C194.927126 16.9023975 200.509385 14.2804527 205.432034 14.2804527 219.161705 14.2804527 220.285486 24.3048184 220.285486 30.2804134L220.285486 56.7803484 206.7879 56.7803484 206.7879 36.8047877C206.7879 31.1584601 207.423081 25.4267668 200.045215 25.4267668 194.963771 25.4267668 192.716209 29.7194392 192.716209 34.2560134L192.716209 56.7803484 179.230838 56.7803484 179.230838 15.4755718zM241.820548 44.2315987C241.820548 47.4267128 245.350686 49.2803668 248.306718 49.2803668 250.084992 49.3874421 251.826327 48.7425768 253.104494 47.5036153 254.382663 46.2646539 255.079693 44.5459477 255.024974 42.7681877 255.024974 38.8169778 252.704122 36.0852772 248.648739 36.0852772 245.875931 36.0852772 243.762735 36.719422 242.211428 39.1584404L233.282256 39.1584404 237.227704 16.2682527 262.732645 16.2682527 262.732645 24.6340858 244.837655 24.6340858 243.335209 31.951141 243.457359 31.951141C245.595393 29.9808744 248.428578 28.9371558 251.336041 29.0487092 259.617817 29.0487092 264.894701 33.8169901 264.894701 42.2316036 264.894701 52.219384 257.712276 57.2193717 248.318933 57.2193717 239.511911 57.2193717 232.561571 53.8535263 231.97525 44.1462331L241.820548 44.2315987zM292.134173 36.4999104C292.134173 31.2194355 291.963163 23.7804294 285.464778 23.7804294 279.210693 23.7804294 278.856458 31.2194355 278.856458 36.4999104 278.856458 41.7803852 279.198478 49.2803668 285.464778 49.2803668 291.950948 49.2803668 292.134173 41.7803852 292.134173 36.4999104L292.134173 36.4999104zM269.35318 36.4999104C269.35318 25.6950589 273.701724 15.768254 285.232693 15.768254 297.056822 15.768254 301.686311 25.7072539 301.686311 36.4999104 301.686311 47.2925668 297.007962 57.3169324 285.183833 57.3169324 273.713939 57.3169324 269.30432 47.3291521 269.30432 36.5243006L269.35318 36.4999104zM328.657052 36.4999104C328.657052 31.2194355 328.486042 23.7804294 321.987657 23.7804294 315.733572 23.7804294 315.379337 31.2194355 315.379337 36.4999104 315.379337 41.7803852 315.721357 49.2803668 321.987657 49.2803668 328.473827 49.2803668 328.657052 41.7803852 328.657052 36.4999104L328.657052 36.4999104zM305.876059 36.4999104C305.876059 25.6950589 310.224603 15.768254 321.755572 15.768254 333.579701 15.768254 338.221405 25.7072539 338.221405 36.4999104 338.221405 47.2925668 333.530841 57.3169324 321.706712 57.3169324 310.236818 57.3169324 305.827199 47.3291521 305.827199 36.5243006L305.876059 36.4999104zM342.289003 40.3169742L344.829725 40.3169742 344.829725 42.7559926 344.8908 42.7559926C346.044448 40.9592019 348.055107 39.8953828 350.192115 39.9511214 352.158377 39.7550479 354.00985 40.9072005 354.699453 42.7559926 355.823107 41.0074767 357.761131 39.9504256 359.841972 39.9511214 363.115595 39.9511214 365.302082 41.3169717 365.302082 44.7194024L365.302082 56.7803484 362.602565 56.7803484 362.602565 45.9876919C362.602565 43.9511116 362.065104 42.3291643 359.426662 42.3291643 358.277126 42.2387103 357.144756 42.650182 356.322392 43.4571708 355.500027 44.2641597 355.068423 45.38742 355.139194 46.5364711L355.139194 56.7925435 352.439676 56.7925435 352.439676 45.999887C352.439676 43.8657459 351.767851 42.3413594 349.361494 42.3413594 347.0149 42.3642997 345.092558 44.2086636 344.976305 46.5486662L344.976305 56.8047386 342.276788 56.8047386 342.289003 40.3169742zM379.288268 48.2193938C379.288268 45.3169619 378.066767 42.3291643 374.622134 42.3291643 371.177501 42.3291643 369.73613 45.1584257 369.73613 48.3169545 369.73613 51.2803619 370.811051 54.5852318 374.377834 54.5852318 377.944617 54.5852318 379.263838 51.3047521 379.263838 48.2193938L379.288268 48.2193938zM381.92671 55.3779128C381.92671 60.7315582 379.483708 63.4632588 374.304544 63.4632588 371.226361 63.4632588 367.671794 62.2437496 367.512998 58.585222L370.212516 58.585222C370.334666 60.5608269 372.655518 61.2559471 374.463339 61.2559471 377.993477 61.2559471 379.349343 58.7071729 379.349343 55.01206L379.349343 53.9266968 379.288268 53.9266968C378.317216 55.838949 376.315626 57.0074218 374.170179 56.9144944 369.284175 56.9144944 366.841173 53.0608453 366.841173 48.5730514 366.841173 44.6828171 368.746714 39.8779509 374.426694 39.8779509 376.44007 39.7997507 378.327425 40.8549463 379.312698 42.6096515L379.312698 42.6096515 379.312698 40.2559987 382 40.2559987 381.92671 55.3779128zM0 81.5082202L0 69.0068912C.769393796 68.8754958 1.77693329 68.7628712 3.05925628 68.7628712 4.63468167 68.7628712 5.78877237 69.1382865 6.52152836 69.814034 7.19932766 70.4146985 7.60234346 71.3344659 7.60234346 72.4607118 7.60234346 73.6057284 7.27260326 74.5067251 6.64976066 75.1637018 5.80709127 76.0834693 4.43317378 76.5527384 2.87606728 76.5527384 2.39977589 76.5527384 1.96012229 76.5339676 1.59374429 76.4401138L1.59374429 81.5082202 0 81.5082202zM1.59374429 70.1894493L1.59374429 75.1073896C1.94180339 75.2012434 2.38145699 75.2387849 2.91270508 75.2387849 4.83618957 75.2387849 6.00859917 74.2814759 6.00859917 72.5357949 6.00859917 70.8651968 4.85450847 70.058054 3.09589408 70.058054 2.39977589 70.058054 1.86852779 70.1143663 1.59374429 70.1894493zM9.59910355 81.5082202L11.2111667 81.5082202 11.2111667 76.027157C11.2111667 75.708054 11.2294856 75.4640341 11.3210801 75.2387849 11.6141825 74.3377882 12.438533 73.5869576 13.4827103 73.5869576 15.003179 73.5869576 15.5344271 74.8258281 15.5344271 76.2899477L15.5344271 81.5082202 17.1464903 81.5082202 17.1464903 76.1022401C17.1464903 72.9675224 15.2413247 72.2166919 14.0505962 72.2166919 13.4460725 72.2166919 12.8781866 72.4043995 12.4018952 72.685961 11.9072849 72.9675224 11.5042691 73.3804792 11.2478045 73.8497483L11.2111667 73.8497483 11.2111667 68.1809775 9.59910355 68.1809775 9.59910355 81.5082202zM26.1410702 81.5082202L24.6755582 81.5082202 24.5473259 80.3632036 24.4923692 80.3632036C23.9977589 81.0764926 23.0451761 81.7146986 21.781172 81.7146986 19.9859198 81.7146986 19.0699748 80.4195158 19.0699748 79.1055623 19.0699748 76.9093829 20.9751404 75.708054 24.4007747 75.7268248L24.4007747 75.5391171C24.4007747 74.7882866 24.1992668 73.4367915 22.3856957 73.4367915 21.5613452 73.4367915 20.7003569 73.6995822 20.0775143 74.112539L19.7111363 73.0238347C20.4438923 72.5357949 21.5063885 72.2166919 22.6238414 72.2166919 25.3350386 72.2166919 25.994519 74.112539 25.994519 75.9333032L25.994519 79.3308115C25.994519 80.1191836 26.0311568 80.888785 26.1410702 81.5082202zM24.4374125 78.4485856L24.4374125 76.8718414C22.6787981 76.8342999 20.682038 77.1534029 20.682038 78.9178547 20.682038 79.9877883 21.3781562 80.4945989 22.2025067 80.4945989 23.3565974 80.4945989 24.0893534 79.7437683 24.345818 78.974167 24.4007747 78.8052301 24.4374125 78.6175225 24.4374125 78.4485856zM22.1841878 68.5000805L20.4622112 71.1842998 21.6712586 71.1842998 22.7337548 69.4010772 22.7703926 69.4010772 23.8328888 71.1842998 25.0602551 71.1842998 23.3016407 68.5000805 22.1841878 68.5000805zM28.5958027 81.5082202L30.2078659 81.5082202 30.2078659 76.0459278C30.2078659 75.7643663 30.2445037 75.4828048 30.3177793 75.2763264 30.5925628 74.356559 31.4169133 73.5869576 32.4794095 73.5869576 33.9998782 73.5869576 34.5311263 74.8070573 34.5311263 76.2711769L34.5311263 81.5082202 36.1431895 81.5082202 36.1431895 76.0834693C36.1431895 72.9675224 34.2380239 72.2166919 33.0106576 72.2166919 31.5451456 72.2166919 30.5192872 73.0613762 30.0796336 73.9248314L30.0429958 73.9248314 29.9514013 72.4231703 28.5225271 72.4231703C28.5774838 73.1740008 28.5958027 73.9436022 28.5958027 74.8821404L28.5958027 81.5082202zM51.7142544 71.1467583L50.3036991 71.1467583 50.3036991 79.1618746C50.3036991 79.9690175 50.322018 80.888785 50.3769747 81.5082202L48.9297816 81.5082202 48.856506 79.931476 48.8198682 79.931476C48.3252579 80.9450972 47.2444428 81.7146986 45.7972498 81.7146986 43.6539385 81.7146986 42.0052375 79.8563929 42.0052375 77.0970906 41.9869186 74.0749975 43.8188086 72.2166919 45.9804387 72.2166919 47.3360373 72.2166919 48.2519823 72.8736686 48.6549981 73.6057284L48.6916359 73.6057284 48.6916359 71.1467583 45.0828127 71.1467583 45.0828127 70.1143663 48.6916359 70.1143663 48.6916359 68.1809775 50.3036991 68.1809775 50.3036991 70.1143663 51.7142544 70.1143663 51.7142544 71.1467583zM48.6916359 77.697755L48.6916359 76.1210108C48.6916359 75.9145324 48.673317 75.632971 48.6183603 75.4264925 48.3802146 74.3753297 47.5009074 73.5118746 46.29186 73.5118746 44.6248402 73.5118746 43.6356196 75.0135357 43.6356196 77.0220075 43.6356196 78.8615424 44.5149268 80.3819743 46.2552222 80.3819743 47.3360373 80.3819743 48.3252579 79.6499145 48.6183603 78.4110441 48.673317 78.1857949 48.6916359 77.9605457 48.6916359 77.697755zM56.733633 72.2166919C59.2799601 72.2166919 61.0019367 74.112539 61.0019367 76.8906122 61.0019367 80.250579 58.7303931 81.7146986 56.5870818 81.7146986 54.1873059 81.7146986 52.337097 79.9127052 52.337097 77.0407783 52.337097 73.9999145 54.2789004 72.2166919 56.733633 72.2166919zM56.6969952 73.4555623C54.7918296 73.4555623 53.9674791 75.2575557 53.9674791 76.984466 53.9674791 78.974167 55.084932 80.4758281 56.6603574 80.4758281 58.199145 80.4758281 59.3532357 78.9929378 59.3532357 76.9469245 59.3532357 75.4077218 58.6021608 73.4555623 56.6969952 73.4555623zM69.4103117 81.5082202L67.9447997 81.5082202 67.8165674 80.3632036 67.7616107 80.3632036C67.2670004 81.0764926 66.3144176 81.7146986 65.0504135 81.7146986 63.2551614 81.7146986 62.3392164 80.4195158 62.3392164 79.1055623 62.3392164 76.9093829 64.2443819 75.708054 67.6700162 75.7268248L67.6700162 75.5391171C67.6700162 74.7882866 67.4685083 73.4367915 65.6549372 73.4367915 64.8305867 73.4367915 63.9695985 73.6995822 63.3467559 74.112539L62.9803779 73.0238347C63.7131339 72.5357949 64.77563 72.2166919 65.8930829 72.2166919 68.6042801 72.2166919 69.2637605 74.112539 69.2637605 75.9333032L69.2637605 79.3308115C69.2637605 80.1191836 69.3003983 80.888785 69.4103117 81.5082202zM67.706654 78.4485856L67.706654 76.8718414C65.9480396 76.8342999 63.9512796 77.1534029 63.9512796 78.9178547 63.9512796 79.9877883 64.6473977 80.4945989 65.4717482 80.4945989 66.6258389 80.4945989 67.3585949 79.7437683 67.6150595 78.974167 67.6700162 78.8052301 67.706654 78.6175225 67.706654 78.4485856zM66.1312286 83.0098813C65.5999805 83.0098813 65.1969647 83.4416089 65.1969647 83.9671903 65.1969647 84.4927717 65.5816616 84.94327 66.0945908 84.94327 66.6624767 84.94327 67.0288547 84.4927717 67.0288547 83.9671903 67.0288547 83.4416089 66.6441578 83.0098813 66.1312286 83.0098813zM71.8650443 81.5082202L73.4771075 81.5082202 73.4771075 76.0459278C73.4771075 75.7643663 73.5137453 75.4828048 73.5870209 75.2763264 73.8618044 74.356559 74.6861549 73.5869576 75.7486511 73.5869576 77.2691198 73.5869576 77.8003679 74.8070573 77.8003679 76.2711769L77.8003679 81.5082202 79.4124311 81.5082202 79.4124311 76.0834693C79.4124311 72.9675224 77.5072655 72.2166919 76.2798992 72.2166919 74.8143872 72.2166919 73.7885288 73.0613762 73.3488752 73.9248314L73.3122374 73.9248314 73.2206429 72.4231703 71.7917687 72.4231703C71.8467254 73.1740008 71.8650443 73.9436022 71.8650443 74.8821404L71.8650443 81.5082202zM89.5366764 81.5082202L89.5366764 71.6222843 91.9547712 71.6222843 91.9547712 69.3197372 89.5122512 69.3197372 89.5122512 68.7691282C89.5122512 67.1423286 90.1961568 65.7908336 92.0280468 65.7908336 92.785228 65.7908336 93.273732 65.8909443 93.5912596 66.0661381L93.5912596 81.5082202 96.6199844 81.5082202 96.6199844 64.3892832C95.5452756 63.7886187 94.0797636 63.4632588 92.4921256 63.4632588 90.6846608 63.4632588 89.3412748 63.8887294 88.2909912 64.7646984 87.1430068 65.7407782 86.5323768 67.267467 86.5323768 68.7941558L86.5323768 69.3197372 84.9203136 69.3197372 84.9203136 71.6222843 86.5323768 71.6222843 86.5323768 81.5082202 89.5366764 81.5082202zM109.247813 81.5082202L106.536616 81.5082202 106.341214 80.1567251 106.267938 80.1567251C105.535182 81.1077772 104.289497 81.7835247 102.75071 81.7835247 100.35704 81.7835247 99.013654 80.006559 99.013654 78.1545103 99.013654 75.0761049 101.676001 73.5243884 106.072537 73.5494161L106.072537 73.3491946C106.072537 72.5483087 105.755009 71.2218414 103.654442 71.2218414 102.482032 71.2218414 101.260772 71.5972566 100.454741 72.122838L99.868536 70.1206232C100.747843 69.5700141 102.286631 69.0444327 104.167371 69.0444327 107.977702 69.0444327 109.076836 71.5221736 109.076836 74.1751083L109.076836 78.5799809C109.076836 79.6811991 109.125687 80.7573896 109.247813 81.5082202zM106.145812 77.2284859L106.145812 75.551631C104.02082 75.5015756 101.993528 75.9771016 101.993528 77.8291504 101.993528 79.0304793 102.75071 79.5810884 103.703292 79.5810884 104.900127 79.5810884 105.779434 78.7802024 106.048112 77.9042334 106.121387 77.6789843 106.145812 77.4287074 106.145812 77.2284859zM110.664474 69.3197372L115.085435 81.5082202 118.040885 81.5082202 122.583972 69.3197372 119.408696 69.3197372 117.527955 75.5015756C117.210428 76.6027938 116.941751 77.5538458 116.721924 78.5549533L116.648648 78.5549533C116.428821 77.5538458 116.184569 76.5777661 115.842617 75.5015756L113.913026 69.3197372 110.664474 69.3197372zM129.496303 69.0444327C133.037957 69.0444327 135.407202 71.5972566 135.407202 75.3013541 135.407202 79.7813099 132.329627 81.7835247 129.300902 81.7835247 125.930224 81.7835247 123.341153 79.4058946 123.341153 75.5015756 123.341153 71.4971459 125.905799 69.0444327 129.496303 69.0444327zM129.423028 71.2969244C127.298035 71.2969244 126.443153 73.39925 126.443153 75.4264925 126.443153 77.779095 127.566713 79.5560607 129.398603 79.5560607 131.108367 79.5560607 132.305201 77.8291504 132.305201 75.3764372 132.305201 73.4743331 131.474745 71.2969244 129.423028 71.2969244zM137.874147 81.5082202L140.902872 81.5082202 140.902872 74.3503021C140.902872 73.9999145 140.927297 73.6244992 141.024998 73.3491946 141.342525 72.4231703 142.172982 71.5472013 143.369817 71.5472013 145.006305 71.5472013 145.641361 72.8736686 145.641361 74.6256066L145.641361 81.5082202 148.64566 81.5082202 148.64566 74.275219C148.64566 70.4209554 146.496243 69.0444327 144.420101 69.0444327 142.441659 69.0444327 141.147124 70.1957062 140.634195 71.1467583L140.560919 71.1467583 140.414368 69.3197372 137.776446 69.3197372C137.849722 70.3709 137.874147 71.5472013 137.874147 72.9487517L137.874147 81.5082202zM157.24333 69.0444327C160.784984 69.0444327 163.154229 71.5972566 163.154229 75.3013541 163.154229 79.7813099 160.076654 81.7835247 157.047929 81.7835247 153.677251 81.7835247 151.08818 79.4058946 151.08818 75.5015756 151.08818 71.4971459 153.652826 69.0444327 157.24333 69.0444327zM157.170055 71.2969244C155.045062 71.2969244 154.19018 73.39925 154.19018 75.4264925 154.19018 77.779095 155.31374 79.5560607 157.14563 79.5560607 158.855394 79.5560607 160.052228 77.8291504 160.052228 75.3764372 160.052228 73.4743331 159.221772 71.2969244 157.170055 71.2969244zM168.649899 81.5082202L168.649899 69.3197372 165.621174 69.3197372 165.621174 81.5082202 168.649899 81.5082202zM167.135536 64.239117C166.134103 64.239117 165.450198 64.9649199 165.450198 65.915972 165.450198 66.8419964 166.109678 67.5677992 167.111111 67.5677992 168.161395 67.5677992 168.820875 66.8419964 168.820875 65.915972 168.79645 64.9649199 168.161395 64.239117 167.135536 64.239117zM179.83664 63.7385633L182.84094 63.7385633 182.84094 78.0794272C182.84094 79.3308115 182.88979 80.6823065 182.938641 81.5082202L180.251869 81.5082202 180.129743 79.5810884 180.080892 79.5810884C179.372562 80.9325834 177.931475 81.7835247 176.197286 81.7835247 173.363962 81.7835247 171.116844 79.3057838 171.116844 75.551631 171.092419 71.4721182 173.583789 69.0444327 176.441538 69.0444327 178.078026 69.0444327 179.250436 69.7452079 179.78779 70.6462046L179.83664 70.6462046 179.83664 63.7385633zM179.83664 76.2273785L179.83664 74.4003574C179.83664 74.1500806 179.812215 73.8497483 179.763365 73.5994715 179.494688 72.3981426 178.542105 71.4220628 177.174294 71.4220628 175.244703 71.4220628 174.169994 73.1740008 174.169994 75.4515202 174.169994 77.6789843 175.244703 79.3057838 177.149868 79.3057838 178.371128 79.3057838 179.445837 78.4548425 179.73894 77.1283752 179.812215 76.8530706 179.83664 76.5527384 179.83664 76.2273785zM190.040268 70.2457616L190.040268 72.4231703 188.66635 72.4231703 188.66635 73.6808115 190.040268 73.6808115 190.040268 78.6362932C190.040268 79.7062268 190.205138 80.5133697 190.66311 81.0014095 191.047807 81.4519079 191.652331 81.6959278 192.403406 81.6959278 193.026248 81.6959278 193.520859 81.602074 193.83228 81.4706786L193.759004 80.2318082C193.557496 80.2881205 193.246075 80.3444328 192.82474 80.3444328 191.927114 80.3444328 191.615693 79.7062268 191.615693 78.5799809L191.615693 73.6808115 193.923874 73.6808115 193.923874 72.4231703 191.615693 72.4231703 191.615693 69.814034 190.040268 70.2457616zM197.349509 81.5082202L197.349509 72.4231703 195.737445 72.4231703 195.737445 81.5082202 197.349509 81.5082202zM196.543477 68.8379543C195.957272 68.8379543 195.535938 69.2884526 195.535938 69.8703463 195.535938 70.4334693 195.938953 70.8839676 196.506839 70.8839676 197.148001 70.8839676 197.551017 70.4334693 197.532698 69.8703463 197.532698 69.2884526 197.148001 68.8379543 196.543477 68.8379543zM200.024068 81.5082202L201.636131 81.5082202 201.636131 76.0459278C201.636131 75.7643663 201.672769 75.4828048 201.746045 75.2763264 202.020828 74.356559 202.845179 73.5869576 203.907675 73.5869576 205.428143 73.5869576 205.959392 74.8070573 205.959392 76.2711769L205.959392 81.5082202 207.571455 81.5082202 207.571455 76.0834693C207.571455 72.9675224 205.666289 72.2166919 204.438923 72.2166919 202.973411 72.2166919 201.947552 73.0613762 201.507899 73.9248314L201.471261 73.9248314 201.379667 72.4231703 199.950792 72.4231703C200.005749 73.1740008 200.024068 73.9436022 200.024068 74.8821404L200.024068 81.5082202zM210.191057 81.5082202L211.803121 81.5082202 211.803121 76.027157C211.803121 75.708054 211.82144 75.4640341 211.913034 75.2387849 212.206136 74.3377882 213.030487 73.5869576 214.074664 73.5869576 215.595133 73.5869576 216.126381 74.8258281 216.126381 76.2899477L216.126381 81.5082202 217.738444 81.5082202 217.738444 76.1022401C217.738444 72.9675224 215.833279 72.2166919 214.64255 72.2166919 214.038026 72.2166919 213.470141 72.4043995 212.993849 72.685961 212.499239 72.9675224 212.096223 73.3804792 211.839758 73.8497483L211.803121 73.8497483 211.803121 68.1809775 210.191057 68.1809775 210.191057 81.5082202zM230.286891 79.931476C229.828918 80.1379544 229.224394 80.3819743 228.308449 80.3819743 226.549835 80.3819743 225.230874 79.0867916 225.230874 76.984466 225.230874 75.0886188 226.330008 73.5494161 228.363406 73.5494161 229.242713 73.5494161 229.847237 73.7558945 230.231934 73.9811437L230.598312 72.7047317C230.158658 72.4794826 229.315989 72.2354626 228.363406 72.2354626 225.46902 72.2354626 223.600492 74.2627052 223.600492 77.059549 223.600492 79.8376222 225.340788 81.6959278 228.015347 81.6959278 229.206076 81.6959278 230.140339 81.3955956 230.561674 81.1703464L230.286891 79.931476zM232.448521 81.5082202L234.060584 81.5082202 234.060584 76.027157C234.060584 75.708054 234.078903 75.4640341 234.170497 75.2387849 234.4636 74.3377882 235.28795 73.5869576 236.332128 73.5869576 237.852596 73.5869576 238.383844 74.8258281 238.383844 76.2899477L238.383844 81.5082202 239.995908 81.5082202 239.995908 76.1022401C239.995908 72.9675224 238.090742 72.2166919 236.900014 72.2166919 236.29549 72.2166919 235.727604 72.4043995 235.251313 72.685961 234.756702 72.9675224 234.353686 73.3804792 234.097222 73.8497483L234.060584 73.8497483 234.060584 68.1809775 232.448521 68.1809775 232.448521 81.5082202zM249.741562 77.2660274L243.513136 77.2660274C243.549774 79.4997484 244.942011 80.4195158 246.554074 80.4195158 247.708164 80.4195158 248.404283 80.2130374 249.008806 79.9502467L249.28359 81.1328049C248.715704 81.3955956 247.744802 81.6959278 246.334247 81.6959278 243.604731 81.6959278 241.974349 79.8563929 241.974349 77.1158613 241.974349 74.3753297 243.549774 72.2166919 246.132739 72.2166919 249.027125 72.2166919 249.796519 74.8258281 249.796519 76.4964261 249.796519 76.8342999 249.759881 77.0970906 249.741562 77.2660274zM243.531455 76.0834693L248.239413 76.0834693C248.257731 75.0323065 247.818078 73.39925 246.004507 73.39925 244.374125 73.39925 243.659688 74.9384527 243.531455 76.0834693zM245.564853 68.5000805L246.737263 68.5000805 248.331007 71.1842998 247.103641 71.1842998 246.169377 69.419848 246.132739 69.419848 245.198475 71.1842998 244.026066 71.1842998 245.564853 68.5000805zM249.063763 66.9608779L250.565913 66.9608779 248.752342 69.4386187 247.818078 69.4386187 249.063763 66.9608779zM261.722123 68.1809775L263.334186 68.1809775 263.334186 79.1618746C263.334186 79.9690175 263.352505 80.888785 263.407462 81.5082202L261.960269 81.5082202 261.886993 79.931476 261.850355 79.931476C261.355745 80.9450972 260.27493 81.7146986 258.827737 81.7146986 256.684425 81.7146986 255.035724 79.8563929 255.035724 77.0970906 255.017406 74.0749975 256.849295 72.2166919 259.010926 72.2166919 260.366524 72.2166919 261.282469 72.8736686 261.685485 73.6057284L261.722123 73.6057284 261.722123 68.1809775zM261.722123 77.697755L261.722123 76.1210108C261.722123 75.9145324 261.703804 75.632971 261.648847 75.4264925 261.410702 74.3753297 260.531394 73.5118746 259.322347 73.5118746 257.655327 73.5118746 256.666106 75.0135357 256.666106 77.0220075 256.666106 78.8615424 257.545414 80.3819743 259.285709 80.3819743 260.366524 80.3819743 261.355745 79.6499145 261.648847 78.4110441 261.703804 78.1857949 261.722123 77.9605457 261.722123 77.697755zM272.383723 81.5082202L270.918211 81.5082202 270.789978 80.3632036 270.735022 80.3632036C270.240411 81.0764926 269.287829 81.7146986 268.023824 81.7146986 266.228572 81.7146986 265.312627 80.4195158 265.312627 79.1055623 265.312627 76.9093829 267.217793 75.708054 270.643427 75.7268248L270.643427 75.5391171C270.643427 74.7882866 270.441919 73.4367915 268.628348 73.4367915 267.803998 73.4367915 266.943009 73.6995822 266.320167 74.112539L265.953789 73.0238347C266.686545 72.5357949 267.749041 72.2166919 268.866494 72.2166919 271.577691 72.2166919 272.237171 74.112539 272.237171 75.9333032L272.237171 79.3308115C272.237171 80.1191836 272.273809 80.888785 272.383723 81.5082202zM270.680065 78.4485856L270.680065 76.8718414C268.921451 76.8342999 266.92469 77.1534029 266.92469 78.9178547 266.92469 79.9877883 267.620809 80.4945989 268.445159 80.4945989 269.59925 80.4945989 270.332006 79.7437683 270.58847 78.974167 270.643427 78.8052301 270.680065 78.6175225 270.680065 78.4485856zM269.10464 83.0098813C268.573391 83.0098813 268.170376 83.4416089 268.170376 83.9671903 268.170376 84.4927717 268.555073 84.94327 269.068002 84.94327 269.635888 84.94327 270.002266 84.4927717 270.002266 83.9671903 270.002266 83.4416089 269.617569 83.0098813 269.10464 83.0098813zM274.838455 81.5082202L276.450518 81.5082202 276.450518 76.0459278C276.450518 75.7643663 276.487156 75.4828048 276.560432 75.2763264 276.835215 74.356559 277.659566 73.5869576 278.722062 73.5869576 280.242531 73.5869576 280.773779 74.8070573 280.773779 76.2711769L280.773779 81.5082202 282.385842 81.5082202 282.385842 76.0834693C282.385842 72.9675224 280.480676 72.2166919 279.25331 72.2166919 277.787798 72.2166919 276.76194 73.0613762 276.322286 73.9248314L276.285648 73.9248314 276.194054 72.4231703 274.76518 72.4231703C274.820136 73.1740008 274.838455 73.9436022 274.838455 74.8821404L274.838455 81.5082202zM291.233871 72.4231703L292.644426 72.4231703C292.607788 73.080147 292.57115 73.8122068 292.57115 74.9196819L292.57115 80.1942667C292.57115 82.2778215 292.168135 83.5542335 291.307146 84.3426056 290.446158 85.1685192 289.200473 85.4313099 288.08302 85.4313099 287.020524 85.4313099 285.848114 85.1685192 285.133677 84.6804793L285.536693 83.4228381C286.122898 83.7982534 287.038843 84.1361272 288.137977 84.1361272 289.786678 84.1361272 290.995725 83.2539012 290.995725 80.963868L290.995725 79.9502467 290.959087 79.9502467C290.464477 80.7949311 289.511894 81.4706786 288.137977 81.4706786 285.939709 81.4706786 284.364283 79.5560607 284.364283 77.0407783 284.364283 73.9623729 286.324405 72.2166919 288.357803 72.2166919 289.896591 72.2166919 290.73926 73.0426055 291.123957 73.7934361L291.160595 73.7934361 291.233871 72.4231703zM290.977406 77.6414427L290.977406 76.0083862C290.977406 75.7268248 290.959087 75.4828048 290.885812 75.2575557 290.592709 74.3002467 289.804996 73.5118746 288.632587 73.5118746 287.093799 73.5118746 285.994665 74.8445989 285.994665 76.9469245 285.994665 78.7301471 286.873972 80.2130374 288.614268 80.2130374 289.603489 80.2130374 290.501115 79.5748315 290.849174 78.5236687 290.940768 78.2421072 290.977406 77.9230042 290.977406 77.6414427zM298.030182 72.4231703L301.40086 81.5082202 302.939648 81.5082202 306.420239 72.4231703 304.7349 72.4231703 303.012923 77.5288181C302.719821 78.3547318 302.463356 79.1055623 302.261848 79.8563929L302.206892 79.8563929C302.023703 79.1055623 301.785557 78.3547318 301.492455 77.5288181L299.752159 72.4231703 298.030182 72.4231703zM309.552771 81.5082202L309.552771 72.4231703 307.940707 72.4231703 307.940707 81.5082202 309.552771 81.5082202zM308.746739 68.8379543C308.160534 68.8379543 307.739199 69.2884526 307.739199 69.8703463 307.739199 70.4334693 308.142215 70.8839676 308.710101 70.8839676 309.351263 70.8839676 309.754278 70.4334693 309.73596 69.8703463 309.73596 69.2884526 309.351263 68.8379543 308.746739 68.8379543zM316.110937 81.5082202L317.723 81.5082202 317.723 76.027157C317.723 75.708054 317.741319 75.4640341 317.832913 75.2387849 318.126016 74.3377882 318.950366 73.5869576 319.994543 73.5869576 321.515012 73.5869576 322.04626 74.8258281 322.04626 76.2899477L322.04626 81.5082202 323.658323 81.5082202 323.658323 76.1022401C323.658323 72.9675224 321.753158 72.2166919 320.562429 72.2166919 319.957906 72.2166919 319.39002 72.4043995 318.913728 72.685961 318.419118 72.9675224 318.016102 73.3804792 317.759638 73.8497483L317.723 73.8497483 317.723 68.1809775 316.110937 68.1809775 316.110937 81.5082202zM332.652903 81.5082202L331.187391 81.5082202 331.059159 80.3632036 331.004202 80.3632036C330.509592 81.0764926 329.557009 81.7146986 328.293005 81.7146986 326.497753 81.7146986 325.581808 80.4195158 325.581808 79.1055623 325.581808 76.9093829 327.486974 75.708054 330.912608 75.7268248L330.912608 75.5391171C330.912608 74.7882866 330.7111 73.4367915 328.897529 73.4367915 328.073178 73.4367915 327.21219 73.6995822 326.589347 74.112539L326.222969 73.0238347C326.955725 72.5357949 328.018222 72.2166919 329.135675 72.2166919 331.846872 72.2166919 332.506352 74.112539 332.506352 75.9333032L332.506352 79.3308115C332.506352 80.1191836 332.54299 80.888785 332.652903 81.5082202zM330.949246 78.4485856L330.949246 76.8718414C329.190631 76.8342999 327.193871 77.1534029 327.193871 78.9178547 327.193871 79.9877883 327.889989 80.4945989 328.71434 80.4945989 329.86843 80.4945989 330.601186 79.7437683 330.857651 78.974167 330.912608 78.8052301 330.949246 78.6175225 330.949246 78.4485856zM329.37382 83.0098813C328.842572 83.0098813 328.439556 83.4416089 328.439556 83.9671903 328.439556 84.4927717 328.824253 84.94327 329.337182 84.94327 329.905068 84.94327 330.271446 84.4927717 330.271446 83.9671903 330.271446 83.4416089 329.886749 83.0098813 329.37382 83.0098813zM335.400738 70.2457616L335.400738 72.4231703 334.026821 72.4231703 334.026821 73.6808115 335.400738 73.6808115 335.400738 78.6362932C335.400738 79.7062268 335.565608 80.5133697 336.023581 81.0014095 336.408278 81.4519079 337.012801 81.6959278 337.763876 81.6959278 338.386719 81.6959278 338.881329 81.602074 339.192751 81.4706786L339.119475 80.2318082C338.917967 80.2881205 338.606546 80.3444328 338.185211 80.3444328 337.287585 80.3444328 336.976164 79.7062268 336.976164 78.5799809L336.976164 73.6808115 339.284345 73.6808115 339.284345 72.4231703 336.976164 72.4231703 336.976164 69.814034 335.400738 70.2457616zM224.697451 10.6321498C225.522414 10.6321498 226.259882 10.5571236 226.259882 9.56927832 226.259882 8.58143306 225.459917 8.65645928 224.797446 8.65645928L223.460005 8.65645928 223.460005 10.6321498 224.697451 10.6321498zM223.460005 14.4709915L222.360053 14.4709915 222.360053 7.70612714 224.859944 7.70612714C226.484872 7.70612714 227.359834 8.28132817 227.359834 9.64430454 227.391555 10.1277236 227.218684 10.6022167 226.88346 10.9518422 226.548237 11.3014676 226.081542 11.4940191 225.597411 11.482447L227.484828 14.4584871 226.234883 14.4584871 224.497459 11.5699776 223.460005 11.5699776 223.460005 14.4709915zM224.70995 5.94301093C222.661966 5.79924916 220.734282 6.92254654 219.848962 8.77559872 218.963644 10.6286509 219.30065 12.8347845 220.698783 14.3387445 222.096916 15.8427044 224.271973 16.338778 226.183565 15.5896795 228.095156 14.8405809 229.35471 12.9985807 229.359746 10.944759 229.434913 9.65716052 228.980841 8.39475692 228.102822 7.45027846 227.224802 6.50580001 225.999106 5.96128992 224.70995 5.94301093L224.70995 5.94301093zM224.70995 17.0844049C222.230099 17.1454272 219.960297 15.6980036 218.968734 13.4233053 217.977171 11.148607 218.461362 8.49974547 220.193442 6.72329996 221.925524 4.94685447 224.560469 4.39668631 226.858251 5.33170983 229.156032 6.26673334 230.658939 8.50069531 230.659689 10.9822722 230.725198 12.5937036 230.124465 14.1610053 228.998795 15.3155076 227.873125 16.47001 226.321879 17.1098081 224.70995 17.0844049L224.70995 17.0844049z"/>
    </g>
  </g>
</svg>
