<?xml version="1.0" standalone="no"?>
<!DOCTYPE svg PUBLIC "-//W3C//DTD SVG 1.1//EN" "http://www.w3.org/Graphics/SVG/1.1/DTD/svg11.dtd" >
<svg xmlns="http://www.w3.org/2000/svg" xmlns:xlink="http://www.w3.org/1999/xlink" version="1.1">
<metadata></metadata>
<defs>
<font id="svn-snell_roundhand_scriptBd" horiz-adv-x="985" >
<font-face units-per-em="2048" ascent="1638" descent="-410" />
<missing-glyph horiz-adv-x="549" />
<glyph horiz-adv-x="0" />
<glyph horiz-adv-x="682" />
<glyph unicode=" "  horiz-adv-x="549" />
<glyph unicode="&#x09;" horiz-adv-x="549" />
<glyph unicode="&#xa0;" horiz-adv-x="549" />
<glyph unicode="!" horiz-adv-x="758" d="M127 90q0 51 35 82q33 33 80 33q51 0 82 -33q32 -31 32 -82q0 -47 -32 -80q-31 -33 -82 -35q-47 2 -80 35q-35 33 -35 80zM334 246q188 313 270 544q57 168 105 244q47 72 104 72q88 -4 92 -94q0 -64 -69 -150q-70 -88 -209 -244q-146 -159 -279 -378z" />
<glyph unicode="&#x22;" horiz-adv-x="682" d="M326 1313q-7 45 4 102q6 29 20 47q12 17 39 17q31 0 45 -17q12 -18 19 -47q6 -57 0 -102l-33 -418q0 -14 -2 -37q-4 -27 -29 -27q-20 0 -24 27q-5 23 -7 37zM606 1313q-6 45 4 102q6 29 21 47q12 17 39 17q30 0 45 -17q12 -18 18 -47q6 -57 0 -102l-33 -418q0 -14 -2 -37 q-4 -27 -28 -27q-21 0 -25 27q-4 23 -6 37z" />
<glyph unicode="#" horiz-adv-x="1100" d="M131 340l21 82h170l108 254h-162l23 82h172l141 338h90l-143 -338h221l141 338h90l-141 -338h148l-23 -82h-158l-108 -254h149l-20 -82h-160l-143 -340h-90l143 340h-219l-143 -340h-91l144 340h-160zM412 422h219l108 254h-219z" />
<glyph unicode="$" horiz-adv-x="1100" d="M72 344q0 76 45 137q41 60 121 62q106 -2 110 -95q-2 -45 -31 -69q-32 -25 -71 -25q-37 0 -58 17q-20 -29 -18 -82q0 -58 41 -111q39 -53 96 -80l297 484q-49 59 -88 129q-41 67 -41 145q2 143 119 229q113 84 262 86q68 -2 109 -14l81 135l33 -16l-78 -129 q68 -23 127 -76q62 -55 64 -139q-2 -92 -55 -129q-58 -39 -154 -33q53 96 57 190q0 50 -10 89q-14 36 -49 65l-250 -399q57 -72 102 -144q43 -75 46 -166q-3 -172 -125 -266q-125 -94 -320 -94q-67 0 -110 12l-86 -141l-31 18l82 134q-94 36 -154 108q-63 68 -63 168z M342 84q45 -14 102 -14q119 0 195 77q74 72 76 197q-2 117 -86 207zM639 905q2 -92 65 -160l244 385q-31 17 -88 17q-94 -2 -156 -70q-65 -67 -65 -172z" />
<glyph unicode="%" horiz-adv-x="1630" d="M127 747q0 91 45 168q41 78 109 136q141 122 313 124q88 -2 135 -30q45 -29 74 -72q16 -18 30 -37q13 -18 29 -35q31 -34 84 -34q80 0 133 36q51 33 84 78q35 45 62 80q26 33 55 35q41 -4 41 -39q0 -12 -10 -31q-13 -20 -31 -43q-39 -49 -68 -82l-870 -1044l-14 10 l809 1049l-5 4q-90 -78 -182 -78q-51 0 -82 23q-32 22 -57 55l-4 -4q4 -8 4 -25q-4 -192 -152 -319q-143 -135 -325 -138q-88 0 -146 54q-61 53 -61 159zM250 651q0 -37 18 -63q19 -29 66 -29q69 0 131 57q63 52 112 131q107 170 111 312q4 88 -84 92q-65 -2 -127 -53 q-61 -52 -115 -133q-110 -172 -112 -314zM897 188q0 91 45 168q41 78 109 135q141 123 313 125q86 0 151 -45q64 -47 66 -139q-4 -192 -152 -319q-143 -133 -325 -138q-88 0 -146 54q-61 53 -61 159zM1020 92q0 -37 18 -63q19 -29 66 -29q69 0 131 57q63 52 112 131 q107 170 111 312q4 88 -84 92q-65 -2 -127 -53q-61 -52 -115 -134q-110 -172 -112 -313z" />
<glyph unicode="&#x26;" horiz-adv-x="1366" d="M33 238q4 167 133 268q121 100 266 147q21 168 139 320q60 71 138 114q77 41 170 43q75 0 118 -30q45 -35 45 -95q-2 -73 -49 -122q-47 -52 -121 -88q-71 -37 -147 -62q-76 -26 -133 -49q6 -133 53 -262q45 -129 131 -217q86 82 156 166q69 82 131 151q61 70 125 113 q63 41 135 41q115 -6 117 -103q0 -39 -23 -67q-24 -31 -74 -31q-41 0 -63 27q-25 22 -25 55q0 37 23 66q-6 4 -21 4q-39 -2 -92 -43q-51 -41 -112 -109q-125 -143 -265 -283q162 -174 400 -176q155 0 274 84q117 80 201 211l18 -6q-207 -334 -608 -338q-108 0 -215 31 q-106 31 -194 96q-74 -49 -158 -82q-84 -35 -176 -37q-121 2 -205 70q-90 70 -92 193zM205 332q0 -115 67 -199q64 -86 179 -88q51 0 98 14q47 13 98 47q-219 183 -219 492v35q-94 -35 -156 -115q-65 -80 -67 -186zM592 702q112 29 207 109q94 82 96 205q0 76 -72 78 q-39 0 -80 -31t-75 -88q-74 -117 -76 -273z" />
<glyph unicode="'" horiz-adv-x="455" d="M332 1313q-6 45 4 102q6 29 20 47q13 17 39 17q31 0 45 -17q13 -18 19 -47q6 -57 0 -102l-33 -418q0 -14 -2 -37q-4 -27 -29 -27q-20 0 -24 27q-4 23 -6 37z" />
<glyph unicode="(" horiz-adv-x="797" d="M149 -270q7 626 385 1073q371 446 934 676l4 -15q-546 -274 -905 -858q-366 -586 -372 -1269h-21q-22 200 -25 393z" />
<glyph unicode=")" horiz-adv-x="797" d="M-676 -649q551 278 909 862q363 582 369 1266h21q22 -201 24 -394q-6 -626 -383 -1071q-368 -448 -936 -677z" />
<glyph unicode="*" horiz-adv-x="682" d="M336 1300q0 25 18 43q17 17 41 17q43 -2 113 -37q69 -37 106 -66l4 4q-26 50 -57 117q-35 66 -37 123q0 25 21 41q16 14 39 14q55 0 67 -67q8 -70 8 -219h5q18 39 73 118q25 35 53 62q29 22 50 24q63 -2 65 -67q0 -23 -26 -47q-29 -25 -68 -49q-86 -47 -133 -66v-4 q287 14 289 -76q-2 -61 -66 -63q-25 0 -53 14q-31 10 -62 29q-63 37 -106 67l-4 -4q10 -18 28 -47q17 -29 33 -59q39 -64 41 -117q0 -31 -20 -49q-19 -19 -39 -19q-53 -2 -66 68q-12 66 -10 215l-4 4q-21 -47 -74 -123q-24 -35 -53 -59q-31 -27 -59 -27q-23 0 -39 17 q-21 12 -21 43q0 28 29 53q26 24 63 45q80 45 125 63v5q-278 -9 -274 79z" />
<glyph unicode="+" horiz-adv-x="1229" d="M258 305v111h305v305h111v-305h305v-111h-305v-305h-111v305h-305z" />
<glyph unicode="," horiz-adv-x="569" d="M-184 -266q131 4 239 71q107 66 140 195q-13 -6 -29 -10q-14 -2 -33 -2q-37 2 -59 28q-25 27 -25 62q0 53 37 80q33 26 76 26q63 0 100 -30q35 -35 37 -97q0 -80 -45 -141t-117 -108q-71 -43 -155 -68t-166 -27v21z" />
<glyph unicode="-" horiz-adv-x="758" d="M41 295l88 131h481l-86 -131h-483z" />
<glyph unicode="." horiz-adv-x="569" d="M49 102q0 52 35 82q33 33 80 33q51 0 82 -33q33 -30 33 -82q0 -47 -33 -79q-31 -33 -82 -35q-47 2 -80 35q-35 32 -35 79z" />
<glyph unicode="/" horiz-adv-x="569" d="M-23 -33l678 1512h105l-678 -1512h-105z" />
<glyph unicode="0" horiz-adv-x="1100" d="M16 268q0 150 82 299q78 148 203 269q264 262 555 270q133 -2 205 -82q69 -82 69 -213q-2 -137 -77 -281q-80 -147 -205 -272t-271 -201q-145 -80 -286 -82q-131 2 -203 84q-72 80 -72 209zM213 287q0 -43 10 -90q10 -48 31 -84q22 -39 59 -62q37 -26 88 -26 q115 2 211 86q97 81 168 206q152 267 154 490q0 47 -4 94q-6 47 -25 84q-35 82 -131 84q-115 -4 -213 -84q-102 -80 -180 -199q-164 -256 -168 -499z" />
<glyph unicode="1" horiz-adv-x="872" d="M74 0l571 883l-4 4q-248 -125 -528 -197l-7 19q471 114 852 397l15 -12q-353 -545 -662 -1065l195 10l-8 -14q-211 -19 -424 -25z" />
<glyph unicode="2" horiz-adv-x="1100" d="M-149 0q0 18 28 43q29 25 76 55q98 62 231 127q295 146 404 197q114 59 194 158q82 98 84 237q-2 115 -67 184q-68 66 -162 68q-96 -2 -154 -66q-59 -65 -59 -151q0 -66 33 -111q30 -47 98 -47q45 0 82 27q-43 -148 -186 -146q-72 0 -121 50q-49 47 -49 135 q0 123 116 231q115 111 330 115q129 0 229 -68q103 -69 107 -217q-2 -137 -86 -227q-82 -94 -209 -154q-61 -30 -127 -55t-131 -49q-133 -45 -231 -90q-99 -45 -183 -90l4 -4q88 32 181 32q57 0 112 -10q53 -10 99 -27q96 -38 178 -41q53 0 98 29q47 27 84 68q74 86 117 172 l10 -10q-74 -146 -182 -263q-111 -122 -289 -127q-62 2 -119 25q-59 20 -115 45q-55 27 -108 47q-55 21 -107 21q-43 0 -67 -21q-27 -20 -45 -47q-19 -25 -33 -45q-18 -23 -45 -25q-20 2 -20 25z" />
<glyph unicode="3" horiz-adv-x="1100" d="M-29 254q2 90 60 147q57 58 145 60q55 0 98 -23q43 -24 80 -63l-8 -15q-24 9 -61 11q-70 -2 -105 -52q-37 -49 -37 -116q2 -94 72 -148q68 -55 168 -55q166 2 262 117q96 110 98 252q0 104 -59 145q-59 39 -162 39q-57 0 -98 -10l6 26q82 2 172 17q92 14 170 47 q82 33 131 96q51 61 51 162q-2 82 -49 129t-129 49q-76 0 -121 -51q-49 -51 -49 -127q0 -47 33 -76q29 -33 70 -33q51 0 75 27q-47 -127 -178 -129q-67 0 -104 45q-39 43 -39 108q0 95 94 181q94 88 289 92q114 0 203 -47q88 -51 90 -164q-2 -88 -50 -145q-51 -58 -129 -93 q-75 -32 -159 -51q-84 -20 -154 -33v-4q107 6 199 -39q45 -24 69 -63q25 -43 25 -105q-2 -110 -55 -184q-56 -76 -144 -121q-186 -84 -358 -82q-176 0 -291 66q-119 68 -121 213z" />
<glyph unicode="4" horiz-adv-x="1100" d="M-16 381l1040 885h108l-1064 -844v-4h518l387 631l227 26q-219 -323 -426 -657h244l-17 -37h-247q-111 -180 -217 -369l-226 -12l254 381h-581z" />
<glyph unicode="5" horiz-adv-x="1100" d="M0 254q0 100 66 156q61 53 157 55q56 0 103 -27q47 -28 79 -65l-6 -13q-43 19 -90 19q-69 -2 -104 -53q-33 -54 -33 -121q2 -99 74 -152q67 -53 159 -53q164 4 254 139q91 131 91 287q-3 199 -195 207q-61 0 -127 -27q-66 -24 -119 -63l-16 14l467 549q102 -86 233 -86 q109 0 199 61l8 -12q-68 -70 -154 -123q-88 -57 -192 -57q-102 -2 -188 55l-285 -330l4 -4q125 62 262 60q135 -2 217 -72q80 -70 82 -182q-6 -215 -178 -328q-80 -55 -176 -82q-96 -31 -197 -31q-65 0 -133 15q-70 14 -129 45q-59 33 -94 88q-39 51 -39 131z" />
<glyph unicode="6" horiz-adv-x="1100" d="M119 270q0 103 30 207q29 103 80 203q109 203 283 371q371 364 811 374q139 0 231 -47q90 -51 92 -157q0 -68 -38 -105q-41 -39 -105 -55q8 55 8 108q-2 117 -73 176q-74 56 -172 56q-123 -2 -250 -78q-129 -76 -248 -197q-244 -252 -360 -465l4 -4q61 80 139 133 q76 52 186 54q121 -2 182 -70q62 -70 62 -180q-6 -234 -188 -420q-179 -192 -408 -199q-135 2 -199 82q-67 80 -67 213zM279 192q0 -86 32 -137q33 -55 111 -55q86 2 160 72q71 67 120 168q105 215 107 374q0 72 -29 131q-33 60 -112 62q-56 0 -121 -47q-66 -47 -127 -131 q-137 -174 -141 -437z" />
<glyph unicode="7" horiz-adv-x="1100" d="M6 -254l1124 1257l-8 5q-67 -48 -127 -76q-61 -31 -145 -31q-47 0 -96 14q-50 13 -101 29q-100 41 -170 43q-65 0 -96 -27q-31 -28 -45 -67q-12 -35 -27 -66q-14 -30 -47 -30q-28 0 -30 28q0 31 41 64q36 30 79 67q11 11 27 35q16 27 31 58q35 69 63 124l15 -6l-86 -162 l8 -2q53 52 112 76q58 27 131 27q48 0 93 -12q43 -13 90 -29q90 -43 174 -45q59 0 108 26q49 23 88 60l15 -10q-508 -648 -963 -1331z" />
<glyph unicode="8" horiz-adv-x="1100" d="M25 324q0 110 45 186q41 74 112 119q150 88 338 110q-41 99 -41 203q2 166 133 256q125 90 279 92q145 -2 244 -84q98 -84 100 -233q-4 -166 -125 -256q-119 -92 -279 -99l-2 17q127 18 195 106t68 211q0 117 -48 213q-53 96 -182 101q-104 -2 -155 -82q-56 -78 -56 -179 q0 -79 31 -159q29 -80 68 -160q38 -80 67 -158q29 -80 29 -159q-10 -392 -455 -394q-358 9 -366 349zM180 336q2 -148 76 -240q72 -94 172 -96q66 0 111 31q45 28 75 75q60 97 60 207q-2 111 -54 213q-49 103 -96 197q-338 -39 -344 -387z" />
<glyph unicode="9" horiz-adv-x="1100" d="M-706 -195q0 48 30 86q29 39 86 52q25 -166 107 -267q82 -104 229 -106q158 2 311 96q156 90 291 228q281 296 410 550l-4 4q-60 -88 -146 -149q-88 -63 -207 -63q-112 2 -172 73q-63 72 -63 178q0 103 53 211q51 107 135 199q84 94 185 152q96 57 196 57q127 0 203 -74 q76 -76 78 -233q-2 -230 -127 -451t-326 -403q-198 -180 -424 -287q-227 -111 -434 -113q-178 0 -293 60q-116 61 -118 200zM338 477q-2 -67 31 -127q30 -63 108 -65q86 0 158 63q72 62 125 152q110 194 112 372q-2 117 -36 164q-37 45 -95 45q-96 -2 -170 -63 q-73 -64 -127 -158q-106 -205 -106 -383z" />
<glyph unicode=":" horiz-adv-x="569" d="M49 102q0 52 35 82q33 33 80 33q51 0 82 -33q33 -30 33 -82q0 -47 -33 -79q-31 -33 -82 -35q-47 2 -80 35q-35 32 -35 79zM344 606q0 51 35 82q33 33 80 33q51 0 82 -33q32 -31 32 -82q0 -47 -32 -80q-31 -35 -82 -35q-47 0 -80 35q-35 33 -35 80z" />
<glyph unicode=";" horiz-adv-x="569" d="M-184 -266q131 4 239 71q107 66 140 195q-13 -6 -29 -10q-14 -2 -33 -2q-37 2 -59 28q-25 27 -25 62q0 53 37 80q33 26 76 26q63 0 100 -30q35 -35 37 -97q0 -80 -45 -141t-117 -108q-71 -43 -155 -68t-166 -27v21zM344 606q0 51 35 82q33 33 80 33q51 0 82 -33 q32 -31 32 -82q0 -47 -32 -80q-31 -35 -82 -35q-47 0 -80 35q-35 33 -35 80z" />
<glyph unicode="&#x3c;" horiz-adv-x="1229" d="M197 305v111l720 334v-121l-610 -269l610 -268v-121z" />
<glyph unicode="=" horiz-adv-x="1229" d="M258 178v111h721v-111h-721zM258 432v111h721v-111h-721z" />
<glyph unicode="&#x3e;" horiz-adv-x="1229" d="M299 -29v121l610 268l-610 269v121l721 -334v-111z" />
<glyph unicode="?" d="M172 90q0 51 35 82q33 33 80 33q51 0 82 -33q32 -31 32 -82q0 -47 -32 -80q-31 -33 -82 -35q-47 2 -80 35q-35 33 -35 80zM303 760q0 119 119 229q117 113 311 117q164 -2 250 -76t86 -188q-2 -144 -84 -228q-80 -84 -201 -133q-116 -49 -231 -100q-117 -51 -191 -137 l-12 10q64 84 152 139q88 58 176 111t147 129q58 76 60 192q-4 244 -219 244q-84 0 -154 -64q-72 -63 -74 -172q0 -65 37 -106q35 -45 90 -45q43 2 78 27q-12 -62 -57 -97q-47 -37 -113 -37q-80 0 -125 56q-45 51 -45 129z" />
<glyph unicode="@" horiz-adv-x="1638" d="M104 690q5 359 240 574q227 213 559 215q311 -2 514 -183q203 -180 207 -463q-2 -178 -104 -344q-54 -77 -127 -124q-78 -54 -177 -54q-53 0 -90 23q-37 20 -61 45q-47 59 -45 88h-4q-8 -12 -27 -39q-22 -25 -53 -51q-31 -25 -74 -45q-43 -21 -98 -21q-84 0 -146 72 q-63 68 -65 207q0 186 115 350q112 166 319 172q64 0 100 -33q33 -33 52 -80h4l18 82h154l-140 -534q-12 -35 -12 -84q0 -33 25 -55q20 -23 69 -23q66 0 119 45q29 23 49 49q21 29 39 60q72 141 74 292q-2 201 -164 383q-164 189 -471 195q-256 -2 -432 -191 q-182 -188 -186 -514q2 -276 178 -458q170 -189 461 -193q145 0 245 33q99 29 189 72l26 -66q-102 -47 -219 -84q-57 -18 -123 -28q-67 -13 -141 -13q-373 4 -582 215q-213 205 -215 508zM709 592q0 -189 127 -187q81 0 163 119q78 117 105 348q-2 144 -105 146 q-110 -2 -198 -121q-90 -121 -92 -305z" />
<glyph unicode="A" horiz-adv-x="1782" d="M-231 238q0 61 34 110q31 45 97 47q41 0 69 -24q29 -25 29 -64q0 -53 -31 -78q-30 -26 -88 -26q2 -86 74 -133q65 -50 143 -50q140 0 273 72q67 35 131 78q61 43 120 92q244 221 412 426q223 260 490 485q266 226 587 332l15 -12q-322 -358 -547 -719 q-234 -362 -238 -651q2 -98 65 -98h3q61 0 158 67q94 64 196 168q154 166 246 287l16 -10q-82 -121 -266 -314q-102 -106 -207 -172q-104 -69 -209 -71q-98 2 -137 61q-37 52 -37 127v8q0 125 43 242q39 114 94 219h-286q-168 -211 -408 -418q-239 -217 -524 -223 q-125 0 -219 59q-96 58 -98 183zM1040 661h277q231 406 577 727l-4 5q-467 -267 -850 -732z" />
<glyph unicode="B" horiz-adv-x="2009" d="M61 231q0 62 35 103q31 41 94 43q101 -4 103 -101q-2 -36 -25 -63q-22 -25 -49 -33q-2 -12 -2 -24q2 -164 213 -164q209 4 348 164q141 155 262 383q123 227 275 446q149 217 374 346q-178 123 -399 123q-309 -2 -583 -199q-130 -94 -209 -233q-84 -139 -84 -315 q0 -50 16 -101q12 -53 41 -98q29 -43 72 -72q41 -31 98 -31q162 3 252 134q88 127 90 301q-2 94 -12 153l22 2q12 -55 15 -147q0 -197 -107 -334q-106 -143 -321 -145q-154 2 -242 98q-88 94 -88 248q2 170 102 311q99 139 258 240q334 211 692 213q269 0 490 -97 q80 35 164 64q84 28 170 33l4 -13q-62 -2 -152 -35q-88 -36 -135 -75q168 -92 172 -279q0 -86 -41 -147q-41 -64 -110 -107q-68 -39 -146 -63q-78 -27 -153 -39l-2 -4q65 -4 126 -17q60 -12 107 -39q49 -26 78 -73q26 -49 26 -131q-4 -228 -174 -357q-168 -131 -387 -133 q-90 0 -168 45q-82 45 -84 140q0 53 39 92q35 39 88 39q62 0 109 -41q-80 -51 -80 -140q0 -108 111 -110q84 2 147 45q66 41 111 110q90 146 92 297q0 260 -283 260h-6l2 17q158 8 283 96q127 88 131 268q0 119 -86 201q-150 -127 -264 -340q-119 -215 -250 -440 q-131 -221 -324 -377q-194 -158 -495 -162q-136 2 -240 70q-109 67 -111 194z" />
<glyph unicode="C" horiz-adv-x="1366" d="M152 403q2 201 120 394q117 190 301 342q394 329 809 340q125 0 215 -52q90 -53 92 -192q0 -74 -34 -133q-39 -60 -99 -103q-125 -88 -268 -88q-86 0 -151 43q-70 43 -72 135q2 64 24 101l21 -6q-21 -43 -21 -95q0 -65 43 -102q39 -39 103 -39q67 0 129 35q59 31 104 84 q97 111 99 244q-2 88 -68 116q-63 27 -119 27q-162 -2 -338 -100q-176 -99 -329 -262q-154 -162 -250 -359q-101 -199 -103 -397q0 -154 72 -246q72 -96 203 -98q184 4 323 145q142 137 146 334q0 86 -33 143q-35 54 -127 56q-45 0 -88 -23q-43 -24 -82 -61 q-78 -78 -125 -150l-20 10q69 109 166 191q94 80 231 82q111 0 176 -64q64 -63 66 -170q-7 -249 -224 -383q-213 -133 -462 -135q-426 8 -430 436z" />
<glyph unicode="D" horiz-adv-x="1933" d="M70 61q0 37 70 37h7q43 0 127 -16t195 -33q174 37 297 193q123 153 233 360q111 209 246 401q135 193 332 310q-82 71 -195 108q-112 33 -227 33q-336 -2 -569 -203q-242 -200 -246 -547q0 -55 16 -106q13 -53 43 -96q58 -94 181 -97q96 0 170 56q71 53 120 141 q99 184 103 397h24q-18 -327 -159 -489q-144 -162 -344 -162q-146 2 -232 107q-86 100 -86 241q2 168 86 309q82 144 219 248q287 221 633 226h15q272 0 489 -144q207 123 446 152v-17q-223 -30 -391 -180q205 -192 205 -475q-6 -412 -309 -623q-299 -212 -717 -212 q-203 4 -383 45q-43 -7 -100 -15q-58 -10 -146 -10q-82 0 -119 20q-34 21 -34 41zM516 37q27 -8 115 -19q88 -14 213 -14q381 14 622 303q244 291 248 660q0 77 -16 153q-17 76 -68 135q-160 -178 -260 -358q-98 -182 -195 -350q-94 -166 -243 -297q-152 -133 -416 -209v-4z " />
<glyph unicode="E" horiz-adv-x="1403" d="M111 322q2 147 88 231q84 80 192 133q57 29 107 55q49 25 90 56q41 30 65 67q27 37 27 86q20 291 170 414q146 115 355 115h7q60 0 119 -9q57 -12 105 -39q49 -24 79 -69q29 -45 29 -115q-4 -145 -119 -219q-114 -74 -252 -74q-77 0 -151 23l2 18q45 -16 94 -16 q272 0 279 270q-2 201 -201 205q-121 -2 -188 -84q-70 -84 -89 -197q-16 -139 -57 -219q-43 -82 -178 -145q-164 -72 -262 -170q-103 -98 -103 -299q3 -164 123 -248q117 -88 273 -88q166 0 280 94q115 94 119 267q-2 180 -174 184q-74 0 -135 -39q-62 -39 -111 -92l-14 10 q139 156 344 158q113 0 186 -60q74 -59 76 -174q-2 -106 -72 -180q-71 -74 -182 -119q-53 -20 -108 -37q-58 -16 -117 -28q-117 -21 -211 -21h-9q-173 0 -317 76q-71 43 -114 111q-45 67 -45 168z" />
<glyph unicode="F" horiz-adv-x="1630" d="M-29 258q2 61 37 102q33 41 88 43q47 0 78 -24q29 -27 29 -74q0 -31 -19 -57q-18 -29 -57 -33q10 -115 84 -162q71 -49 172 -49h8q137 0 244 70q104 63 186 164q82 104 150 217q67 112 127 213h-90v24h102q117 236 291 391q172 156 434 209v4q-266 2 -535 8h-22 q-307 0 -643 -79q-164 -45 -268 -129q-107 -84 -109 -215q0 -58 33 -101t82 -71q49 -27 108 -39q56 -15 109 -15q219 0 352 107q133 104 135 299q0 39 -2 57h25q0 -31 2 -59q-4 -213 -154 -352q-149 -144 -364 -146q-131 0 -236 78q-112 74 -115 215q0 117 58 195 q55 79 139 133q254 168 555 219q289 45 565 45h23q389 -6 610 -29h5q97 0 97 -73q0 -37 -39 -56q-38 -22 -129 -22q-124 4 -253 10q-93 -2 -175 -64q-81 -61 -153 -155q-141 -203 -219 -365q41 4 84 6q43 4 84 13q41 8 73 32q31 21 48 64q112 8 223 8q-137 -100 -264 -219 q-62 -62 -111 -129q-51 -70 -86 -154h-16q65 203 178 373q-43 -6 -109 -10q-67 -6 -114 -8q-158 -277 -363 -478q-207 -204 -557 -210q-133 0 -268 65q-64 35 -105 86q-41 53 -43 127z" />
<glyph unicode="G" horiz-adv-x="1290" d="M20 227q0 68 31 117t98 51q41 0 74 -20q29 -25 31 -82q0 -66 -74 -82q-8 -29 -8 -59q2 -101 74 -132q67 -28 159 -28q113 2 205 59q88 55 162 139q74 86 133 181q60 94 111 172l-4 4q-82 -74 -189 -125q-108 -57 -223 -57q-133 0 -207 83q-76 80 -76 211q5 232 166 398 q158 166 348 268q-16 39 -16 94q2 164 156 211v-16q-58 -15 -92 -64q-39 -51 -39 -112v-11q0 -50 16 -94q115 62 266 103q148 41 293 43q324 0 328 -189q-2 -69 -43 -117q-41 -45 -109 -73q-135 -47 -252 -47h-10h-19q-261 0 -429 192q-136 -98 -240 -262 q-113 -164 -115 -340v-8q0 -89 43 -152q41 -69 144 -69q94 2 194 69q51 31 88 68q37 39 56 76q24 47 45 86q18 41 43 67q26 31 63 47q37 15 90 15q62 0 64 -23q0 -26 -17 -61q-18 -35 -45 -72q-24 -37 -47 -68q-24 -34 -35 -57q-59 -166 -270 -369q-104 -94 -244 -157 q-141 -66 -313 -68q-129 0 -242 60q-53 30 -86 82q-37 49 -37 118zM897 1257q133 -168 351 -168h5q158 0 256 70q101 68 103 162q0 63 -43 98q-47 35 -166 35q-121 -2 -266 -61q-148 -58 -240 -136z" />
<glyph unicode="H" horiz-adv-x="1933" d="M-131 223q0 62 31 113q30 49 96 51q94 -4 98 -96q0 -84 -78 -92q2 -195 193 -195h4h5q212 0 364 156q176 182 270 362q96 178 184 344q90 168 252 309q160 144 469 254v4q-35 1 -70 1q-354 0 -761 -101q-211 -59 -349 -170q-141 -108 -143 -287q0 -83 49 -139 q47 -59 129 -59q121 0 205 88q84 84 86 215q-2 70 -27 119l21 4q29 -51 31 -123q-4 -176 -125 -262q-119 -90 -285 -90q-113 0 -182 71q-74 68 -74 183q2 174 141 286q136 111 349 174q437 115 861 115h29q168 0 236 12q67 9 102 9q33 -2 35 -19q0 -14 -18 -20 q-23 -11 -88 -11q-39 0 -86 4q-244 -75 -385 -270q-144 -194 -260 -422h307q153 295 422 496q266 205 575 209q82 0 156 -29q75 -33 77 -106q-2 -37 -24 -56q-27 -18 -62 -18q-32 0 -55 29q-24 26 -45 57q-20 35 -49 61q-31 23 -76 25q-149 -4 -264 -90t-192 -176 q-160 -172 -285 -439q-131 -266 -133 -503q0 -56 22 -103q25 -51 84 -53q31 0 66 21q33 16 69 45q76 61 154 149q164 191 235 289l19 -15q-107 -151 -287 -348q-86 -92 -180 -153q-96 -64 -188 -66q-109 2 -150 76q-41 69 -41 161v9q0 131 43 262q39 131 94 242h-305 q-141 -301 -358 -514q-219 -217 -574 -223q-112 0 -233 57q-57 31 -92 76q-37 47 -39 110z" />
<glyph unicode="I" horiz-adv-x="1251" d="M-109 240q0 59 35 104q31 41 92 43q101 -4 105 -100q0 -39 -17 -62q-20 -24 -67 -33q0 -98 61 -143q58 -45 160 -45q277 6 453 250q174 237 331 539q115 215 279 368q162 152 495 268v4q-24 1 -51 1q-132 0 -321 -13q-228 -16 -461 -69q-233 -54 -393 -172 q-164 -117 -168 -324q0 -90 55 -143q49 -58 139 -58q113 0 197 84q86 80 88 207q-2 64 -29 117l21 4q31 -49 33 -121q-2 -160 -117 -248q-117 -92 -279 -92q-118 0 -198 74q-82 70 -82 192q2 189 156 308q149 116 376 176q472 102 873 103q15 0 30 -1q138 0 222 12 q82 9 122 9q27 0 46 -9q16 -8 16 -24q0 -19 -21 -25q-20 -8 -47 -8q-14 0 -71 6q-58 4 -99 6q-186 -80 -307 -204q-119 -123 -205 -273q-82 -147 -165 -303q-86 -158 -203 -303q-131 -162 -301 -260q-170 -100 -377 -102q-59 0 -127 14q-70 12 -133 41q-62 31 -103 82 q-40 49 -43 123z" />
<glyph unicode="J" horiz-adv-x="1251" d="M-428 -360q4 139 125 217q119 77 295 114q176 39 356 62q180 20 305 45q129 219 238 426q108 207 227 385q123 178 291 317t414 223v4q-25 1 -51 1q-335 0 -791 -84q-227 -54 -381 -168q-162 -115 -164 -312q0 -213 197 -215q108 0 192 82q84 80 86 207q0 57 -24 113 l20 6q27 -51 29 -123q-2 -139 -107 -233q-104 -99 -274 -101q-127 0 -207 78q-84 74 -84 188q4 207 197 328q186 119 440 174q256 55 473 72q215 12 285 12q141 0 235 12q94 9 154 9q18 0 31 -7q12 -6 12 -24q0 -17 -17 -23q-18 -8 -69 -8q-64 0 -129 6q-166 -39 -311 -194 q-144 -158 -271 -369q-123 -211 -225 -407q-104 -199 -188 -322l2 2l4 -4q205 61 334 156q126 96 258 264l14 -15q-131 -174 -262 -272q-133 -98 -361 -162q-161 -280 -387 -487q-229 -213 -575 -219q-121 0 -223 55q-50 31 -80 78q-31 45 -33 113zM-256 -373q2 -96 61 -151 q60 -56 158 -58q129 2 229 68q99 63 179 164q80 100 147 209q66 106 123 196q-80 -20 -223 -37q-146 -20 -301 -59q-152 -37 -258 -115q-111 -77 -115 -217z" />
<glyph unicode="K" horiz-adv-x="1857" d="M-115 240q0 57 31 102q31 43 92 45q45 0 76 -29q29 -28 29 -73q-4 -76 -80 -86q6 -195 201 -195h8q153 2 274 92q119 86 211 215q94 129 168 264q72 136 129 238q145 250 311 389q164 139 455 236v4q-150 0 -371 -15q-221 -20 -442 -77q-221 -56 -369 -168 q-153 -115 -155 -303q0 -84 49 -140q47 -59 133 -59q59 0 110 29q50 24 91 65q83 88 86 199q-3 61 -31 116l20 9q13 -23 25 -54q10 -32 10 -75q-2 -150 -121 -242q-114 -96 -274 -96q-117 0 -191 71q-77 70 -79 189q4 186 172 301q163 115 401 174q490 100 814 100h36 q235 4 309 13q21 0 39 -2q16 -7 18 -21q-2 -18 -18 -27q-21 -8 -41 -8q-102 0 -176 12q-33 -6 -94 -34q-62 -29 -117 -74q-199 -176 -313 -377q-115 -201 -256 -450q-111 -201 -301 -355q-193 -159 -500 -163q-127 0 -244 57q-53 31 -88 80t-37 123zM1245 745q0 13 14 17 q13 2 23 2q45 -2 88 -6q152 2 274 110q121 105 240 242q121 137 272 242q148 102 355 106q84 0 147 -35q62 -35 64 -114q-2 -91 -60 -123q-54 -33 -132 -33h-9q45 92 45 182q0 96 -94 98q-41 0 -84 -28q-43 -29 -88 -78q-90 -102 -209 -238q-117 -133 -287 -237 q-172 -105 -426 -111v-4q180 -67 180 -250q0 -53 -16 -108q-18 -57 -45 -117q-23 -55 -43 -106q-21 -50 -21 -86q0 -66 52 -66h2q46 0 159 76q117 78 275 260q104 125 166 209l14 -15q-94 -141 -287 -346q-92 -94 -192 -157q-102 -64 -199 -64q-71 2 -114 47q-48 45 -48 115 q0 66 29 131q27 66 62 129q34 66 61 123q27 59 27 104q-2 121 -119 121h-4q-23 -2 -47 -4q-23 -2 -25 12z" />
<glyph unicode="L" horiz-adv-x="1175" d="M-332 -12q0 20 17 35q14 12 59 18q82 12 358 12q97 0 185 72q86 65 168 184q163 242 338 588q-115 27 -218 98q-47 37 -77 92q-33 52 -33 125q0 107 63 170q62 64 179 64q65 0 108 -23l-8 -18q-43 16 -98 16q-113 -2 -166 -63q-54 -62 -54 -148q2 -114 97 -188 q90 -78 221 -103q117 228 340 392q221 163 487 168q43 0 90 -7q43 -8 80 -28q78 -39 80 -140q-2 -118 -102 -202q-103 -82 -254 -135q-317 -95 -536 -95h-9q-131 -278 -309 -497q-180 -223 -492 -326v-4q66 0 144 -2q79 -4 151 -25q76 -20 125 -65t53 -129q361 381 735 706 l13 -14q-398 -346 -748 -721q-16 -76 -63 -127q-49 -55 -119 -57q-10 0 -27 4q-18 2 -18 16q0 13 10 21t19 18q12 13 20 37q6 21 6 64q0 84 -32 135q-31 49 -84 76q-50 26 -107 34q-59 9 -113 9q-24 0 -69 -11q-45 -10 -98 -26q-52 -17 -105 -27q-55 -12 -104 -14 q-39 0 -68 6q-33 6 -35 35zM993 897h17q199 0 442 90q121 51 197 139q77 88 79 226q0 43 -26 71q-29 29 -96 31q-93 -2 -183 -55q-90 -56 -172 -144q-168 -186 -258 -358z" />
<glyph unicode="M" horiz-adv-x="2048" d="M-281 215q0 66 33 111q31 41 99 43q40 0 65 -23q27 -24 27 -65q0 -93 -92 -101q4 -88 61 -125q55 -39 139 -39h6q223 0 504 271q156 166 297 352q141 184 293 358q153 176 342 307q188 134 438 191l12 -16q-186 -72 -307 -232q-119 -164 -215 -371q-94 -206 -209 -413 q-116 -207 -297 -365l4 -4q283 201 498 483q213 283 436 527q396 373 746 375q78 0 110 -7q31 -8 31 -32q-2 -21 -25 -25q-24 -4 -45 -4q-53 0 -96 14q-43 11 -63 13q-174 -84 -287 -275q-117 -190 -223 -418q-107 -225 -256 -421q-150 -197 -393 -295v-4h18q213 0 362 51 q150 47 248 125q101 78 168 168q68 90 121 174l16 -11q-57 -96 -129 -190q-75 -94 -178 -172q-102 -76 -250 -121q-147 -49 -352 -49q-76 0 -115 4q-34 -2 -112 -4q-55 0 -55 25q0 28 43 28q32 0 71 -6q37 -8 84 -18q53 12 111 65q55 53 114 135q119 172 211 377 q101 232 273 457q170 223 436 364l-4 4q-227 -61 -397 -198q-172 -137 -316 -314q-143 -176 -282 -354q-142 -180 -308 -332q-163 -151 -366 -249l-19 16q140 143 224 326q86 180 170 376q84 197 227 383q143 185 395 330l-4 4q-295 -121 -500 -342q-206 -221 -360 -428 q-82 -102 -174 -219q-92 -115 -199 -219q-106 -100 -229 -164q-125 -65 -272 -67q-111 0 -203 61q-43 31 -72 76q-29 43 -29 98z" />
<glyph unicode="N" horiz-adv-x="1630" d="M-305 236q0 63 35 104q35 39 90 39q100 -4 102 -88q0 -80 -80 -96q-1 -10 -1 -19q0 -72 42 -113q45 -47 129 -47q166 2 307 115q142 109 256 272q230 353 353 637l73 156q15 86 39 141q23 56 49 86q56 56 89 56h2q20 0 20 -17q-12 2 -31 -170q2 -209 60 -432 q53 -223 57 -471q0 -43 -6 -88h4q106 287 358 696q123 191 269 318q145 127 303 131q90 0 143 -43q53 -45 55 -129q-2 -103 -79 -164q-78 -64 -173 -68v13q58 12 93 51q34 37 36 102q0 53 -38 92q-41 39 -121 39q-127 -2 -250 -110q-127 -113 -250 -305q-248 -398 -465 -969 l-28 4q8 72 10 143q-4 267 -66 525q-61 258 -76 520h-4q-69 -150 -163 -344q-48 -96 -103 -193q-55 -98 -119 -192q-125 -185 -284 -309q-160 -127 -357 -129q-114 2 -194 69q-84 70 -86 187z" />
<glyph unicode="O" horiz-adv-x="1517" d="M158 340q6 360 290 676q273 317 633 368q68 60 121 80q55 15 102 15q123 -2 183 -91q57 -90 57 -237q-2 -184 -90 -377q-88 -192 -197 -338q67 -24 141 -24h11q100 0 192 45q93 43 146 94l12 -14q-170 -150 -346 -150q-96 0 -174 29q-133 -172 -315 -305 q-185 -140 -408 -144q-201 4 -280 115q-78 105 -78 251v7zM367 322v-10q0 -120 45 -210q45 -96 161 -98q91 0 181 45q88 41 165 111q162 143 242 291q-272 157 -276 475q2 247 172 428l-4 4q-152 -33 -277 -142q-127 -110 -219 -264q-188 -321 -190 -630zM967 975v-11 q0 -133 45 -270q24 -67 67 -125q41 -59 99 -96q196 330 202 696q0 111 -35 185q-36 73 -124 75q-72 -2 -111 -45q92 -4 127 -53q33 -51 33 -117q-2 -45 -11 -75l-22 2q8 32 8 75q0 62 -33 105q-34 39 -110 39h-15q-59 -68 -90 -176q-30 -109 -30 -209z" />
<glyph unicode="P" horiz-adv-x="1669" d="M-106 70q2 49 102 49q141 -2 268 -33q125 -35 182 -37q174 31 297 197t242 393t289 446q168 219 434 355v4q-90 26 -258 26q-320 -2 -662 -211q-159 -102 -262 -247q-106 -148 -108 -334v-8q0 -79 37 -148q39 -74 131 -76q80 0 141 43q61 41 104 105q84 135 86 248 q0 43 -4 92h25q4 -35 4 -86q0 -152 -111 -295q-114 -152 -329 -156q-117 2 -180 88q-68 84 -68 195q2 164 123 313q117 146 301 258q393 238 776 244q168 0 297 -35q143 57 289 78l2 -16q-123 -21 -236 -80q109 -43 174 -127q64 -82 66 -203q-2 -90 -43 -158 q-43 -71 -113 -121q-147 -102 -315 -102q-78 0 -127 39q-53 35 -53 88q0 43 32 72q29 28 80 28q60 0 88 -22q-82 -43 -82 -113q0 -33 23 -49q20 -18 45 -18q55 0 108 45q54 43 95 108q88 140 90 277v6q0 153 -107 223q-174 -127 -299 -328q-129 -200 -254 -417 q-122 -217 -284 -385q-164 -170 -410 -238v-4q158 -37 318 -39h10q640 0 1036 530l14 -8q-163 -256 -376 -403q-215 -154 -549 -156q-246 4 -488 66q-166 -49 -340 -53q-92 0 -168 24q-79 23 -83 66z" />
<glyph unicode="Q" horiz-adv-x="1479" d="M-162 72q2 34 35 59q33 23 82 37q106 29 213 29q100 -2 201 -19q100 -20 172 -37q292 131 571 379q133 123 215 262q82 140 84 285q0 154 -68 262q-71 109 -237 113q-195 -2 -318 -131q-129 -131 -131 -330q0 -115 58 -195q57 -82 180 -84q96 0 176 54q80 49 135 127 l17 -9q-68 -96 -170 -157q-105 -64 -230 -64q-129 0 -215 82q-88 76 -90 207q0 119 66 217q63 98 161 170q211 148 433 150q192 0 309 -95q119 -94 121 -288q-2 -166 -119 -318q-115 -153 -287 -282q-373 -263 -637 -357v-4q109 -20 193 -37q82 -16 196 -16q277 2 432 133 q156 127 316 334l14 -12q-160 -220 -366 -400q-209 -188 -498 -194q-115 2 -225 43q-56 18 -107 41q-55 20 -110 39q-172 -84 -359 -86q-49 0 -125 18q-35 10 -61 29q-25 18 -27 45zM-35 90q2 -47 51 -61q40 -13 78 -13h10q152 0 289 58q-57 28 -149 61q-90 35 -154 37 q-43 0 -82 -12q-41 -17 -43 -70z" />
<glyph unicode="R" horiz-adv-x="1857" d="M-109 242q3 61 33 102q31 41 80 43q45 0 76 -22q29 -25 31 -70q-2 -82 -80 -92q4 -199 209 -199h8q223 4 375 182q149 174 280 418q131 248 295 471t412 332q-109 53 -224 67q-116 13 -194 13q-338 -2 -631 -203q-139 -96 -225 -231q-90 -140 -90 -306q0 -112 65 -178 q64 -69 174 -69q90 0 164 49q72 45 125 119q109 155 111 327q0 39 -4 101l22 2q4 -43 6 -88q-2 -215 -127 -377q-127 -166 -356 -170q-141 0 -236 82q-98 80 -100 225q2 178 115 317q108 136 276 232q361 190 694 192h36q244 0 478 -75q140 57 263 59v-16q-113 -15 -213 -66 q79 -43 131 -115q51 -73 53 -166q-2 -100 -49 -172q-47 -69 -125 -116q-164 -90 -348 -94v-5q65 -24 110 -75q45 -52 47 -131q0 -62 -16 -125q-18 -64 -45 -125q-23 -60 -41 -115q-20 -55 -20 -106q0 -64 47 -64q127 2 315 195q193 206 285 344l16 -15q-106 -153 -268 -329 q-101 -107 -199 -166q-100 -64 -209 -66q-78 2 -121 45q-47 41 -47 113q0 65 27 139q22 72 55 139q33 72 58 131q22 58 24 95q0 73 -39 96q-41 22 -106 25l4 16q14 -1 29 -1q46 0 108 9q86 16 150 62q61 43 100 102q78 127 78 227q0 64 -17 113q-20 45 -67 88 q-195 -150 -326 -377q-133 -229 -264 -461q-129 -231 -317 -385q-193 -159 -504 -163q-123 0 -236 63q-53 31 -84 82q-34 49 -37 117z" />
<glyph unicode="S" horiz-adv-x="1139" d="M-119 358q0 82 43 144q43 61 127 63q45 0 76 -22q33 -25 33 -70q0 -55 -39 -84q-39 -31 -92 -33q-17 -57 -17 -114q0 -68 37 -115q31 -47 84 -78q113 -57 236 -57q155 2 249 82q95 75 144 198q51 123 71 256q19 136 21 254q10 291 137 490q127 202 393 207q121 0 209 -48 q88 -51 90 -167q-2 -97 -69 -136q-68 -39 -162 -39q29 50 45 95q14 45 14 100q-4 166 -151 170q-115 -2 -178 -82q-64 -82 -93 -217q-28 -131 -43 -289q-14 -155 -30 -309q-8 -88 -45 -188q-37 -103 -113 -193t-197 -147q-61 -27 -137 -43q-76 -19 -168 -19q-186 0 -325 99 q-146 96 -150 292z" />
<glyph unicode="T" horiz-adv-x="1630" d="M90 256q0 59 37 100q35 39 94 39q103 -2 103 -92q-2 -80 -78 -96q8 -203 274 -203q131 0 236 66q104 63 186 163q84 103 154 222q67 118 129 229q135 248 276 389q141 137 393 213v4q-157 17 -395 17h-17q-395 0 -735 -91q-165 -47 -266 -133q-102 -86 -104 -211 q0 -55 33 -94q28 -43 75 -71q103 -60 217 -60q177 0 330 94q76 47 119 117q45 72 45 166q0 45 -6 90l22 2q9 -55 9 -113q-5 -180 -162 -309q-156 -135 -375 -137q-127 0 -225 76q-105 74 -107 223q2 184 156 299q147 117 366 180q460 111 785 111h22q410 -4 621 -25 q102 -8 102 -72q0 -77 -162 -79q-153 2 -260 8q-98 -2 -180 -66q-84 -65 -158 -174q-71 -108 -145 -237t-149 -260q-287 -551 -836 -561q-63 0 -135 14t-137 45q-66 35 -107 86q-45 51 -45 131z" />
<glyph unicode="U" horiz-adv-x="1706" d="M188 917q0 121 72 226q70 104 182 182q238 166 510 170q94 0 158 -49q59 -49 61 -148q-2 -94 -98 -252q-96 -159 -221 -337q-125 -179 -219 -336q-99 -160 -101 -254q2 -82 84 -82q72 0 166 59q90 58 191 148q205 190 342 409l475 772l225 8l-532 -827 q-140 -213 -195 -330q-59 -116 -57 -186q-2 -72 57 -74q66 0 145 54q78 49 164 127q176 165 330 348l18 -15q-100 -122 -276 -303q-233 -245 -420 -247q-100 2 -141 47t-41 114q0 72 35 144q28 69 67 125l-4 4q-129 -162 -301 -293q-174 -137 -358 -141q-146 2 -146 153 q0 53 29 121t72 147q94 164 219 349q125 184 221 348q96 161 98 260q-2 98 -133 100q-209 -4 -389 -166q-86 -76 -139 -172q-55 -98 -55 -205q0 -57 34 -100q31 -47 91 -47q81 0 149 51q66 47 117 117l16 -12q-57 -78 -135 -134q-80 -59 -180 -59q-183 4 -187 186z" />
<glyph unicode="V" horiz-adv-x="1554" d="M256 874q2 138 113 222q108 84 276 141q170 57 358 104q189 45 351 105l10 -17q-129 -82 -203 -239q-74 -158 -129 -354q-55 -195 -125 -398q-74 -202 -198 -375l4 -4q331 191 686 496q166 152 282 328q56 86 92 178q35 92 45 188q-61 28 -61 94q0 47 37 76q33 27 74 27 q65 -2 92 -47q26 -45 26 -105q-4 -205 -174 -409q-170 -205 -415 -391q-533 -381 -860 -555l-19 14q107 172 168 366q61 193 115 388q55 194 145 368q92 172 260 299v6q-35 -14 -88 -30q-55 -17 -121 -35q-135 -37 -278 -94q-144 -54 -240 -140q-102 -88 -104 -213 q0 -65 33 -110q32 -47 104 -47q53 0 90 26q37 23 62 64q45 82 45 182h24q0 -125 -59 -215q-62 -92 -199 -94q-94 0 -156 53q-63 49 -63 147z" />
<glyph unicode="W" horiz-adv-x="2048" d="M205 862q0 133 96 217q94 84 250 139q158 58 356 113q197 53 404 127l8 -16q-123 -66 -201 -213q-82 -152 -141 -342q-60 -191 -125 -379q-68 -189 -164 -330l4 -4q488 436 721 748q31 45 57 98q25 53 45 94q86 150 207 242q119 88 168 90q31 0 31 -31q0 -12 -16 -31 q-17 -18 -46 -41q-59 -43 -110 -100q-76 -100 -117 -233q-22 -68 -41 -140q-8 -37 -18 -73q-10 -37 -23 -78q-37 -156 -96 -318q-61 -163 -176 -319l4 -4q321 170 657 489q160 158 264 330q103 174 113 350q-59 27 -61 86q0 47 30 80q29 33 76 33q68 -2 96 -45 q27 -45 27 -109q-4 -192 -166 -401q-164 -211 -397 -404q-512 -401 -819 -520l-19 13q140 208 207 446q66 238 131 461l-4 4q-303 -383 -751 -770q-68 -62 -111 -101q-45 -38 -104 -40q-27 2 -29 26q0 21 16 31q17 12 41 26q25 15 53 46q25 30 48 83q63 166 106 332 q43 164 92 318q51 155 131 290q78 134 211 236l-4 4q-92 -29 -223 -68q-133 -38 -262 -98q-129 -57 -215 -143q-90 -86 -92 -209q0 -61 38 -107q39 -47 101 -47q104 0 151 80q45 76 45 207h25q0 -61 -10 -119q-13 -57 -43 -104q-60 -98 -207 -100q-86 0 -152 55 q-65 53 -67 143z" />
<glyph unicode="X" horiz-adv-x="1782" d="M-41 137q2 53 33 86q33 31 80 31q94 -4 96 -94q-2 -51 -33 -74q14 -41 45 -59q31 -23 86 -23q156 2 322 111q164 106 305 278q307 367 317 780q0 111 -53 189q-57 78 -178 80q-105 -2 -191 -54q-88 -53 -153 -141q-135 -182 -137 -373q0 -96 51 -178q24 -39 65 -61 q37 -27 93 -27q61 0 112 31q49 29 90 72q84 94 129 198l17 -4q-56 -139 -162 -239q-109 -105 -268 -107q-121 2 -183 88q-63 84 -63 195q6 250 211 438q198 192 450 199q342 -9 342 -338q0 -56 -4 -90l4 -5q140 170 350 299q211 129 451 134q72 0 133 -35q62 -39 64 -121 q0 -51 -33 -76q-31 -26 -82 -26q-14 0 -39 10q-27 6 -27 20q2 27 9 56q0 71 -39 98q-41 24 -103 24q-145 -2 -305 -106q-160 -105 -291 -270q-116 -154 -204 -365q-91 -213 -93 -403v-8q0 -92 43 -164q23 -37 60 -60q37 -24 90 -24q92 0 184 57q90 51 174 133 q174 176 281 326l14 -15q-102 -151 -250 -303q-104 -108 -231 -182q-127 -76 -274 -78q-134 2 -205 82q-74 78 -74 211q0 76 8 143l-4 5q-141 -189 -352 -312q-209 -127 -410 -129q-121 0 -194 43q-72 43 -74 127z" />
<glyph unicode="Y" horiz-adv-x="1593" d="M-190 -350q2 96 71 164q66 69 160 69q125 0 233 -61l-2 -17q-57 27 -118 29q-86 0 -129 -63q-43 -62 -43 -146q0 -88 55 -159q53 -74 178 -76q205 4 377 174q174 166 336 424l282 434l-4 4q-123 -154 -303 -295q-184 -145 -389 -151q-139 2 -141 137q0 53 28 125 q29 69 74 149q96 164 221 346t221 342q97 160 99 254q0 121 -109 121q-217 -4 -393 -164q-186 -158 -190 -375q0 -55 28 -102q29 -51 84 -51q82 2 141 49q58 45 109 102l14 -10q-55 -67 -129 -121q-75 -57 -174 -57q-82 0 -135 45q-57 43 -57 131q0 109 65 211 q64 102 170 184q224 176 514 183q43 0 86 -7q41 -8 74 -26q72 -39 74 -135q-2 -111 -99 -275q-96 -166 -221 -348q-125 -180 -221 -334q-100 -153 -102 -243q0 -82 82 -82q63 0 141 43q78 41 160 104q168 135 272 277q397 583 606 962l228 10l-945 -1491 q-157 -235 -378 -399q-222 -166 -502 -170q-164 0 -279 64q-116 65 -120 221z" />
<glyph unicode="Z" horiz-adv-x="1442" d="M39 -10q0 22 20 41q19 18 50 37q32 20 69 47q39 24 76 57q653 594 1294 1106l-4 4q-82 -47 -168 -78q-84 -33 -182 -33q-70 0 -137 29q-68 23 -133 51q-64 31 -131 53q-68 23 -138 23q-114 -2 -180 -78q-70 -78 -70 -178q0 -70 54 -129q49 -59 139 -61q100 0 162 49 q61 45 108 112l15 -8q-43 -72 -113 -123q-74 -53 -178 -55q-94 0 -152 61q-59 58 -59 156q4 162 133 266q125 105 268 107q92 0 180 -23q87 -22 166 -55q80 -29 158 -51q74 -27 145 -27q93 0 146 31q51 29 82 63q30 39 53 68q20 27 47 27q16 0 29 -9q10 -10 10 -28 q0 -19 -20 -37q-23 -19 -60 -39q-37 -21 -80 -47q-43 -29 -84 -66q-628 -569 -1300 -1101l4 -5q74 37 150 66q75 27 157 29q72 0 142 -21q67 -22 135 -51q71 -27 135 -49q61 -27 121 -27q127 0 209 64q79 57 159 145q58 57 105 119q45 59 92 117l10 -9q-121 -172 -317 -360 q-97 -86 -201 -143q-109 -58 -217 -60q-82 2 -154 31q-71 29 -139 63q-63 39 -125 68q-63 27 -127 27q-100 0 -155 -41q-31 -19 -58 -49q-26 -31 -59 -68q-25 -29 -53 -31q-27 0 -29 23z" />
<glyph unicode="[" horiz-adv-x="797" d="M-434 -635l1362 2093h528l-37 -57h-366l-1272 -1978h366l-36 -58h-545z" />
<glyph unicode="\" horiz-adv-x="455" d="M43 -39q162 74 340 244q178 172 293 338l12 -17q-121 -182 -299 -350t-336 -233z" />
<glyph unicode="]" horiz-adv-x="797" d="M-666 -635l37 58h367l1272 1978h-367l37 57h545l-1362 -2093h-529z" />
<glyph unicode="^" horiz-adv-x="1229" d="M186 360l377 746h111l377 -746h-121l-312 615l-311 -615h-121z" />
<glyph unicode="_" horiz-adv-x="1024" d="M0 -154h1024v-102h-1024v102z" />
<glyph unicode="`" horiz-adv-x="530" d="M162 1143q0 63 65 65q31 -2 49 -43q17 -43 23 -80q12 -43 41 -80q29 -36 59 -67q33 -29 56 -47q22 -21 22 -33q0 -14 -12 -14q-23 0 -70 30q-47 29 -102 74q-53 47 -90 98q-41 50 -41 97z" />
<glyph unicode="a" horiz-adv-x="1063" d="M-4 190q2 103 55 203q53 101 141 180q181 174 383 181q136 0 181 -127l51 82l213 12q-29 -53 -86 -141q-62 -89 -125 -185q-64 -96 -109 -182q-47 -88 -47 -145q0 -52 47 -52h4q52 0 136 60q82 57 174 149q176 189 272 318l14 -9q-102 -143 -290 -344q-95 -100 -191 -159 q-98 -62 -192 -64q-64 2 -99 35q-39 33 -39 82q0 35 9 53h-4q-62 -71 -144 -119q-80 -49 -172 -51q-96 2 -139 70q-43 65 -43 153zM192 184q0 -59 23 -102q21 -45 80 -45q67 8 139 76q68 65 127 159q59 97 98 191q35 92 35 149q0 58 -18 88q-25 29 -82 29q-72 -2 -139 -59 q-72 -62 -131 -150q-60 -88 -95 -178q-37 -90 -37 -158z" />
<glyph unicode="b" d="M-33 186q0 50 29 119q29 68 106 193q146 235 596 917l232 10q-441 -659 -625 -936q-94 -145 -137 -237q-45 -92 -45 -158q0 -41 24 -69q21 -31 64 -33q86 2 166 71q78 68 141 162q64 99 100 189q35 90 35 139q0 18 -8 37q-12 16 -12 59q0 41 26 74q25 29 66 31 q70 -2 96 -54q21 -53 21 -114q0 -45 -13 -99q27 -24 70 -45q41 -22 88 -22q70 0 125 35q55 30 94 84l15 -13q-89 -129 -234 -131q-96 2 -164 66q-63 -215 -235 -352q-174 -140 -393 -142q-228 6 -228 219z" />
<glyph unicode="c" horiz-adv-x="833" d="M6 229q0 101 60 193q57 94 147 168q192 160 407 164q97 -2 152 -37q53 -37 53 -94q-2 -80 -53 -123q-51 -45 -119 -45q-30 0 -47 4q17 49 33 98q14 47 14 96q-2 74 -61 76q-53 0 -119 -41q-65 -41 -129 -113q-137 -147 -141 -352q0 -80 49 -131q47 -55 129 -55 q102 0 201 57q98 55 188 133q182 174 287 310l18 -9q-149 -196 -352 -370q-205 -185 -463 -191q-252 2 -254 262z" />
<glyph unicode="d" horiz-adv-x="1063" d="M0 190q0 107 55 205q54 101 137 180q177 175 388 179q139 -2 184 -131l481 790l229 12q-229 -360 -509 -792q-134 -203 -220 -359q-90 -155 -92 -221q0 -47 43 -49h2q94 0 283 182q143 146 297 353l20 -11q-106 -147 -278 -336q-96 -102 -189 -161q-92 -62 -192 -64 q-90 2 -123 58q-23 38 -23 77q0 14 3 29l-5 4q-61 -65 -137 -108q-78 -45 -176 -47q-96 2 -137 65q-41 61 -41 145zM197 176q0 -51 24 -86q21 -41 76 -41q68 0 139 64q68 61 127 151q60 92 96 187q35 94 35 163q0 62 -28 88q-31 27 -80 27q-64 -2 -129 -55 q-68 -56 -127 -144q-129 -184 -133 -354z" />
<glyph unicode="e" horiz-adv-x="833" d="M-2 217q2 100 61 197q58 94 150 172q194 164 399 168q182 -2 187 -129q-2 -72 -70 -127q-70 -56 -170 -93q-49 -18 -98 -32q-52 -15 -99 -27q-94 -24 -153 -37q-10 -37 -10 -73q0 -89 51 -142q47 -57 135 -57q180 2 397 201q166 161 283 313l14 -14q-117 -166 -309 -347 q-141 -122 -270 -174q-131 -49 -246 -49q-117 2 -182 72q-68 65 -70 178zM209 330q174 39 297 141q59 49 92 102q33 54 33 103q-2 53 -56 53q-49 -2 -106 -43q-59 -41 -113 -104q-53 -64 -92 -129q-39 -70 -55 -123z" />
<glyph unicode="f" horiz-adv-x="569" d="M-1268 -367q0 62 29 107q25 45 66 76q88 61 202 61q58 0 95 -8v-16q-99 -9 -158 -68q-62 -65 -62 -168q0 -221 252 -227q185 4 344 145q158 137 295 344q137 209 256 426q60 109 115 205q53 96 102 174h-196l20 37h201q121 223 323 457q103 108 224 178q120 67 256 69 q90 0 157 -39q66 -43 68 -129q-2 -73 -51 -110q-52 -37 -127 -37q-21 0 -37 4q41 72 43 166q-2 119 -90 121q-37 0 -78 -23q-41 -20 -84 -61q-86 -84 -168 -201q-80 -117 -143 -225q-62 -111 -97 -170h529l-23 -37h-528q-115 -199 -240 -424t-276 -430q-152 -201 -352 -330 q-201 -133 -475 -135q-134 0 -256 58q-60 30 -97 83q-37 52 -39 127z" />
<glyph unicode="g" horiz-adv-x="1063" d="M-704 -373q2 115 88 174q82 60 188 60q55 -2 113 -10v-15q-215 -10 -217 -219q2 -98 63 -162q59 -65 166 -67q145 2 268 86q123 82 223 207q105 127 189 258q84 133 153 237l-4 4q-65 -80 -155 -137q-90 -61 -201 -63q-84 2 -127 61q-43 55 -45 133q4 215 186 391 q172 182 385 189q78 0 123 -29t70 -105l47 89l209 12q-213 -381 -443 -764q230 74 402 235q174 162 309 353l12 -6q-135 -203 -319 -371q-186 -168 -420 -240q-297 -551 -887 -565q-155 0 -262 60q-110 59 -114 204zM195 190q0 -59 22 -98q23 -43 88 -43q35 0 68 21 q35 16 67 47q70 61 125 153q58 92 92 185q35 88 35 149q0 47 -12 86q-16 37 -72 39q-76 -2 -147 -55q-74 -58 -133 -146q-131 -186 -133 -338z" />
<glyph unicode="h" d="M-170 0l858 1415l223 10l-680 -1073l5 -4q47 57 104 125q55 70 121 133q67 64 141 105q72 41 152 43q137 0 139 -136q-2 -55 -43 -127q-43 -75 -100 -153q-54 -78 -97 -148q-47 -71 -47 -124q0 -50 40 -50h3q25 0 58 21q32 16 69 45q80 61 164 149q182 193 264 308 l12 -13q-114 -153 -284 -334q-200 -212 -344 -212h-4q-74 2 -107 45q-35 38 -35 96q0 71 47 145q43 74 97 142q57 71 100 133q41 59 43 104q-4 59 -53 59q-66 -2 -158 -79q-92 -76 -186 -193q-201 -248 -291 -426z" />
<glyph unicode="i" horiz-adv-x="530" d="M-33 113q0 71 70 194q72 123 250 404l211 10q-367 -555 -367 -643q0 -55 37 -58h3q41 0 114 50q75 47 186 159q197 207 285 316l18 -13q-123 -153 -305 -340q-115 -114 -201 -163q-88 -49 -159 -49q-68 2 -103 38q-37 35 -39 95zM498 1065q0 51 36 82q35 28 82 28 q41 0 70 -26q29 -29 29 -70q-2 -41 -31 -74q-31 -34 -76 -34q-43 0 -76 24q-34 25 -34 70z" />
<glyph unicode="j" horiz-adv-x="530" d="M-1239 -371q4 123 94 181q85 55 192 55h7q49 0 98 -10v-15q-94 0 -153 -57q-64 -57 -66 -148q0 -112 66 -178q61 -65 176 -67q176 4 342 159q164 154 305 375q74 109 137 223q66 113 121 218q115 217 188 352l211 10q-219 -387 -442 -766q227 76 401 236q174 159 303 342 l19 -13q-119 -172 -287 -334q-170 -161 -448 -264q-152 -241 -367 -399q-215 -160 -518 -164q-131 0 -250 58q-57 30 -92 81q-35 52 -37 125zM481 1065q0 51 37 82q35 28 82 28q41 0 70 -26q28 -29 28 -70q-2 -41 -30 -74q-31 -34 -76 -34q-43 0 -76 24q-35 25 -35 70z" />
<glyph unicode="k" d="M-168 0l862 1425l225 13q-337 -553 -696 -1088l4 -4q99 123 242 260q72 64 149 105q78 41 154 43q66 0 98 -33q33 -35 33 -90q-2 -101 -92 -150q-90 -51 -254 -94v-4q35 -8 61 -41q23 -35 25 -74q-2 -59 -20 -112q-21 -56 -21 -103q0 -37 33 -37q53 0 129 56 q72 51 153 133q166 172 279 325l18 -10q-129 -174 -303 -354q-86 -84 -178 -139q-92 -58 -186 -60q-64 2 -94 37q-35 35 -35 90q0 49 30 119q29 70 76 166q-35 -10 -73 -21q-37 -12 -64 -12q-37 0 -37 31q0 18 17 28q14 9 53 9q31 0 65 -4q37 -9 52 -9q38 0 106 50 q33 24 55 61q21 37 21 84q-2 82 -64 84q-65 -2 -157 -80q-93 -78 -187 -192q-198 -246 -280 -402z" />
<glyph unicode="l" horiz-adv-x="530" d="M-37 102q0 101 172 379l572 938l227 12l-633 -1007q-80 -125 -125 -211q-49 -88 -49 -141q0 -56 45 -56t119 50q71 47 155 129q156 157 301 348l19 -6q-113 -156 -264 -318q-221 -239 -400 -239q-139 0 -139 122z" />
<glyph unicode="m" horiz-adv-x="1479" d="M-188 0q227 358 440 725l239 12l-272 -372l4 -5q43 54 99 119q55 66 118 129q64 64 137 105q72 41 152 41q59 0 98 -31t39 -92q-2 -58 -35 -125q-34 -66 -71 -121l4 -4q82 110 211 237q63 60 131 99q65 35 133 37q70 -2 106 -41q39 -39 39 -95q-2 -67 -43 -139 q-43 -74 -100 -145q-57 -72 -100 -137q-47 -68 -47 -127q0 -52 43 -54q86 0 274 191q164 168 283 323l16 -8q-104 -139 -289 -334q-114 -114 -188 -161q-78 -47 -152 -47q-69 2 -110 40q-41 39 -41 101q0 69 47 143q43 76 100 148q58 73 101 135q40 59 43 98q-5 59 -56 59 q-30 0 -69 -22q-41 -21 -84 -62q-90 -79 -185 -198q-194 -258 -278 -414l-217 -8q147 225 256 393q53 84 84 148q30 61 30 98q0 27 -12 45q-16 20 -47 20t-70 -22q-39 -21 -86 -62q-90 -79 -184 -198q-197 -258 -285 -414z" />
<glyph unicode="n" d="M-172 0q219 356 434 721l234 8l-267 -373l4 -4q31 39 86 107q54 63 123 131q72 69 150 117q78 45 158 47q67 -2 104 -37q33 -37 33 -94q-2 -68 -43 -140q-41 -73 -97 -147q-53 -72 -96 -137q-47 -68 -47 -127q0 -54 53 -56q17 0 41 13q23 8 56 32q67 45 178 162 q186 209 272 318l21 -11q-115 -143 -297 -344q-105 -108 -181 -157q-77 -49 -155 -49q-76 2 -113 45q-39 38 -39 96q0 71 47 145q43 72 97 144q55 71 96 135q41 61 43 108q0 49 -57 51q-62 -2 -150 -79q-90 -76 -186 -193q-203 -248 -295 -426z" />
<glyph unicode="o" d="M8 209q0 113 60 211q53 96 141 172q186 158 401 162q111 -2 176 -60q64 -57 76 -143q12 -62 49 -96q35 -39 90 -39q105 0 209 131l13 -17q-41 -55 -97 -94q-55 -45 -125 -45q-90 0 -145 78q-51 -209 -215 -352q-164 -146 -385 -150q-113 2 -178 68q-70 63 -70 174z M180 100q0 -106 90 -108q82 2 156 76q74 71 133 176q127 225 131 376q0 107 -90 109q-78 -2 -149 -72q-74 -71 -138 -176q-131 -229 -133 -381z" />
<glyph unicode="p" d="M-582 -663q551 888 1094 1783l221 10l-473 -720l4 -5q43 56 92 115q49 60 105 113q55 53 121 88q65 33 139 33q76 0 119 -47q45 -48 45 -127q-2 -99 -43 -189t-105 -158l4 -4q140 33 264 125q125 90 211 199l15 -14q-78 -103 -207 -203q-131 -100 -307 -135 q-82 -76 -199 -152q-57 -35 -117 -57q-61 -23 -118 -25q-45 0 -74 19q-33 18 -33 57q0 43 43 74q43 26 103 45q59 18 122 26q64 9 107 15q41 51 88 149q47 94 49 211q0 49 -14 84q-19 35 -70 37q-43 0 -100 -45q-58 -45 -125 -123q-135 -164 -279 -395q-143 -232 -266 -449 q-125 -215 -199 -327zM254 46q0 -42 57 -42q31 0 64 21q30 16 61 43q62 57 101 108q-29 -4 -74 -10q-47 -8 -94 -23q-47 -12 -80 -34q-35 -23 -35 -63z" />
<glyph unicode="q" horiz-adv-x="1063" d="M-4 188q2 103 53 203t135 180q174 176 381 183h4q160 0 193 -156h4l53 115l213 12l-459 -764q222 70 398 229q174 158 313 353l14 -13q-123 -174 -297 -344t-442 -256l-336 -585l-225 -8q252 421 514 827l-4 4q-68 -76 -150 -131t-188 -57q-90 2 -133 63q-41 61 -41 145z M192 199q0 -52 21 -99q20 -51 74 -51q37 0 73 21q35 16 70 47q72 63 131 157q131 209 131 353q0 98 -88 102q-72 -2 -143 -55q-74 -58 -133 -142q-60 -84 -97 -172q-39 -92 -39 -161z" />
<glyph unicode="r" horiz-adv-x="797" d="M-168 0q211 358 426 721l233 8l-270 -381l4 -4q154 184 246 252q45 35 76 55q28 19 43 33q43 45 90 57q49 11 158 13q-39 -54 -70 -115q-35 -62 -35 -131q0 -88 84 -88h4q60 2 111 43q49 41 86 80l8 -11q-55 -71 -133 -114q-80 -47 -172 -47q-174 0 -176 170q0 55 30 100 l-4 4q-172 -119 -305 -293q-135 -172 -227 -346z" />
<glyph unicode="s" horiz-adv-x="758" d="M-123 186q2 68 39 127q37 58 109 60q49 0 73 -27q25 -27 25 -61q-4 -88 -82 -88q-25 0 -45 10q-23 -37 -25 -84q2 -57 45 -92q43 -37 103 -39q82 2 143 49q64 47 66 127q-2 55 -25 100q-24 43 -57 82q-33 43 -56 84q-26 43 -26 88q0 60 28 103q25 43 68 71q92 58 205 58 q102 0 166 -41q63 -43 65 -121q0 -60 -39 -96q-39 -39 -98 -39q-39 0 -59 10q41 82 41 160q0 45 -21 73q-24 29 -74 29q-55 0 -86 -35q-32 -35 -32 -90t26 -98q23 -45 56 -88q32 -39 57 -84q22 -47 24 -109q-2 -82 -47 -139q-47 -59 -110 -76v-4q207 51 360 205 q154 149 281 328l16 -13q-155 -223 -342 -385q-186 -170 -479 -174q-111 0 -199 49q-41 25 -65 68q-29 43 -29 102z" />
<glyph unicode="t" horiz-adv-x="569" d="M-39 113q2 102 86 233q82 131 207 338h-154l15 37h157l154 258l221 8l-170 -266h260l-18 -37h-264q-183 -297 -256 -424q-74 -128 -74 -181q0 -61 55 -63q53 0 137 54q82 51 179 143q143 141 288 332l13 -11q-99 -137 -277 -323q-96 -98 -196 -162q-103 -67 -199 -69 q-68 0 -113 30q-49 31 -51 103z" />
<glyph unicode="u" d="M-68 113q2 77 86 227q82 149 226 381l217 8q-162 -246 -260 -405q-103 -158 -105 -238q2 -55 49 -57q41 0 97 34q53 33 112 89q123 116 221 274l177 287l210 16q-161 -264 -264 -422q-106 -160 -106 -246q0 -45 39 -45q28 0 61 21q35 16 74 45q80 59 156 135 q196 209 290 336l17 -12q-107 -146 -287 -336q-201 -221 -367 -225q-61 2 -96 38q-39 35 -39 91q2 79 25 116l-4 4q-72 -82 -170 -161q-99 -84 -230 -88q-61 2 -94 40q-35 39 -35 93z" />
<glyph unicode="v" d="M-8 180q0 101 71 221q72 119 207 320l224 8q-84 -115 -211 -305q-60 -90 -101 -176q-43 -86 -43 -156q0 -88 92 -88q80 0 158 62q76 57 137 147q131 190 142 369q-17 34 -17 79q0 37 27 66q24 27 67 27q103 0 103 -172v-7q0 -55 -8 -96q76 -59 156 -59h5q72 0 123 39 q49 37 82 84l17 -11q-35 -59 -95 -98q-59 -39 -131 -39q-88 0 -164 58q-55 -199 -223 -332q-168 -137 -383 -141q-49 0 -90 12q-43 12 -76 35q-67 45 -69 153z" />
<glyph unicode="w" horiz-adv-x="1442" d="M-49 152q2 67 35 145q32 74 80 151q104 160 184 273l217 8q-84 -117 -211 -297q-57 -86 -98 -170q-43 -84 -43 -149q0 -35 16 -58q14 -26 51 -26q148 0 348 331q152 250 222 361l219 8q-80 -121 -211 -309q-60 -90 -101 -176q-43 -86 -43 -152q0 -86 76 -88q82 0 160 64 q78 59 143 147q133 190 150 346q-29 35 -31 92q0 43 25 72q22 29 67 29q68 -2 90 -52q21 -53 21 -114q0 -49 -10 -115q63 -55 143 -55q72 0 123 41q53 37 90 88l14 -10q-39 -58 -98 -99q-57 -45 -129 -45q-88 2 -148 53q-65 -200 -237 -331q-172 -133 -383 -135 q-111 2 -162 57t-51 139q0 41 8 62l-4 4q-65 -103 -158 -181q-92 -79 -215 -81q-75 2 -112 51t-37 121z" />
<glyph unicode="x" horiz-adv-x="1214" d="M-164 156q0 53 31 92t92 41q90 -2 94 -90q0 -41 -26 -66q-29 -29 -64 -29q2 -47 31 -71q29 -29 74 -29q90 0 176 64q84 57 153 145q152 192 156 364q0 54 -21 87q-24 32 -79 32q-68 -2 -125 -55q-58 -53 -99 -113l-14 11q53 79 129 145q76 68 182 70q86 0 140 -47 q49 -48 65 -130q72 70 160 119q88 47 186 49q70 0 131 -26q64 -33 66 -111q-2 -61 -49 -92q-50 -35 -107 -35q-20 0 -41 6q23 64 25 142q0 90 -70 92q-53 0 -117 -45q-65 -45 -129 -121q-59 -74 -100 -168q-43 -92 -43 -186q0 -80 45 -117q45 -39 119 -39q84 0 174 57 q90 52 176 131q178 170 274 306l13 -11q-135 -184 -334 -364q-98 -84 -209 -139q-111 -56 -231 -58q-93 2 -146 51q-55 48 -65 129q-78 -65 -178 -114q-103 -51 -218 -53q-225 4 -227 176z" />
<glyph unicode="y" d="M-766 -365q4 123 96 177q85 53 197 53h8q53 0 92 -8v-19q-14 2 -37 2q-86 0 -133 -61q-49 -64 -51 -158q2 -108 68 -168q63 -61 164 -63q157 2 286 96q129 92 234 233q106 142 192 289q82 148 150 262l-4 4q-62 -79 -179 -182q-59 -47 -120 -78q-66 -32 -131 -34 q-66 2 -97 40q-30 37 -30 91q2 51 30 118q29 66 72 144q96 159 209 348l217 8q-170 -266 -266 -422q-99 -160 -99 -223q2 -53 54 -55q36 0 96 39q55 36 121 102q135 133 247 315q95 154 132 236l200 8q-213 -381 -430 -756q201 64 381 232t303 344l17 -15 q-142 -206 -328 -368q-191 -162 -391 -219q-148 -254 -369 -414q-221 -164 -516 -168q-153 0 -266 62q-115 59 -119 208z" />
<glyph unicode="z" d="M-47 4q2 23 45 45q20 12 51 29q31 14 68 35q94 57 272 192t379 256l-4 4q-39 -12 -82 -12h-12q-43 0 -84 10t-78 23q-76 26 -146 28q-73 -2 -135 -94l-18 12q55 82 133 150q76 70 182 72q47 0 92 -13q43 -12 86 -28q82 -39 168 -41q43 0 66 16q20 14 33 33q12 20 22 33 q12 12 29 12q26 -2 29 -29q-3 -22 -44 -47q-40 -22 -83 -53q-316 -238 -652 -449l4 -4q17 4 50 4q47 0 92 -14q43 -16 86 -35q84 -51 157 -53q74 0 152 53q74 49 145 121q146 156 242 279l16 -13q-118 -161 -313 -350q-94 -88 -197 -145q-102 -62 -200 -64q-43 2 -86 21 q-43 18 -90 41q-90 53 -170 57q-29 0 -54 -14q-26 -17 -51 -39q-22 -19 -41 -35q-18 -16 -35 -18q-22 2 -24 24z" />
<glyph unicode="{" horiz-adv-x="797" d="M-283 -522q0 37 21 92q22 51 67 125l277 436q84 123 86 188q0 62 -64 91q113 34 187 98q74 63 145 178l277 434q143 213 290 281q74 37 142 47q67 10 127 10l-19 -29q-217 -47 -362 -299l-260 -409q-80 -127 -160 -201q-84 -76 -207 -108l-2 -7q70 -22 70 -77 q0 -80 -103 -236l-264 -407q-90 -138 -92 -213q0 -60 72 -78l-19 -29q-80 0 -141 23q-66 24 -68 90z" />
<glyph unicode="|" horiz-adv-x="455" d="M197 0v1479h110v-1479h-110z" />
<glyph unicode="}" horiz-adv-x="797" d="M-481 -635l18 29q117 26 201 100t162 199l260 409q80 131 164 205q79 72 202 105l2 6q-69 24 -69 78q0 79 102 235l264 408q90 137 92 213q0 59 -71 77l18 29q84 0 146 -20q61 -23 63 -93q0 -36 -18 -88q-21 -55 -70 -129l-276 -436q-84 -121 -86 -188q-3 -60 63 -90 q-111 -33 -184 -97q-74 -65 -148 -180l-276 -434q-141 -211 -289 -276q-147 -64 -270 -62z" />
<glyph unicode="~" horiz-adv-x="1229" d="M125 313q33 68 94 121q62 53 162 55q53 0 113 -18q55 -18 114 -47q60 -27 115 -49q53 -25 94 -25q62 2 105 49q43 43 75 99l74 -90q-33 -68 -92 -119q-60 -58 -164 -58q-53 0 -108 21q-60 20 -119 45q-58 27 -111 49q-55 23 -98 25q-60 -2 -103 -45q-40 -45 -77 -103z " />
<glyph unicode="&#xa2;" horiz-adv-x="1100" d="M117 279q0 90 55 184q53 94 139 172q183 166 412 182l110 205l33 -12l-102 -195q90 -4 135 -43q45 -41 45 -98q0 -49 -22 -80q-23 -31 -58 -49q-78 -35 -151 -33q22 45 41 102q16 56 18 97q0 43 -31 65l-344 -643q43 -31 109 -31q108 2 196 54q88 47 131 88l11 -15 q-97 -90 -215 -145q-62 -27 -129 -43q-70 -16 -150 -16q-4 0 -10 2l-135 -254l-37 16l131 242q-78 20 -129 86q-53 65 -53 162zM326 293q0 -82 43 -133l333 620q-77 -4 -143 -53q-68 -49 -121 -125q-110 -160 -112 -309z" />
<glyph unicode="&#xa3;" horiz-adv-x="1706" d="M-111 178q2 35 21 62q16 28 47 47q63 41 164 41q284 -4 545 -131q176 178 264 413h-588l12 37h590q74 168 156 338q-135 31 -246 127q-115 94 -117 242q2 114 84 184q78 65 191 68q69 0 125 -37q53 -39 55 -119q-2 -43 -23 -88l-18 6q16 41 16 78q2 51 -37 86 q-38 35 -98 37q-88 -2 -131 -78q-45 -78 -45 -174q2 -117 74 -201q69 -84 180 -117q98 205 283 365q184 164 413 168q96 0 164 -37q70 -41 72 -133q-2 -107 -68 -187q-67 -79 -172 -133q-102 -51 -215 -75q-113 -29 -205 -29q-51 0 -104 6q-70 -149 -143 -297h434l-17 -37 h-436q-139 -268 -391 -432q203 -90 424 -92q393 -4 473 373h16q-47 -234 -211 -355q-163 -122 -399 -124q-137 4 -258 53q-121 45 -172 71q-96 -49 -195 -75q-98 -29 -208 -29q-127 0 -213 45q-91 43 -93 133zM-57 203q2 -31 26 -64q25 -30 66 -57q88 -57 198 -57 q177 2 326 100q-102 53 -244 108q-139 56 -256 58q-114 -6 -116 -88zM1286 967q35 -5 70 -5q182 -2 358 91q82 47 133 122q51 74 51 183q0 63 -28 106q-31 41 -90 43q-88 -2 -166 -63q-80 -62 -146 -154q-133 -198 -182 -323z" />
<glyph unicode="&#xa5;" horiz-adv-x="1100" d="M47 1087q0 80 45 148q41 65 107 112q139 97 290 99q312 -6 320 -328q0 -94 -35 -246l4 -4q428 582 760 578q135 -2 188 -49q52 -45 49 -99q0 -45 -30 -73q-31 -33 -90 -33q-60 0 -135 45q94 14 92 82q0 31 -23 57q-26 27 -82 29q-153 -2 -317 -162q-166 -160 -381 -440 h356l-16 -37h-363q-36 -57 -73 -119h366l-16 -37h-373q-196 -303 -358 -610h-238q199 299 395 610h-344l17 37h350q41 70 68 119h-349l17 37h352q37 55 59 147q19 92 19 193q-2 151 -82 211q-78 57 -176 55q-94 0 -160 -57q-70 -60 -70 -160q0 -64 33 -109q31 -47 99 -49 q45 0 81 27q-38 -148 -192 -146q-70 2 -115 56q-49 49 -49 116z" />
<glyph unicode="&#xa8;" horiz-adv-x="530" d="M203 1046q0 41 28 70q27 29 64 29q41 0 65 -29q27 -29 27 -70q0 -38 -27 -67q-24 -31 -65 -31q-37 0 -64 31q-28 29 -28 67zM571 1046q0 41 29 70q27 29 64 29q40 0 65 -29q27 -29 27 -70q0 -38 -27 -67q-25 -31 -65 -31q-37 0 -64 31q-29 29 -29 67z" />
<glyph unicode="&#xa9;" horiz-adv-x="1638" d="M145 721q4 315 220 524q208 211 520 215q315 -4 524 -215q211 -209 215 -524q-4 -311 -215 -520q-209 -215 -524 -219q-312 4 -520 219q-216 209 -220 520zM256 721q2 -277 184 -459q174 -186 445 -190q270 4 448 190q176 182 180 459q-4 278 -180 461q-178 184 -448 188 q-271 -4 -445 -188q-182 -183 -184 -461zM469 739q0 148 117 281q116 137 358 141q84 0 135 -10q49 -12 90 -29q47 -16 47 -47v-151h-32q-2 36 -15 71q-14 35 -45 62q-57 57 -190 59q-160 -2 -236 -102q-75 -101 -78 -264q-2 -177 80 -285q78 -113 252 -115q113 0 176 58 q64 55 90 126h33l-35 -149q0 -16 -14 -25q-16 -8 -41 -18q-33 -10 -92 -23q-61 -14 -139 -14q-191 -2 -322 100q-137 103 -139 334z" />
<glyph unicode="&#xab;" horiz-adv-x="909" d="M98 354l477 346l15 -16l-320 -334l125 -317l-18 -13zM434 354l479 346l15 -16l-322 -334l127 -317l-18 -13z" />
<glyph unicode="&#xad;" horiz-adv-x="758" d="M41 295l88 131h481l-86 -131h-483z" />
<glyph unicode="&#xae;" horiz-adv-x="1638" d="M145 721q4 315 220 524q208 211 520 215q315 -4 524 -215q211 -209 215 -524q-4 -311 -215 -520q-209 -215 -524 -219q-312 4 -520 219q-216 209 -220 520zM256 721q2 -277 184 -459q174 -186 445 -190q270 4 448 190q176 182 180 459q-4 278 -180 461q-178 184 -448 188 q-271 -4 -445 -188q-182 -183 -184 -461zM534 328v45q80 6 95 22q10 17 8 86v500q2 74 -8 90q-15 14 -95 21v45h377q103 0 181 -48q77 -47 79 -151q0 -86 -51 -145q-51 -60 -129 -84l127 -177q47 -59 94 -110q45 -51 80 -74v-20h-129q-51 0 -108 100q-58 94 -168 260h-115 v-207q-2 -69 10 -86q15 -16 92 -22v-45h-340zM772 733h102q162 2 162 197q-2 94 -49 129q-49 33 -119 33h-96v-359z" />
<glyph unicode="&#xb4;" horiz-adv-x="530" d="M371 858q0 12 26 33q23 18 54 47q32 31 61 67q27 37 37 80q8 37 26 80q15 41 45 43q64 -2 66 -65q-2 -47 -37 -97q-39 -51 -92 -98q-53 -45 -100 -74q-52 -30 -74 -30q-12 0 -12 14z" />
<glyph unicode="&#xb8;" horiz-adv-x="530" d="M-274 -326q2 21 20 19q16 0 74 -25q57 -22 131 -24q55 0 102 18q47 21 49 80q-2 49 -28 66q-29 14 -62 12q-55 -2 -90 -8q-12 2 -14 14q2 10 14 35q12 22 29 47q39 55 53 82h51q-43 -60 -75 -127q36 6 73 6q64 0 105 -27q39 -30 39 -98q-2 -82 -70 -115q-68 -34 -160 -34 q-59 2 -145 24q-41 12 -66 27q-28 12 -30 28z" />
<glyph unicode="&#xbb;" horiz-adv-x="909" d="M14 37l322 334l-127 317l18 12l279 -333l-477 -347zM16 37l322 334l-127 317l18 12l281 -333l-479 -347zM354 37l320 334l-125 317l18 12l279 -333l-477 -347z" />
<glyph unicode="&#xc0;" horiz-adv-x="1782" d="M-231 238q0 61 34 110q31 45 97 47q41 0 69 -24q29 -25 29 -64q0 -53 -31 -78q-30 -26 -88 -26q2 -86 74 -133q65 -50 143 -50q140 0 273 72q67 35 131 78q61 43 120 92q244 221 412 426q223 260 490 485q266 226 587 332l15 -12q-322 -358 -547 -719 q-234 -362 -238 -651q2 -100 68 -98q61 0 158 67q94 64 196 168q154 166 246 287l16 -10q-82 -121 -266 -314q-102 -106 -207 -172q-104 -69 -209 -71q-98 2 -137 61q-39 55 -37 135q0 125 43 242q39 114 94 219h-286q-168 -211 -408 -418q-239 -217 -524 -223 q-125 0 -219 59q-96 58 -98 183zM1040 661h277q231 406 577 727l-4 5q-467 -267 -850 -732zM1824 1821q0 63 65 65q31 -2 49 -43q17 -43 23 -80q12 -43 41 -80q29 -36 59 -67q33 -29 56 -47q22 -21 22 -33q0 -14 -12 -14q-23 0 -70 30q-47 29 -102 74q-53 47 -90 98 q-41 50 -41 97z" />
<glyph unicode="&#xc1;" horiz-adv-x="1782" d="M-231 238q0 61 34 110q31 45 97 47q41 0 69 -24q29 -25 29 -64q0 -53 -31 -78q-30 -26 -88 -26q2 -86 74 -133q65 -50 143 -50q140 0 273 72q67 35 131 78q61 43 120 92q244 221 412 426q223 260 490 485q266 226 587 332l15 -12q-322 -358 -547 -719 q-234 -362 -238 -651q2 -100 68 -98q61 0 158 67q94 64 196 168q154 166 246 287l16 -10q-82 -121 -266 -314q-102 -106 -207 -172q-104 -69 -209 -71q-98 2 -137 61q-39 55 -37 135q0 125 43 242q39 114 94 219h-286q-168 -211 -408 -418q-239 -217 -524 -223 q-125 0 -219 59q-96 58 -98 183zM1040 661h277q231 406 577 727l-4 5q-467 -267 -850 -732zM2038 1536q0 12 26 33q23 18 54 47q32 31 61 67q27 37 37 80q8 37 26 80q15 41 45 43q64 -2 66 -65q-2 -47 -37 -97q-39 -51 -92 -98q-53 -45 -100 -74q-52 -30 -74 -30 q-12 0 -12 14z" />
<glyph unicode="&#xc2;" horiz-adv-x="1782" d="M-231 238q0 61 34 110q31 45 97 47q41 0 69 -24q29 -25 29 -64q0 -53 -31 -78q-30 -26 -88 -26q2 -86 74 -133q65 -50 143 -50q140 0 273 72q67 35 131 78q61 43 120 92q244 221 412 426q223 260 490 485q266 226 587 332l15 -12q-322 -358 -547 -719 q-234 -362 -238 -651q2 -100 68 -98q61 0 158 67q94 64 196 168q154 166 246 287l16 -10q-82 -121 -266 -314q-102 -106 -207 -172q-104 -69 -209 -71q-98 2 -137 61q-39 55 -37 135q0 125 43 242q39 114 94 219h-286q-168 -211 -408 -418q-239 -217 -524 -223 q-125 0 -219 59q-96 58 -98 183zM1040 661h277q231 406 577 727l-4 5q-467 -267 -850 -732zM1843 1568l5 10q110 78 212.5 159t191.5 160h34q5 0 9.5 -7t4.5 -12q-22 -73 -36 -147t-14 -142v-25q0 -1 0.5 -2t0.5 -3q0 -4 -3 -8t-5 -5l-19 -11q-5 -3 -12 0t-9 8 q-11 35 -17.5 85.5t-8.5 111.5q-75 -54 -151.5 -103.5t-158.5 -97.5q-4 -1 -10 0t-8 5z" />
<glyph unicode="&#xc3;" horiz-adv-x="1782" d="M-231 238q0 61 34 110q31 45 97 47q41 0 69 -24q29 -25 29 -64q0 -53 -31 -78q-30 -26 -88 -26q2 -86 74 -133q65 -50 143 -50q140 0 273 72q67 35 131 78q61 43 120 92q244 221 412 426q223 260 490 485q266 226 587 332l15 -12q-322 -358 -547 -719 q-234 -362 -238 -651q2 -100 68 -98q61 0 158 67q94 64 196 168q154 166 246 287l16 -10q-82 -121 -266 -314q-102 -106 -207 -172q-104 -69 -209 -71q-98 2 -137 61q-39 55 -37 135q0 125 43 242q39 114 94 219h-286q-168 -211 -408 -418q-239 -217 -524 -223 q-125 0 -219 59q-96 58 -98 183zM1040 661h277q231 406 577 727l-4 5q-467 -267 -850 -732zM1805 1568q33 58 93 110q61 53 123 54q75 -3 118 -32q24 -12 47 -20q21 -12 47 -12q43 0 79 22q36 21 67 60h30q-38 -60 -100 -110q-64 -54 -131 -55q-32 0 -57 12q-27 9 -53 20 q-43 32 -101 33q-38 0 -72 -24q-35 -24 -66 -58h-24z" />
<glyph unicode="&#xc8;" horiz-adv-x="1403" d="M111 322q2 147 88 231q84 80 192 133q57 29 107 55q49 25 90 56q41 30 65 67q27 37 27 86q20 291 170 414q149 117 362 115q60 0 119 -9q57 -12 105 -39q49 -24 79 -69q29 -45 29 -115q-4 -145 -119 -219q-114 -74 -252 -74q-77 0 -151 23l2 18q45 -16 94 -16 q272 0 279 270q-2 201 -201 205q-121 -2 -188 -84q-70 -84 -89 -197q-16 -139 -57 -219q-43 -82 -178 -145q-164 -72 -262 -170q-103 -98 -103 -299q3 -164 123 -248q117 -88 273 -88q166 0 280 94q115 94 119 267q-2 180 -174 184q-74 0 -135 -39q-62 -39 -111 -92l-14 10 q139 156 344 158q113 0 186 -60q74 -59 76 -174q-2 -106 -72 -180q-71 -74 -182 -119q-53 -20 -108 -37q-58 -16 -117 -28q-117 -21 -211 -21q-178 -2 -326 76q-71 43 -114 111q-45 67 -45 168zM1024 1821q0 63 65 65q31 -2 49 -43q17 -43 23 -80q12 -43 41 -80 q29 -36 59 -67q33 -29 56 -47q22 -21 22 -33q0 -14 -12 -14q-23 0 -70 30q-47 29 -102 74q-53 47 -90 98q-41 50 -41 97z" />
<glyph unicode="&#xc9;" horiz-adv-x="1403" d="M111 322q2 147 88 231q84 80 192 133q57 29 107 55q49 25 90 56q41 30 65 67q27 37 27 86q20 291 170 414q149 117 362 115q60 0 119 -9q57 -12 105 -39q49 -24 79 -69q29 -45 29 -115q-4 -145 -119 -219q-114 -74 -252 -74q-77 0 -151 23l2 18q45 -16 94 -16 q272 0 279 270q-2 201 -201 205q-121 -2 -188 -84q-70 -84 -89 -197q-16 -139 -57 -219q-43 -82 -178 -145q-164 -72 -262 -170q-103 -98 -103 -299q3 -164 123 -248q117 -88 273 -88q166 0 280 94q115 94 119 267q-2 180 -174 184q-74 0 -135 -39q-62 -39 -111 -92l-14 10 q139 156 344 158q113 0 186 -60q74 -59 76 -174q-2 -106 -72 -180q-71 -74 -182 -119q-53 -20 -108 -37q-58 -16 -117 -28q-117 -21 -211 -21q-178 -2 -326 76q-71 43 -114 111q-45 67 -45 168zM1239 1536q0 12 26 33q23 18 54 47q32 31 61 67q27 37 37 80q8 37 26 80 q15 41 45 43q64 -2 66 -65q-2 -47 -37 -97q-39 -51 -92 -98q-53 -45 -100 -74q-52 -30 -74 -30q-12 0 -12 14z" />
<glyph unicode="&#xca;" horiz-adv-x="1403" d="M111 322q2 147 88 231q84 80 192 133q57 29 107 55q49 25 90 56q41 30 65 67q27 37 27 86q20 291 170 414q149 117 362 115q60 0 119 -9q57 -12 105 -39q49 -24 79 -69q29 -45 29 -115q-4 -145 -119 -219q-114 -74 -252 -74q-77 0 -151 23l2 18q45 -16 94 -16 q272 0 279 270q-2 201 -201 205q-121 -2 -188 -84q-70 -84 -89 -197q-16 -139 -57 -219q-43 -82 -178 -145q-164 -72 -262 -170q-103 -98 -103 -299q3 -164 123 -248q117 -88 273 -88q166 0 280 94q115 94 119 267q-2 180 -174 184q-74 0 -135 -39q-62 -39 -111 -92l-14 10 q139 156 344 158q113 0 186 -60q74 -59 76 -174q-2 -106 -72 -180q-71 -74 -182 -119q-53 -20 -108 -37q-58 -16 -117 -28q-117 -21 -211 -21q-178 -2 -326 76q-71 43 -114 111q-45 67 -45 168zM1038 1542l5 10q110 78 212.5 159t191.5 160h34q5 0 9.5 -7t4.5 -12 q-22 -73 -36 -147t-14 -142v-25q0 -1 0.5 -2t0.5 -3q0 -4 -3 -8t-5 -5l-19 -11q-5 -3 -12 0t-9 8q-11 35 -17.5 85.5t-8.5 111.5q-75 -54 -151.5 -103.5t-158.5 -97.5q-4 -1 -10 0t-8 5z" />
<glyph unicode="&#xcc;" horiz-adv-x="1251" d="M-109 240q0 59 35 104q31 41 92 43q101 -4 105 -100q0 -39 -17 -62q-20 -24 -67 -33q0 -98 61 -143q58 -45 160 -45q277 6 453 250q174 237 331 539q115 215 279 368q162 152 495 268v4q-145 3 -372 -12q-228 -16 -461 -69q-233 -54 -393 -172q-164 -117 -168 -324 q0 -90 55 -143q49 -58 139 -58q113 0 197 84q86 80 88 207q-2 64 -29 117l21 4q31 -49 33 -121q-2 -160 -117 -248q-117 -92 -279 -92q-118 0 -198 74q-82 70 -82 192q2 189 156 308q149 116 376 176q490 106 903 102q138 0 222 12q82 9 122 9q27 0 46 -9q16 -8 16 -24 q0 -19 -21 -25q-20 -8 -47 -8q-14 0 -71 6q-58 4 -99 6q-186 -80 -307 -204q-119 -123 -205 -273q-82 -147 -165 -303q-86 -158 -203 -303q-131 -162 -301 -260q-170 -100 -377 -102q-59 0 -127 14q-70 12 -133 41q-62 31 -103 82q-40 49 -43 123zM1543 1821q0 63 65 65 q31 -2 49 -43q17 -43 23 -80q12 -43 41 -80q29 -36 59 -67q33 -29 56 -47q22 -21 22 -33q0 -14 -12 -14q-23 0 -70 30q-47 29 -102 74q-53 47 -90 98q-41 50 -41 97z" />
<glyph unicode="&#xcd;" horiz-adv-x="1251" d="M-109 240q0 59 35 104q31 41 92 43q101 -4 105 -100q0 -39 -17 -62q-20 -24 -67 -33q0 -98 61 -143q58 -45 160 -45q277 6 453 250q174 237 331 539q115 215 279 368q162 152 495 268v4q-145 3 -372 -12q-228 -16 -461 -69q-233 -54 -393 -172q-164 -117 -168 -324 q0 -90 55 -143q49 -58 139 -58q113 0 197 84q86 80 88 207q-2 64 -29 117l21 4q31 -49 33 -121q-2 -160 -117 -248q-117 -92 -279 -92q-118 0 -198 74q-82 70 -82 192q2 189 156 308q149 116 376 176q490 106 903 102q138 0 222 12q82 9 122 9q27 0 46 -9q16 -8 16 -24 q0 -19 -21 -25q-20 -8 -47 -8q-14 0 -71 6q-58 4 -99 6q-186 -80 -307 -204q-119 -123 -205 -273q-82 -147 -165 -303q-86 -158 -203 -303q-131 -162 -301 -260q-170 -100 -377 -102q-59 0 -127 14q-70 12 -133 41q-62 31 -103 82q-40 49 -43 123zM1759 1536q0 12 26 33 q23 18 54 47q32 31 61 67q27 37 37 80q8 37 26 80q15 41 45 43q64 -2 66 -65q-2 -47 -37 -97q-39 -51 -92 -98q-53 -45 -100 -74q-52 -30 -74 -30q-12 0 -12 14z" />
<glyph unicode="&#xd2;" horiz-adv-x="1517" d="M158 340q6 360 290 676q273 317 633 368q68 60 121 80q55 15 102 15q123 -2 183 -91q57 -90 57 -237q-2 -184 -90 -377q-88 -192 -197 -338q72 -26 152 -24q100 0 192 45q93 43 146 94l12 -14q-170 -150 -346 -150q-96 0 -174 29q-133 -172 -315 -305 q-185 -140 -408 -144q-201 4 -280 115q-80 108 -78 258zM367 322q-2 -127 45 -220q45 -96 161 -98q91 0 181 45q88 41 165 111q162 143 242 291q-272 157 -276 475q2 247 172 428l-4 4q-152 -33 -277 -142q-127 -110 -219 -264q-188 -321 -190 -630zM967 975 q-2 -139 45 -281q24 -67 67 -125q41 -59 99 -96q196 330 202 696q0 111 -35 185q-36 73 -124 75q-72 -2 -111 -45q92 -4 127 -53q33 -51 33 -117q-2 -45 -11 -75l-22 2q8 32 8 75q0 62 -33 105q-37 43 -125 39q-59 -68 -90 -176q-30 -109 -30 -209zM1079 1821q0 63 65 65 q31 -2 49 -43q17 -43 23 -80q12 -43 41 -80q29 -36 59 -67q33 -29 56 -47q22 -21 22 -33q0 -14 -12 -14q-23 0 -70 30q-47 29 -102 74q-53 47 -90 98q-41 50 -41 97z" />
<glyph unicode="&#xd3;" horiz-adv-x="1517" d="M158 340q6 360 290 676q273 317 633 368q68 60 121 80q55 15 102 15q123 -2 183 -91q57 -90 57 -237q-2 -184 -90 -377q-88 -192 -197 -338q72 -26 152 -24q100 0 192 45q93 43 146 94l12 -14q-170 -150 -346 -150q-96 0 -174 29q-133 -172 -315 -305 q-185 -140 -408 -144q-201 4 -280 115q-80 108 -78 258zM367 322q-2 -127 45 -220q45 -96 161 -98q91 0 181 45q88 41 165 111q162 143 242 291q-272 157 -276 475q2 247 172 428l-4 4q-152 -33 -277 -142q-127 -110 -219 -264q-188 -321 -190 -630zM967 975 q-2 -139 45 -281q24 -67 67 -125q41 -59 99 -96q196 330 202 696q0 111 -35 185q-36 73 -124 75q-72 -2 -111 -45q92 -4 127 -53q33 -51 33 -117q-2 -45 -11 -75l-22 2q8 32 8 75q0 62 -33 105q-37 43 -125 39q-59 -68 -90 -176q-30 -109 -30 -209zM1135 1536q0 12 26 33 q23 18 54 47q32 31 61 67q27 37 37 80q8 37 26 80q15 41 45 43q64 -2 66 -65q-2 -47 -37 -97q-39 -51 -92 -98q-53 -45 -100 -74q-52 -30 -74 -30q-12 0 -12 14z" />
<glyph unicode="&#xd4;" horiz-adv-x="1517" d="M158 340q6 360 290 676q273 317 633 368q68 60 121 80q55 15 102 15q123 -2 183 -91q57 -90 57 -237q-2 -184 -90 -377q-88 -192 -197 -338q72 -26 152 -24q100 0 192 45q93 43 146 94l12 -14q-170 -150 -346 -150q-96 0 -174 29q-133 -172 -315 -305 q-185 -140 -408 -144q-201 4 -280 115q-80 108 -78 258zM367 322q-2 -127 45 -220q45 -96 161 -98q91 0 181 45q88 41 165 111q162 143 242 291q-272 157 -276 475q2 247 172 428l-4 4q-152 -33 -277 -142q-127 -110 -219 -264q-188 -321 -190 -630zM967 975 q-2 -139 45 -281q24 -67 67 -125q41 -59 99 -96q196 330 202 696q0 111 -35 185q-36 73 -124 75q-72 -2 -111 -45q92 -4 127 -53q33 -51 33 -117q-2 -45 -11 -75l-22 2q8 32 8 75q0 62 -33 105q-37 43 -125 39q-59 -68 -90 -176q-30 -109 -30 -209zM1073 1542l5 10 q110 78 212.5 159t191.5 160h34q5 0 9.5 -7t4.5 -12q-22 -73 -36 -147t-14 -142v-25q0 -1 0.5 -2t0.5 -3q0 -4 -3 -8t-5 -5l-19 -11q-5 -3 -12 0t-9 8q-11 35 -17.5 85.5t-8.5 111.5q-75 -54 -151.5 -103.5t-158.5 -97.5q-4 -1 -10 0t-8 5z" />
<glyph unicode="&#xd5;" horiz-adv-x="1517" d="M158 340q6 360 290 676q273 317 633 368q68 60 121 80q55 15 102 15q123 -2 183 -91q57 -90 57 -237q-2 -184 -90 -377q-88 -192 -197 -338q72 -26 152 -24q100 0 192 45q93 43 146 94l12 -14q-170 -150 -346 -150q-96 0 -174 29q-133 -172 -315 -305 q-185 -140 -408 -144q-201 4 -280 115q-80 108 -78 258zM367 322q-2 -127 45 -220q45 -96 161 -98q91 0 181 45q88 41 165 111q162 143 242 291q-272 157 -276 475q2 247 172 428l-4 4q-152 -33 -277 -142q-127 -110 -219 -264q-188 -321 -190 -630zM967 975 q-2 -139 45 -281q24 -67 67 -125q41 -59 99 -96q196 330 202 696q0 111 -35 185q-36 73 -124 75q-72 -2 -111 -45q92 -4 127 -53q33 -51 33 -117q-2 -45 -11 -75l-22 2q8 32 8 75q0 62 -33 105q-37 43 -125 39q-59 -68 -90 -176q-30 -109 -30 -209zM1003 1543q33 58 93 110 q61 53 123 54q75 -3 118 -32q24 -12 47 -20q21 -12 47 -12q43 0 79 22q36 21 67 60h30q-38 -60 -100 -110q-64 -54 -131 -55q-32 0 -57 12q-27 9 -53 20q-43 32 -101 33q-38 0 -72 -24q-35 -24 -66 -58h-24z" />
<glyph unicode="&#xd9;" horiz-adv-x="1706" d="M188 917q0 121 72 226q70 104 182 182q238 166 510 170q94 0 158 -49q59 -49 61 -148q-2 -94 -98 -252q-96 -159 -221 -337q-125 -179 -219 -336q-99 -160 -101 -254q2 -82 84 -82q72 0 166 59q90 58 191 148q205 190 342 409l475 772l225 8l-532 -827 q-140 -213 -195 -330q-59 -116 -57 -186q-2 -72 57 -74q66 0 145 54q78 49 164 127q176 165 330 348l18 -15q-100 -122 -276 -303q-233 -245 -420 -247q-100 2 -141 47t-41 114q0 72 35 144q28 69 67 125l-4 4q-129 -162 -301 -293q-174 -137 -358 -141q-146 2 -146 153 q0 53 29 121t72 147q94 164 219 349q125 184 221 348q96 161 98 260q-2 98 -133 100q-209 -4 -389 -166q-86 -76 -139 -172q-55 -98 -55 -205q0 -57 34 -100q31 -47 91 -47q81 0 149 51q66 47 117 117l16 -12q-57 -78 -135 -134q-80 -59 -180 -59q-183 4 -187 186z M1254 1821q0 63 65 65q31 -2 49 -43q17 -43 23 -80q12 -43 41 -80q29 -36 59 -67q33 -29 56 -47q22 -21 22 -33q0 -14 -12 -14q-23 0 -70 30q-47 29 -102 74q-53 47 -90 98q-41 50 -41 97z" />
<glyph unicode="&#xda;" horiz-adv-x="1706" d="M188 917q0 121 72 226q70 104 182 182q238 166 510 170q94 0 158 -49q59 -49 61 -148q-2 -94 -98 -252q-96 -159 -221 -337q-125 -179 -219 -336q-99 -160 -101 -254q2 -82 84 -82q72 0 166 59q90 58 191 148q205 190 342 409l475 772l225 8l-532 -827 q-140 -213 -195 -330q-59 -116 -57 -186q-2 -72 57 -74q66 0 145 54q78 49 164 127q176 165 330 348l18 -15q-100 -122 -276 -303q-233 -245 -420 -247q-100 2 -141 47t-41 114q0 72 35 144q28 69 67 125l-4 4q-129 -162 -301 -293q-174 -137 -358 -141q-146 2 -146 153 q0 53 29 121t72 147q94 164 219 349q125 184 221 348q96 161 98 260q-2 98 -133 100q-209 -4 -389 -166q-86 -76 -139 -172q-55 -98 -55 -205q0 -57 34 -100q31 -47 91 -47q81 0 149 51q66 47 117 117l16 -12q-57 -78 -135 -134q-80 -59 -180 -59q-183 4 -187 186z M1470 1536q0 12 26 33q23 18 54 47q32 31 61 67q27 37 37 80q8 37 26 80q15 41 45 43q64 -2 66 -65q-2 -47 -37 -97q-39 -51 -92 -98q-53 -45 -100 -74q-52 -30 -74 -30q-12 0 -12 14z" />
<glyph unicode="&#xdd;" horiz-adv-x="1593" d="M-190 -350q2 96 71 164q66 69 160 69q125 0 233 -61l-2 -17q-57 27 -118 29q-86 0 -129 -63q-43 -62 -43 -146q0 -88 55 -159q53 -74 178 -76q205 4 377 174q174 166 336 424l282 434l-4 4q-123 -154 -303 -295q-184 -145 -389 -151q-139 2 -141 137q0 53 28 125 q29 69 74 149q96 164 221 346t221 342q97 160 99 254q0 121 -109 121q-217 -4 -393 -164q-186 -158 -190 -375q0 -55 28 -102q29 -51 84 -51q82 2 141 49q58 45 109 102l14 -10q-55 -67 -129 -121q-75 -57 -174 -57q-82 0 -135 45q-57 43 -57 131q0 109 65 211 q64 102 170 184q224 176 514 183q43 0 86 -7q41 -8 74 -26q72 -39 74 -135q-2 -111 -99 -275q-96 -166 -221 -348q-125 -180 -221 -334q-100 -153 -102 -243q0 -82 82 -82q63 0 141 43q78 41 160 104q168 135 272 277q397 583 606 962l228 10l-945 -1491 q-157 -235 -378 -399q-222 -166 -502 -170q-164 0 -279 64q-116 65 -120 221zM1477 1536q0 12 26 33q23 18 54 47q32 31 61 67q27 37 37 80q8 37 26 80q15 41 45 43q64 -2 66 -65q-2 -47 -37 -97q-39 -51 -92 -98q-53 -45 -100 -74q-52 -30 -74 -30q-12 0 -12 14z" />
<glyph unicode="&#xe0;" horiz-adv-x="1063" d="M-4 190q2 103 55 203q53 101 141 180q181 174 383 181q136 0 181 -127l51 82l213 12q-29 -53 -86 -141q-62 -89 -125 -185q-64 -96 -109 -182q-47 -88 -47 -145q0 -54 51 -52q52 0 136 60q82 57 174 149q176 189 272 318l14 -9q-102 -143 -290 -344q-95 -100 -191 -159 q-98 -62 -192 -64q-64 2 -99 35q-39 33 -39 82q0 35 9 53h-4q-62 -71 -144 -119q-80 -49 -172 -51q-96 2 -139 70q-43 65 -43 153zM192 184q0 -59 23 -102q21 -45 80 -45q67 8 139 76q68 65 127 159q59 97 98 191q35 92 35 149q0 58 -18 88q-25 29 -82 29q-72 -2 -139 -59 q-72 -62 -131 -150q-60 -88 -95 -178q-37 -90 -37 -158zM517 1099q0 63 65 65q31 -2 49 -43q17 -43 23 -80q12 -43 41 -80q29 -36 59 -67q33 -29 56 -47q22 -21 22 -33q0 -14 -12 -14q-23 0 -70 30q-47 29 -102 74q-53 47 -90 98q-41 50 -41 97z" />
<glyph unicode="&#xe1;" horiz-adv-x="1063" d="M-4 190q2 103 55 203q53 101 141 180q181 174 383 181q136 0 181 -127l51 82l213 12q-29 -53 -86 -141q-62 -89 -125 -185q-64 -96 -109 -182q-47 -88 -47 -145q0 -54 51 -52q52 0 136 60q82 57 174 149q176 189 272 318l14 -9q-102 -143 -290 -344q-95 -100 -191 -159 q-98 -62 -192 -64q-64 2 -99 35q-39 33 -39 82q0 35 9 53h-4q-62 -71 -144 -119q-80 -49 -172 -51q-96 2 -139 70q-43 65 -43 153zM192 184q0 -59 23 -102q21 -45 80 -45q67 8 139 76q68 65 127 159q59 97 98 191q35 92 35 149q0 58 -18 88q-25 29 -82 29q-72 -2 -139 -59 q-72 -62 -131 -150q-60 -88 -95 -178q-37 -90 -37 -158zM572 815q0 12 26 33q23 18 54 47q32 31 61 67q27 37 37 80q8 37 26 80q15 41 45 43q64 -2 66 -65q-2 -47 -37 -97q-39 -51 -92 -98q-53 -45 -100 -74q-52 -30 -74 -30q-12 0 -12 14z" />
<glyph unicode="&#xe2;" horiz-adv-x="1063" d="M-4 190q2 103 55 203q53 101 141 180q181 174 383 181q136 0 181 -127l51 82l213 12q-29 -53 -86 -141q-62 -89 -125 -185q-64 -96 -109 -182q-47 -88 -47 -145q0 -54 51 -52q52 0 136 60q82 57 174 149q176 189 272 318l14 -9q-102 -143 -290 -344q-95 -100 -191 -159 q-98 -62 -192 -64q-64 2 -99 35q-39 33 -39 82q0 35 9 53h-4q-62 -71 -144 -119q-80 -49 -172 -51q-96 2 -139 70q-43 65 -43 153zM192 184q0 -59 23 -102q21 -45 80 -45q67 8 139 76q68 65 127 159q59 97 98 191q35 92 35 149q0 58 -18 88q-25 29 -82 29q-72 -2 -139 -59 q-72 -62 -131 -150q-60 -88 -95 -178q-37 -90 -37 -158zM498 846l5 10q110 78 212.5 159t191.5 160h34q5 0 9.5 -7t4.5 -12q-22 -73 -36 -147t-14 -142v-25q0 -1 0.5 -2t0.5 -3q0 -4 -3 -8t-5 -5l-19 -11q-5 -3 -12 0t-9 8q-11 35 -17.5 85.5t-8.5 111.5 q-75 -54 -151.5 -103.5t-158.5 -97.5q-4 -1 -10 0t-8 5z" />
<glyph unicode="&#xe3;" horiz-adv-x="1063" d="M-4 190q2 103 55 203q53 101 141 180q181 174 383 181q136 0 181 -127l51 82l213 12q-29 -53 -86 -141q-62 -89 -125 -185q-64 -96 -109 -182q-47 -88 -47 -145q0 -54 51 -52q52 0 136 60q82 57 174 149q176 189 272 318l14 -9q-102 -143 -290 -344q-95 -100 -191 -159 q-98 -62 -192 -64q-64 2 -99 35q-39 33 -39 82q0 35 9 53h-4q-62 -71 -144 -119q-80 -49 -172 -51q-96 2 -139 70q-43 65 -43 153zM192 184q0 -59 23 -102q21 -45 80 -45q67 8 139 76q68 65 127 159q59 97 98 191q35 92 35 149q0 58 -18 88q-25 29 -82 29q-72 -2 -139 -59 q-72 -62 -131 -150q-60 -88 -95 -178q-37 -90 -37 -158zM477 852q33 58 93 110q61 53 123 54q75 -3 118 -32q24 -12 47 -20q21 -12 47 -12q43 0 79 22q36 21 67 60h30q-38 -60 -100 -110q-64 -54 -131 -55q-32 0 -57 12q-27 9 -53 20q-43 32 -101 33q-38 0 -72 -24 q-35 -24 -66 -58h-24z" />
<glyph unicode="&#xe8;" horiz-adv-x="833" d="M-2 217q2 100 61 197q58 94 150 172q194 164 399 168q182 -2 187 -129q-2 -72 -70 -127q-70 -56 -170 -93q-49 -18 -98 -32q-52 -15 -99 -27q-94 -24 -153 -37q-10 -37 -10 -73q0 -89 51 -142q47 -57 135 -57q180 2 397 201q166 161 283 313l14 -14q-117 -166 -309 -347 q-141 -122 -270 -174q-131 -49 -246 -49q-117 2 -182 72q-68 65 -70 178zM209 330q174 39 297 141q59 49 92 102q33 54 33 103q-2 53 -56 53q-49 -2 -106 -43q-59 -41 -113 -104q-53 -64 -92 -129q-39 -70 -55 -123zM410 1099q0 63 65 65q31 -2 49 -43q17 -43 23 -80 q12 -43 41 -80q29 -36 59 -67q33 -29 56 -47q22 -21 22 -33q0 -14 -12 -14q-23 0 -70 30q-47 29 -102 74q-53 47 -90 98q-41 50 -41 97z" />
<glyph unicode="&#xe9;" horiz-adv-x="833" d="M-2 217q2 100 61 197q58 94 150 172q194 164 399 168q182 -2 187 -129q-2 -72 -70 -127q-70 -56 -170 -93q-49 -18 -98 -32q-52 -15 -99 -27q-94 -24 -153 -37q-10 -37 -10 -73q0 -89 51 -142q47 -57 135 -57q180 2 397 201q166 161 283 313l14 -14q-117 -166 -309 -347 q-141 -122 -270 -174q-131 -49 -246 -49q-117 2 -182 72q-68 65 -70 178zM209 330q174 39 297 141q59 49 92 102q33 54 33 103q-2 53 -56 53q-49 -2 -106 -43q-59 -41 -113 -104q-53 -64 -92 -129q-39 -70 -55 -123zM474 815q0 12 26 33q23 18 54 47q32 31 61 67 q27 37 37 80q8 37 26 80q15 41 45 43q64 -2 66 -65q-2 -47 -37 -97q-39 -51 -92 -98q-53 -45 -100 -74q-52 -30 -74 -30q-12 0 -12 14z" />
<glyph unicode="&#xea;" horiz-adv-x="833" d="M-2 217q2 100 61 197q58 94 150 172q194 164 399 168q182 -2 187 -129q-2 -72 -70 -127q-70 -56 -170 -93q-49 -18 -98 -32q-52 -15 -99 -27q-94 -24 -153 -37q-10 -37 -10 -73q0 -89 51 -142q47 -57 135 -57q180 2 397 201q166 161 283 313l14 -14q-117 -166 -309 -347 q-141 -122 -270 -174q-131 -49 -246 -49q-117 2 -182 72q-68 65 -70 178zM209 330q174 39 297 141q59 49 92 102q33 54 33 103q-2 53 -56 53q-49 -2 -106 -43q-59 -41 -113 -104q-53 -64 -92 -129q-39 -70 -55 -123zM406 824l5 10q110 78 212.5 159t191.5 160h34q5 0 9.5 -7 t4.5 -12q-22 -73 -36 -147t-14 -142v-25q0 -1 0.5 -2t0.5 -3q0 -4 -3 -8t-5 -5l-19 -11q-5 -3 -12 0t-9 8q-11 35 -17.5 85.5t-8.5 111.5q-75 -54 -151.5 -103.5t-158.5 -97.5q-4 -1 -10 0t-8 5z" />
<glyph unicode="&#xec;" horiz-adv-x="530" d="M-33 113q0 71 70 194q72 123 250 404l211 10q-371 -561 -367 -645q0 -53 37 -56q41 -2 117 50q75 47 186 159q197 207 285 316l18 -13q-123 -153 -305 -340q-115 -114 -201 -163q-88 -49 -159 -49q-68 2 -103 38q-37 35 -39 95zM260 1097q0 63 65 65q31 -2 49 -43 q17 -43 23 -80q12 -43 41 -80q29 -36 59 -67q33 -29 56 -47q22 -21 22 -33q0 -14 -12 -14q-23 0 -70 30q-47 29 -102 74q-53 47 -90 98q-41 50 -41 97z" />
<glyph unicode="&#xed;" horiz-adv-x="530" d="M-33 113q0 71 70 194q72 123 250 404l211 10q-371 -561 -367 -645q0 -53 37 -56q41 -2 117 50q75 47 186 159q197 207 285 316l18 -13q-123 -153 -305 -340q-115 -114 -201 -163q-88 -49 -159 -49q-68 2 -103 38q-37 35 -39 95zM297 813q0 12 26 33q23 18 54 47 q32 31 61 67q27 37 37 80q8 37 26 80q15 41 45 43q64 -2 66 -65q-2 -47 -37 -97q-39 -51 -92 -98q-53 -45 -100 -74q-52 -30 -74 -30q-12 0 -12 14z" />
<glyph unicode="&#xf2;" d="M8 209q0 113 60 211q53 96 141 172q186 158 401 162q111 -2 176 -60q64 -57 76 -143q12 -62 49 -96q35 -39 90 -39q105 0 209 131l13 -17q-41 -55 -97 -94q-55 -45 -125 -45q-90 0 -145 78q-51 -209 -215 -352q-164 -146 -385 -150q-113 2 -178 68q-70 63 -70 174z M180 100q0 -106 90 -108q82 2 156 76q74 71 133 176q127 225 131 376q0 107 -90 109q-78 -2 -149 -72q-74 -71 -138 -176q-131 -229 -133 -381zM467 1099q0 63 65 65q31 -2 49 -43q17 -43 23 -80q12 -43 41 -80q29 -36 59 -67q33 -29 56 -47q22 -21 22 -33q0 -14 -12 -14 q-23 0 -70 30q-47 29 -102 74q-53 47 -90 98q-41 50 -41 97z" />
<glyph unicode="&#xf3;" d="M8 209q0 113 60 211q53 96 141 172q186 158 401 162q111 -2 176 -60q64 -57 76 -143q12 -62 49 -96q35 -39 90 -39q105 0 209 131l13 -17q-41 -55 -97 -94q-55 -45 -125 -45q-90 0 -145 78q-51 -209 -215 -352q-164 -146 -385 -150q-113 2 -178 68q-70 63 -70 174z M180 100q0 -106 90 -108q82 2 156 76q74 71 133 176q127 225 131 376q0 107 -90 109q-78 -2 -149 -72q-74 -71 -138 -176q-131 -229 -133 -381zM521 815q0 12 26 33q23 18 54 47q32 31 61 67q27 37 37 80q8 37 26 80q15 41 45 43q64 -2 66 -65q-2 -47 -37 -97 q-39 -51 -92 -98q-53 -45 -100 -74q-52 -30 -74 -30q-12 0 -12 14z" />
<glyph unicode="&#xf4;" d="M8 209q0 113 60 211q53 96 141 172q186 158 401 162q111 -2 176 -60q64 -57 76 -143q12 -62 49 -96q35 -39 90 -39q105 0 209 131l13 -17q-41 -55 -97 -94q-55 -45 -125 -45q-90 0 -145 78q-51 -209 -215 -352q-164 -146 -385 -150q-113 2 -178 68q-70 63 -70 174z M180 100q0 -106 90 -108q82 2 156 76q74 71 133 176q127 225 131 376q0 107 -90 109q-78 -2 -149 -72q-74 -71 -138 -176q-131 -229 -133 -381zM429 824l5 10q110 78 212.5 159t191.5 160h34q5 0 9.5 -7t4.5 -12q-22 -73 -36 -147t-14 -142v-25q0 -1 0.5 -2t0.5 -3 q0 -4 -3 -8t-5 -5l-19 -11q-5 -3 -12 0t-9 8q-11 35 -17.5 85.5t-8.5 111.5q-75 -54 -151.5 -103.5t-158.5 -97.5q-4 -1 -10 0t-8 5z" />
<glyph unicode="&#xf5;" d="M8 209q0 113 60 211q53 96 141 172q186 158 401 162q111 -2 176 -60q64 -57 76 -143q12 -62 49 -96q35 -39 90 -39q105 0 209 131l13 -17q-41 -55 -97 -94q-55 -45 -125 -45q-90 0 -145 78q-51 -209 -215 -352q-164 -146 -385 -150q-113 2 -178 68q-70 63 -70 174z M180 100q0 -106 90 -108q82 2 156 76q74 71 133 176q127 225 131 376q0 107 -90 109q-78 -2 -149 -72q-74 -71 -138 -176q-131 -229 -133 -381zM418 852q33 58 93 110q61 53 123 54q75 -3 118 -32q24 -12 47 -20q21 -12 47 -12q43 0 79 22q36 21 67 60h30q-38 -60 -100 -110 q-64 -54 -131 -55q-32 0 -57 12q-27 9 -53 20q-43 32 -101 33q-38 0 -72 -24q-35 -24 -66 -58h-24z" />
<glyph unicode="&#xf9;" d="M-68 113q2 77 86 227q82 149 226 381l217 8q-162 -246 -260 -405q-103 -158 -105 -238q2 -55 49 -57q41 0 97 34q53 33 112 89q123 116 221 274l177 287l210 16q-161 -264 -264 -422q-106 -160 -106 -246q0 -45 39 -45q28 0 61 21q35 16 74 45q80 59 156 135 q196 209 290 336l17 -12q-107 -146 -287 -336q-201 -221 -367 -225q-61 2 -96 38q-39 35 -39 91q2 79 25 116l-4 4q-72 -82 -170 -161q-99 -84 -230 -88q-61 2 -94 40q-35 39 -35 93zM420 1099q0 63 65 65q31 -2 49 -43q17 -43 23 -80q12 -43 41 -80q29 -36 59 -67 q33 -29 56 -47q22 -21 22 -33q0 -14 -12 -14q-23 0 -70 30q-47 29 -102 74q-53 47 -90 98q-41 50 -41 97z" />
<glyph unicode="&#xfa;" d="M-68 113q2 77 86 227q82 149 226 381l217 8q-162 -246 -260 -405q-103 -158 -105 -238q2 -55 49 -57q41 0 97 34q53 33 112 89q123 116 221 274l177 287l210 16q-161 -264 -264 -422q-106 -160 -106 -246q0 -45 39 -45q28 0 61 21q35 16 74 45q80 59 156 135 q196 209 290 336l17 -12q-107 -146 -287 -336q-201 -221 -367 -225q-61 2 -96 38q-39 35 -39 91q2 79 25 116l-4 4q-72 -82 -170 -161q-99 -84 -230 -88q-61 2 -94 40q-35 39 -35 93zM527 815q0 12 26 33q23 18 54 47q32 31 61 67q27 37 37 80q8 37 26 80q15 41 45 43 q64 -2 66 -65q-2 -47 -37 -97q-39 -51 -92 -98q-53 -45 -100 -74q-52 -30 -74 -30q-12 0 -12 14z" />
<glyph unicode="&#xfd;" d="M-766 -365q4 123 96 177q88 55 205 53q53 0 92 -8v-19q-14 2 -37 2q-86 0 -133 -61q-49 -64 -51 -158q2 -108 68 -168q63 -61 164 -63q157 2 286 96q129 92 234 233q106 142 192 289q82 148 150 262l-4 4q-62 -79 -179 -182q-59 -47 -120 -78q-66 -32 -131 -34 q-66 2 -97 40q-30 37 -30 91q2 51 30 118q29 66 72 144q96 159 209 348l217 8q-170 -266 -266 -422q-99 -160 -99 -223q2 -53 54 -55q36 0 96 39q55 36 121 102q135 133 247 315q95 154 132 236l200 8q-213 -381 -430 -756q201 64 381 232t303 344l17 -15 q-142 -206 -328 -368q-191 -162 -391 -219q-148 -254 -369 -414q-221 -164 -516 -168q-153 0 -266 62q-115 59 -119 208zM549 815q0 12 26 33q23 18 54 47q32 31 61 67q27 37 37 80q8 37 26 80q15 41 45 43q64 -2 66 -65q-2 -47 -37 -97q-39 -51 -92 -98q-53 -45 -100 -74 q-52 -30 -74 -30q-12 0 -12 14z" />
<glyph unicode="&#x102;" horiz-adv-x="1782" d="M-231 238q0 61 34 110q31 45 97 47q41 0 69 -24q29 -25 29 -64q0 -53 -31 -78q-30 -26 -88 -26q2 -86 74 -133q65 -50 143 -50q140 0 273 72q67 35 131 78q61 43 120 92q244 221 412 426q223 260 490 485q266 226 587 332l15 -12q-322 -358 -547 -719 q-234 -362 -238 -651q2 -100 68 -98q61 0 158 67q94 64 196 168q154 166 246 287l16 -10q-82 -121 -266 -314q-102 -106 -207 -172q-104 -69 -209 -71q-98 2 -137 61q-39 55 -37 135q0 125 43 242q39 114 94 219h-286q-168 -211 -408 -418q-239 -217 -524 -223 q-125 0 -219 59q-96 58 -98 183zM1040 661h277q231 406 577 727l-4 5q-467 -267 -850 -732zM1975 1627q-30 60 3 138q10 31 38 36q18 2 18 -18q-2 -22 -2 -52q2 -26 23 -50q15 -25 73 -25t121 24q63 18 116 45q56 27 92 47q37 22 44 22q12 0 6 -18q-4 -13 -48 -45 q-45 -37 -113 -75q-64 -38 -135 -66q-74 -32 -135 -32q-77 2 -101 69z" />
<glyph unicode="&#x103;" horiz-adv-x="1063" d="M-4 190q2 103 55 203q53 101 141 180q181 174 383 181q136 0 181 -127l51 82l213 12q-29 -53 -86 -141q-62 -89 -125 -185q-64 -96 -109 -182q-47 -88 -47 -145q0 -54 51 -52q52 0 136 60q82 57 174 149q176 189 272 318l14 -9q-102 -143 -290 -344q-95 -100 -191 -159 q-98 -62 -192 -64q-64 2 -99 35q-39 33 -39 82q0 35 9 53h-4q-62 -71 -144 -119q-80 -49 -172 -51q-96 2 -139 70q-43 65 -43 153zM192 184q0 -59 23 -102q21 -45 80 -45q67 8 139 76q68 65 127 159q59 97 98 191q35 92 35 149q0 58 -18 88q-25 29 -82 29q-72 -2 -139 -59 q-72 -62 -131 -150q-60 -88 -95 -178q-37 -90 -37 -158zM635 874q-30 60 3 138q10 31 38 36q18 2 18 -18q-2 -22 -2 -52q2 -26 23 -50q15 -25 73 -25t121 24q63 18 116 45q56 27 92 47q37 22 44 22q12 0 6 -18q-4 -13 -48 -45q-45 -37 -113 -75q-64 -38 -135 -66 q-74 -32 -135 -32q-77 2 -101 69z" />
<glyph unicode="&#x110;" horiz-adv-x="1933" d="M70 59q-2 41 77 39q43 0 127 -16t195 -33q174 37 297 193q121 150 229 353h-98q-26 -47 -59 -85q-144 -162 -344 -162q-146 2 -232 107q-86 100 -86 241q2 168 86 309q82 144 219 248q287 221 633 226q281 4 504 -144q207 123 446 152v-17q-223 -30 -391 -180 q205 -192 205 -475q-6 -412 -309 -623q-299 -212 -717 -212q-203 4 -383 45q-43 -7 -100 -15q-58 -10 -146 -10q-82 0 -119 20q-34 21 -34 39zM340 704q0 -55 16 -106q13 -53 43 -96q58 -94 181 -97q96 0 170 56q68 51 116 134h-72l24 37h67q84 171 88 367h24 q-12 -221 -81 -367h99q104 193 230 371q135 193 332 310q-82 71 -195 108q-112 33 -227 33q-336 -2 -569 -203q-242 -200 -246 -547zM516 37q27 -8 115 -19q88 -14 213 -14q381 14 622 303q244 291 248 660q0 77 -16 153q-17 76 -68 135q-160 -178 -260 -358 q-74 -137 -146 -265h202l-24 -37h-199l-28 -48q-94 -166 -243 -297q-152 -133 -416 -209v-4z" />
<glyph unicode="&#x111;" horiz-adv-x="1063" d="M0 190q0 107 55 205q54 101 137 180q177 175 388 179q139 -2 184 -131l228 375h-283l24 37h282l230 378l229 12q-118 -186 -250 -390h117l-24 -37h-116q-113 -176 -236 -365q-134 -203 -220 -359q-90 -155 -92 -221q0 -47 43 -49q94 -2 285 182q143 146 297 353l20 -11 q-106 -147 -278 -336q-96 -102 -189 -161q-92 -62 -192 -64q-90 2 -123 58q-31 51 -20 106l-5 4q-61 -65 -137 -108q-78 -45 -176 -47q-96 2 -137 65q-41 61 -41 145zM197 176q0 -51 24 -86q21 -41 76 -41q68 0 139 64q68 61 127 151q60 92 96 187q35 94 35 163q0 62 -28 88 q-31 27 -80 27q-64 -2 -129 -55q-68 -56 -127 -144q-129 -184 -133 -354z" />
<glyph unicode="&#x128;" horiz-adv-x="1251" d="M-109 240q0 59 35 104q31 41 92 43q101 -4 105 -100q0 -39 -17 -62q-20 -24 -67 -33q0 -98 61 -143q58 -45 160 -45q277 6 453 250q174 237 331 539q115 215 279 368q162 152 495 268v4q-145 3 -372 -12q-228 -16 -461 -69q-233 -54 -393 -172q-164 -117 -168 -324 q0 -90 55 -143q49 -58 139 -58q113 0 197 84q86 80 88 207q-2 64 -29 117l21 4q31 -49 33 -121q-2 -160 -117 -248q-117 -92 -279 -92q-118 0 -198 74q-82 70 -82 192q2 189 156 308q149 116 376 176q490 106 903 102q138 0 222 12q82 9 122 9q27 0 46 -9q16 -8 16 -24 q0 -19 -21 -25q-20 -8 -47 -8q-14 0 -71 6q-58 4 -99 6q-186 -80 -307 -204q-119 -123 -205 -273q-82 -147 -165 -303q-86 -158 -203 -303q-131 -162 -301 -260q-170 -100 -377 -102q-59 0 -127 14q-70 12 -133 41q-62 31 -103 82q-40 49 -43 123zM1408 1568q33 58 93 110 q61 53 123 54q75 -3 118 -32q24 -12 47 -20q21 -12 47 -12q43 0 79 22q36 21 67 60h30q-38 -60 -100 -110q-64 -54 -131 -55q-32 0 -57 12q-27 9 -53 20q-43 32 -101 33q-38 0 -72 -24q-35 -24 -66 -58h-24z" />
<glyph unicode="&#x129;" horiz-adv-x="530" d="M-33 113q0 71 70 194q72 123 250 404l211 10q-371 -561 -367 -645q0 -53 37 -56q41 -2 117 50q75 47 186 159q197 207 285 316l18 -13q-123 -153 -305 -340q-115 -114 -201 -163q-88 -49 -159 -49q-68 2 -103 38q-37 35 -39 95zM175 852q33 58 93 110q61 53 123 54 q75 -3 118 -32q24 -12 47 -20q21 -12 47 -12q43 0 79 22q36 21 67 60h30q-38 -60 -100 -110q-64 -54 -131 -55q-32 0 -57 12q-27 9 -53 20q-43 32 -101 33q-38 0 -72 -24q-35 -24 -66 -58h-24z" />
<glyph unicode="&#x168;" horiz-adv-x="1706" d="M188 917q0 121 72 226q70 104 182 182q238 166 510 170q94 0 158 -49q59 -49 61 -148q-2 -94 -98 -252q-96 -159 -221 -337q-125 -179 -219 -336q-99 -160 -101 -254q2 -82 84 -82q72 0 166 59q90 58 191 148q205 190 342 409l475 772l225 8l-532 -827 q-140 -213 -195 -330q-59 -116 -57 -186q-2 -72 57 -74q66 0 145 54q78 49 164 127q176 165 330 348l18 -15q-100 -122 -276 -303q-233 -245 -420 -247q-100 2 -141 47t-41 114q0 72 35 144q28 69 67 125l-4 4q-129 -162 -301 -293q-174 -137 -358 -141q-146 2 -146 153 q0 53 29 121t72 147q94 164 219 349q125 184 221 348q96 161 98 260q-2 98 -133 100q-209 -4 -389 -166q-86 -76 -139 -172q-55 -98 -55 -205q0 -57 34 -100q31 -47 91 -47q81 0 149 51q66 47 117 117l16 -12q-57 -78 -135 -134q-80 -59 -180 -59q-183 4 -187 186z M1284 1568q33 58 93 110q61 53 123 54q75 -3 118 -32q24 -12 47 -20q21 -12 47 -12q43 0 79 22q36 21 67 60h30q-38 -60 -100 -110q-64 -54 -131 -55q-32 0 -57 12q-27 9 -53 20q-43 32 -101 33q-38 0 -72 -24q-35 -24 -66 -58h-24z" />
<glyph unicode="&#x169;" d="M-68 113q2 77 86 227q82 149 226 381l217 8q-162 -246 -260 -405q-103 -158 -105 -238q2 -55 49 -57q41 0 97 34q53 33 112 89q123 116 221 274l177 287l210 16q-161 -264 -264 -422q-106 -160 -106 -246q0 -45 39 -45q28 0 61 21q35 16 74 45q80 59 156 135 q196 209 290 336l17 -12q-107 -146 -287 -336q-201 -221 -367 -225q-61 2 -96 38q-39 35 -39 91q2 79 25 116l-4 4q-72 -82 -170 -161q-99 -84 -230 -88q-61 2 -94 40q-35 39 -35 93zM361 852q33 58 93 110q61 53 123 54q75 -3 118 -32q24 -12 47 -20q21 -12 47 -12 q43 0 79 22q36 21 67 60h30q-38 -60 -100 -110q-64 -54 -131 -55q-32 0 -57 12q-27 9 -53 20q-43 32 -101 33q-38 0 -72 -24q-35 -24 -66 -58h-24z" />
<glyph unicode="&#x1a0;" horiz-adv-x="1517" d="M158 340q6 360 290 676q273 317 633 368q68 60 121 80q55 15 102 15q123 -2 183 -91q7 -12 14 -25q48 27 70 78q-14 2 -28 6q-13 4 -28 14q-28 18 -29 52q-3 35 21 66q33 48 79 54q44 6 79 -2q62 -17 58 -85q6 -47 -33 -103q-51 -71 -126 -103q-22 -10 -46 -18 q26 -73 26 -171q-2 -184 -90 -377q-88 -192 -197 -338q72 -26 152 -24q100 0 192 45q93 43 146 94l12 -14q-170 -150 -346 -150q-96 0 -174 29q-133 -172 -315 -305q-185 -140 -408 -144q-201 4 -280 115q-80 108 -78 258zM367 322q-2 -127 45 -220q45 -96 161 -98 q91 0 181 45q88 41 165 111q162 143 242 291q-272 157 -276 475q2 247 172 428l-4 4q-152 -33 -277 -142q-127 -110 -219 -264q-188 -321 -190 -630zM967 975q-2 -139 45 -281q24 -67 67 -125q41 -59 99 -96q196 330 202 696q0 111 -35 185q-36 73 -124 75q-72 -2 -111 -45 q92 -4 127 -53q33 -51 33 -117q-2 -45 -11 -75l-22 2q8 32 8 75q0 62 -33 105q-37 43 -125 39q-59 -68 -90 -176q-30 -109 -30 -209z" />
<glyph unicode="&#x1a1;" d="M8 209q0 113 60 211q53 96 141 172q186 158 401 162q111 -2 176 -60q23 -21 40 -46q49 24 70 72q-13 2 -25 6q-13 4 -26 13q-26 16 -27 48q-3 32 19 61q31 44 73 49q41 6 73 -2q57 -15 53 -78q6 -43 -30 -95q-47 -65 -116 -94q-22 -10 -44 -18q11 -28 16 -59 q12 -62 49 -96q35 -39 90 -39q105 0 209 131l13 -17q-41 -55 -97 -94q-55 -45 -125 -45q-90 0 -145 78q-51 -209 -215 -352q-164 -146 -385 -150q-113 2 -178 68q-70 63 -70 174zM180 100q0 -106 90 -108q82 2 156 76q74 71 133 176q127 225 131 376q0 107 -90 109 q-78 -2 -149 -72q-74 -71 -138 -176q-131 -229 -133 -381z" />
<glyph unicode="&#x1af;" horiz-adv-x="1706" d="M188 917q0 121 72 226q70 104 182 182q238 166 510 170q94 0 158 -49q59 -49 61 -148q-2 -94 -98 -252q-96 -159 -221 -337q-125 -179 -219 -336q-99 -160 -101 -254q2 -82 84 -82q72 0 166 59q90 58 191 148q205 190 342 409l475 772l225 8l-56 -87q106 23 137 95 q-14 2 -28 6q-13 4 -28 14q-28 18 -29 52q-3 35 21 66q33 48 79 54q44 6 79 -2q62 -17 58 -85q6 -47 -33 -103q-51 -71 -126 -103q-74 -33 -160 -40l-446 -694q-140 -213 -195 -330q-59 -116 -57 -186q-2 -72 57 -74q66 0 145 54q78 49 164 127q176 165 330 348l18 -15 q-100 -122 -276 -303q-233 -245 -420 -247q-100 2 -141 47t-41 114q0 72 35 144q28 69 67 125l-4 4q-129 -162 -301 -293q-174 -137 -358 -141q-146 2 -146 153q0 53 29 121t72 147q94 164 219 349q125 184 221 348q96 161 98 260q-2 98 -133 100q-209 -4 -389 -166 q-86 -76 -139 -172q-55 -98 -55 -205q0 -57 34 -100q31 -47 91 -47q81 0 149 51q66 47 117 117l16 -12q-57 -78 -135 -134q-80 -59 -180 -59q-183 4 -187 186z" />
<glyph unicode="&#x1b0;" d="M-68 113q2 77 86 227q82 149 226 381l217 8q-162 -246 -260 -405q-103 -158 -105 -238q2 -55 49 -57q41 0 97 34q53 33 112 89q123 116 221 274l177 287l210 16q-21 -35 -41 -68q74 24 99 80q-13 2 -25 6q-13 4 -26 13q-26 16 -27 48q-3 32 19 61q31 44 73 49q41 6 73 -2 q57 -15 53 -78q6 -43 -30 -95q-47 -65 -116 -94q-57 -26 -122 -34q-115 -186 -194 -308q-106 -160 -106 -246q0 -45 39 -45q28 0 61 21q35 16 74 45q80 59 156 135q196 209 290 336l17 -12q-107 -146 -287 -336q-201 -221 -367 -225q-61 2 -96 38q-39 35 -39 91q2 79 25 116 l-4 4q-72 -82 -170 -161q-99 -84 -230 -88q-61 2 -94 40q-35 39 -35 93z" />
<glyph unicode="&#x2c6;" horiz-adv-x="455" d="M188 846l9 -15q141 99 262 220q57 -113 155 -224l17 11q-113 161 -115 333h-33q-133 -174 -295 -325z" />
<glyph unicode="&#x2da;" horiz-adv-x="530" d="M317 991q2 111 86 180q80 68 189 70q65 0 117 -33q53 -37 55 -106q-2 -107 -84 -176q-82 -72 -191 -74q-63 0 -116 35q-54 35 -56 104zM408 952q0 -33 14 -55q14 -25 51 -25q41 0 78 31q37 29 63 72q58 90 60 166q0 34 -15 57q-14 23 -51 23q-39 0 -74 -27 q-36 -29 -65 -72q-59 -94 -61 -170z" />
<glyph unicode="&#x2dc;" horiz-adv-x="530" d="M182 930q8 69 51 131q43 63 117 65q90 -4 158 -39q35 -14 67 -24q31 -14 62 -14q51 0 82 26q31 25 47 72h35q-11 -72 -58 -131q-47 -64 -125 -66q-38 0 -75 15q-37 10 -74 24q-70 37 -139 39q-45 0 -72 -29q-29 -28 -47 -69h-29z" />
<glyph unicode="&#x1ea0;" horiz-adv-x="1782" d="M-231 238q0 61 34 110q31 45 97 47q41 0 69 -24q29 -25 29 -64q0 -53 -31 -78q-30 -26 -88 -26q2 -86 74 -133q65 -50 143 -50q140 0 273 72q67 35 131 78q61 43 120 92q244 221 412 426q223 260 490 485q266 226 587 332l15 -12q-322 -358 -547 -719 q-234 -362 -238 -651q2 -100 68 -98q61 0 158 67q94 64 196 168q154 166 246 287l16 -10q-82 -121 -266 -314q-102 -106 -207 -172q-104 -69 -209 -71q-98 2 -137 61q-39 55 -37 135q0 125 43 242q39 114 94 219h-286q-168 -211 -408 -418q-239 -217 -524 -223 q-125 0 -219 59q-96 58 -98 183zM678 -190q0 42 28 67q26 26 64 26q41 0 66 -26q26 -25 26 -67q0 -37 -26 -63q-25 -26 -66 -28q-38 2 -64 28q-28 26 -28 63zM1040 661h277q231 406 577 727l-4 5q-467 -267 -850 -732z" />
<glyph unicode="&#x1ea1;" horiz-adv-x="1063" d="M-4 190q2 103 55 203q53 101 141 180q181 174 383 181q136 0 181 -127l51 82l213 12q-29 -53 -86 -141q-62 -89 -125 -185q-64 -96 -109 -182q-47 -88 -47 -145q0 -54 51 -52q52 0 136 60q82 57 174 149q176 189 272 318l14 -9q-102 -143 -290 -344q-95 -100 -191 -159 q-98 -62 -192 -64q-64 2 -99 35q-39 33 -39 82q0 35 9 53h-4q-62 -71 -144 -119q-80 -49 -172 -51q-96 2 -139 70q-43 65 -43 153zM156 -190q0 42 28 67q26 26 64 26q41 0 66 -26q26 -25 26 -67q0 -37 -26 -63q-25 -26 -66 -28q-38 2 -64 28q-28 26 -28 63zM192 184 q0 -59 23 -102q21 -45 80 -45q67 8 139 76q68 65 127 159q59 97 98 191q35 92 35 149q0 58 -18 88q-25 29 -82 29q-72 -2 -139 -59q-72 -62 -131 -150q-60 -88 -95 -178q-37 -90 -37 -158z" />
<glyph unicode="&#x1ea2;" horiz-adv-x="1782" d="M-231 238q2 -125 98 -183q94 -59 219 -59q285 6 524 223q240 207 408 418h286q-55 -105 -94 -219q-43 -117 -43 -242q-2 -80 37 -135q39 -59 137 -61q105 2 209 71q105 66 207 172q184 193 266 314l-16 10q-92 -121 -246 -287q-102 -104 -196 -168q-97 -67 -158 -67 q-66 -2 -68 98q4 289 238 651q225 361 547 719l-15 12q-321 -106 -587 -332q-267 -225 -490 -485q-168 -205 -412 -426q-59 -49 -120 -92q-64 -43 -131 -78q-133 -72 -273 -72q-78 0 -143 50q-72 47 -74 133q58 0 88 26q31 25 31 78q0 39 -29 64q-28 24 -69 24 q-66 -2 -97 -47q-34 -49 -34 -110zM1040 661q383 465 850 732l4 -5q-346 -321 -577 -727h-277zM2099.5 1560q0.5 3 0.5 11v4t1 9t2 9.5t1 5.5q11 17 17.5 25.5t12.5 15t13.5 13.5t21.5 21q42 25 71 46t36 34q4 6 7.5 9.5t7.5 9t8.5 15t9.5 26.5q5 15 -0.5 33t-27.5 23 q-20 3 -33.5 3t-39.5 -7q-11 -5 -24 -9t-15 -10q6 -2 13.5 -7.5t12.5 -15t6.5 -22.5t-4.5 -29q-5 -19 -16.5 -28t-37.5 -4q-14 3 -21.5 10.5t-11.5 17t-4.5 19.5t0.5 16q5 25 24 43.5t49 32.5q58 24 112 14q49 -11 76 -44t17 -81q-5 -36 -33.5 -64t-79.5 -45l-30 -10l-12 -4 q-7 -2 -10 -3t-4.5 -2.5t-4 -2.5t-9.5 -3q-23 -6 -40 -16t-26 -20q1 0 0 -1q-2 -2 -6 -10q0 -3 -1 -6l-2 -4l-2 -4q-2 -2 -3.5 -6.5t-3.5 -6.5q-4 -6 -11 -6q-7 2 -6.5 5z" />
<glyph unicode="&#x1ea3;" horiz-adv-x="1063" d="M-4 190q0 -88 43 -153q43 -68 139 -70q92 2 172 51q82 48 144 119h4q-9 -18 -9 -53q0 -49 39 -82q35 -33 99 -35q94 2 192 64q96 59 191 159q188 201 290 344l-14 9q-96 -129 -272 -318q-92 -92 -174 -149q-84 -60 -136 -60q-51 -2 -51 52q0 57 47 145q45 86 109 182 q63 96 125 185q57 88 86 141l-213 -12l-51 -82q-45 127 -181 127q-202 -7 -383 -181q-88 -79 -141 -180q-53 -100 -55 -203zM192 184q0 68 37 158q35 90 95 178q59 88 131 150q67 57 139 59q57 0 82 -29q18 -30 18 -88q0 -57 -35 -149q-39 -94 -98 -191q-59 -94 -127 -159 q-72 -68 -139 -76q-59 0 -80 45q-23 43 -23 102zM675.5 823q0.5 3 0.5 11v4t1 9t2 9.5t1 5.5q11 17 17.5 25.5t12.5 15t13.5 13.5t21.5 21q42 25 71 46t36 34q4 6 7.5 9.5t7.5 9t8.5 15t9.5 26.5q5 15 -0.5 33t-27.5 23q-20 3 -33.5 3t-39.5 -7q-11 -5 -24 -9t-15 -10 q6 -2 13.5 -7.5t12.5 -15t6.5 -22.5t-4.5 -29q-5 -19 -16.5 -28t-37.5 -4q-14 3 -21.5 10.5t-11.5 17t-4.5 19.5t0.5 16q5 25 24 43.5t49 32.5q58 24 112 14q49 -11 76 -44t17 -81q-5 -36 -33.5 -64t-79.5 -45l-30 -10l-12 -4q-7 -2 -10 -3t-4.5 -2.5t-4 -2.5t-9.5 -3 q-23 -6 -40 -16t-26 -20q1 0 0 -1q-2 -2 -6 -10q0 -3 -1 -6l-2 -4l-2 -4q-2 -2 -3.5 -6.5t-3.5 -6.5q-4 -6 -11 -6q-7 2 -6.5 5z" />
<glyph unicode="&#x1ea4;" horiz-adv-x="1782" d="M-231 238q0 61 34 110q31 45 97 47q41 0 69 -24q29 -25 29 -64q0 -53 -31 -78q-30 -26 -88 -26q2 -86 74 -133q65 -50 143 -50q140 0 273 72q67 35 131 78q61 43 120 92q244 221 412 426q223 260 490 485q266 226 587 332l15 -12q-322 -358 -547 -719 q-234 -362 -238 -651q2 -100 68 -98q61 0 158 67q94 64 196 168q154 166 246 287l16 -10q-82 -121 -266 -314q-102 -106 -207 -172q-104 -69 -209 -71q-98 2 -137 61q-39 55 -37 135q0 125 43 242q39 114 94 219h-286q-168 -211 -408 -418q-239 -217 -524 -223 q-125 0 -219 59q-96 58 -98 183zM1040 661h277q231 406 577 727l-4 5q-467 -267 -850 -732zM1843 1568l5 10q110 78 212.5 159t191.5 160h34q5 0 9.5 -7t4.5 -12q-22 -73 -36 -147t-14 -142v-25q0 -1 0.5 -2t0.5 -3q0 -4 -3 -8t-5 -5l-19 -11q-5 -3 -12 0t-9 8 q-11 35 -17.5 85.5t-8.5 111.5q-75 -54 -151.5 -103.5t-158.5 -97.5q-4 -1 -10 0t-8 5zM2345 1782q0 12 26 33q23 18 54 47q32 31 61 67q27 37 37 80q8 37 26 80q15 41 45 43q64 -2 66 -65q-2 -47 -37 -97q-39 -51 -92 -98q-53 -45 -100 -74q-52 -30 -74 -30q-12 0 -12 14z " />
<glyph unicode="&#x1ea5;" horiz-adv-x="1063" d="M-4 190q2 103 55 203q53 101 141 180q181 174 383 181q136 0 181 -127l51 82l213 12q-29 -53 -86 -141q-62 -89 -125 -185q-64 -96 -109 -182q-47 -88 -47 -145q0 -54 51 -52q52 0 136 60q82 57 174 149q176 189 272 318l14 -9q-102 -143 -290 -344q-95 -100 -191 -159 q-98 -62 -192 -64q-64 2 -99 35q-39 33 -39 82q0 35 9 53h-4q-62 -71 -144 -119q-80 -49 -172 -51q-96 2 -139 70q-43 65 -43 153zM192 184q0 -59 23 -102q21 -45 80 -45q67 8 139 76q68 65 127 159q59 97 98 191q35 92 35 149q0 58 -18 88q-25 29 -82 29q-72 -2 -139 -59 q-72 -62 -131 -150q-60 -88 -95 -178q-37 -90 -37 -158zM498 846l5 10q110 78 212.5 159t191.5 160h34q5 0 9.5 -7t4.5 -12q-22 -73 -36 -147t-14 -142v-25q0 -1 0.5 -2t0.5 -3q0 -4 -3 -8t-5 -5l-19 -11q-5 -3 -12 0t-9 8q-11 35 -17.5 85.5t-8.5 111.5 q-75 -54 -151.5 -103.5t-158.5 -97.5q-4 -1 -10 0t-8 5zM1000 1058q0 12 26 33q23 18 54 47q32 31 61 67q27 37 37 80q8 37 26 80q15 41 45 43q64 -2 66 -65q-2 -47 -37 -97q-39 -51 -92 -98q-53 -45 -100 -74q-52 -30 -74 -30q-12 0 -12 14z" />
<glyph unicode="&#x1ea6;" horiz-adv-x="1782" d="M-231 238q0 61 34 110q31 45 97 47q41 0 69 -24q29 -25 29 -64q0 -53 -31 -78q-30 -26 -88 -26q2 -86 74 -133q65 -50 143 -50q140 0 273 72q67 35 131 78q61 43 120 92q244 221 412 426q223 260 490 485q266 226 587 332l15 -12q-322 -358 -547 -719 q-234 -362 -238 -651q2 -100 68 -98q61 0 158 67q94 64 196 168q154 166 246 287l16 -10q-82 -121 -266 -314q-102 -106 -207 -172q-104 -69 -209 -71q-98 2 -137 61q-39 55 -37 135q0 125 43 242q39 114 94 219h-286q-168 -211 -408 -418q-239 -217 -524 -223 q-125 0 -219 59q-96 58 -98 183zM1040 661h277q231 406 577 727l-4 5q-467 -267 -850 -732zM1843 1568l5 10q110 78 212.5 159t191.5 160h34q5 0 9.5 -7t4.5 -12q-22 -73 -36 -147t-14 -142v-25q0 -1 0.5 -2t0.5 -3q0 -4 -3 -8t-5 -5l-19 -11q-5 -3 -12 0t-9 8 q-11 35 -17.5 85.5t-8.5 111.5q-75 -54 -151.5 -103.5t-158.5 -97.5q-4 -1 -10 0t-8 5zM2191 2140q0 63 65 65q31 -2 49 -43q17 -43 23 -80q12 -43 41 -80q29 -36 59 -67q33 -29 56 -47q22 -21 22 -33q0 -14 -12 -14q-23 0 -70 30q-47 29 -102 74q-53 47 -90 98 q-41 50 -41 97z" />
<glyph unicode="&#x1ea7;" horiz-adv-x="1063" d="M-4 190q2 103 55 203q53 101 141 180q181 174 383 181q136 0 181 -127l51 82l213 12q-29 -53 -86 -141q-62 -89 -125 -185q-64 -96 -109 -182q-47 -88 -47 -145q0 -54 51 -52q52 0 136 60q82 57 174 149q176 189 272 318l14 -9q-102 -143 -290 -344q-95 -100 -191 -159 q-98 -62 -192 -64q-64 2 -99 35q-39 33 -39 82q0 35 9 53h-4q-62 -71 -144 -119q-80 -49 -172 -51q-96 2 -139 70q-43 65 -43 153zM192 184q0 -59 23 -102q21 -45 80 -45q67 8 139 76q68 65 127 159q59 97 98 191q35 92 35 149q0 58 -18 88q-25 29 -82 29q-72 -2 -139 -59 q-72 -62 -131 -150q-60 -88 -95 -178q-37 -90 -37 -158zM498 846l5 10q110 78 212.5 159t191.5 160h34q5 0 9.5 -7t4.5 -12q-22 -73 -36 -147t-14 -142v-25q0 -1 0.5 -2t0.5 -3q0 -4 -3 -8t-5 -5l-19 -11q-5 -3 -12 0t-9 8q-11 35 -17.5 85.5t-8.5 111.5 q-75 -54 -151.5 -103.5t-158.5 -97.5q-4 -1 -10 0t-8 5zM846 1417q0 63 65 65q31 -2 49 -43q17 -43 23 -80q12 -43 41 -80q29 -36 59 -67q33 -29 56 -47q22 -21 22 -33q0 -14 -12 -14q-23 0 -70 30q-47 29 -102 74q-53 47 -90 98q-41 50 -41 97z" />
<glyph unicode="&#x1ea8;" horiz-adv-x="1782" d="M-231 238q2 -125 98 -183q94 -59 219 -59q285 6 524 223q240 207 408 418h286q-55 -105 -94 -219q-43 -117 -43 -242q-2 -80 37 -135q39 -59 137 -61q105 2 209 71q105 66 207 172q184 193 266 314l-16 10q-92 -121 -246 -287q-102 -104 -196 -168q-97 -67 -158 -67 q-66 -2 -68 98q4 289 238 651q225 361 547 719l-15 12q-321 -106 -587 -332q-267 -225 -490 -485q-168 -205 -412 -426q-59 -49 -120 -92q-64 -43 -131 -78q-133 -72 -273 -72q-78 0 -143 50q-72 47 -74 133q58 0 88 26q31 25 31 78q0 39 -29 64q-28 24 -69 24 q-66 -2 -97 -47q-34 -49 -34 -110zM1040 661q383 465 850 732l4 -5q-346 -321 -577 -727h-277zM1843 1568l6 -24q2 -4 8 -5t10 0q82 48 158.5 97.5t151.5 103.5q2 -61 8.5 -111.5t17.5 -85.5q2 -5 9 -8t12 0l19 11q2 1 5 5t3 8q0 2 -0.5 3t-0.5 2v25q0 68 14 142t36 147 q0 5 -4.5 12t-9.5 7h-34q-89 -79 -191.5 -160t-212.5 -159zM2329.5 1782q0.5 3 0.5 11v4t1 9t2 9.5t1 5.5q11 17 17.5 25.5t12.5 15t13.5 13.5t21.5 21q42 25 71 46t36 34q4 6 7.5 9.5t7.5 9t8.5 15t9.5 26.5q5 15 -0.5 33t-27.5 23q-20 3 -33.5 3t-39.5 -7q-11 -5 -24 -9 t-15 -10q6 -2 13.5 -7.5t12.5 -15t6.5 -22.5t-4.5 -29q-5 -19 -16.5 -28t-37.5 -4q-14 3 -21.5 10.5t-11.5 17t-4.5 19.5t0.5 16q5 25 24 43.5t49 32.5q58 24 112 14q49 -11 76 -44t17 -81q-5 -36 -33.5 -64t-79.5 -45l-30 -10l-12 -4q-7 -2 -10 -3t-4.5 -2.5t-4 -2.5 t-9.5 -3q-23 -6 -40 -16t-26 -20q1 0 0 -1q-2 -2 -6 -10q0 -3 -1 -6l-2 -4l-2 -4q-2 -2 -3.5 -6.5t-3.5 -6.5q-4 -6 -11 -6q-7 2 -6.5 5z" />
<glyph unicode="&#x1ea9;" horiz-adv-x="1063" d="M-4 190q0 -88 43 -153q43 -68 139 -70q92 2 172 51q82 48 144 119h4q-9 -18 -9 -53q0 -49 39 -82q35 -33 99 -35q94 2 192 64q96 59 191 159q188 201 290 344l-14 9q-96 -129 -272 -318q-92 -92 -174 -149q-84 -60 -136 -60q-51 -2 -51 52q0 57 47 145q45 86 109 182 q63 96 125 185q57 88 86 141l-213 -12l-51 -82q-45 127 -181 127q-202 -7 -383 -181q-88 -79 -141 -180q-53 -100 -55 -203zM192 184q0 68 37 158q35 90 95 178q59 88 131 150q67 57 139 59q57 0 82 -29q18 -30 18 -88q0 -57 -35 -149q-39 -94 -98 -191q-59 -94 -127 -159 q-72 -68 -139 -76q-59 0 -80 45q-23 43 -23 102zM498 846l6 -24q2 -4 8 -5t10 0q82 48 158.5 97.5t151.5 103.5q2 -61 8.5 -111.5t17.5 -85.5q2 -5 9 -8t12 0l19 11q2 1 5 5t3 8q0 2 -0.5 3t-0.5 2v25q0 68 14 142t36 147q0 5 -4.5 12t-9.5 7h-34q-89 -79 -191.5 -160 t-212.5 -159zM984.5 1060q0.5 3 0.5 11v4t1 9t2 9.5t1 5.5q11 17 17.5 25.5t12.5 15t13.5 13.5t21.5 21q42 25 71 46t36 34q4 6 7.5 9.5t7.5 9t8.5 15t9.5 26.5q5 15 -0.5 33t-27.5 23q-20 3 -33.5 3t-39.5 -7q-11 -5 -24 -9t-15 -10q6 -2 13.5 -7.5t12.5 -15t6.5 -22.5 t-4.5 -29q-5 -19 -16.5 -28t-37.5 -4q-14 3 -21.5 10.5t-11.5 17t-4.5 19.5t0.5 16q5 25 24 43.5t49 32.5q58 24 112 14q49 -11 76 -44t17 -81q-5 -36 -33.5 -64t-79.5 -45l-30 -10l-12 -4q-7 -2 -10 -3t-4.5 -2.5t-4 -2.5t-9.5 -3q-23 -6 -40 -16t-26 -20q1 0 0 -1 q-2 -2 -6 -10q0 -3 -1 -6l-2 -4l-2 -4q-2 -2 -3.5 -6.5t-3.5 -6.5q-4 -6 -11 -6q-7 2 -6.5 5z" />
<glyph unicode="&#x1eaa;" horiz-adv-x="1782" d="M-231 238q0 61 34 110q31 45 97 47q41 0 69 -24q29 -25 29 -64q0 -53 -31 -78q-30 -26 -88 -26q2 -86 74 -133q65 -50 143 -50q140 0 273 72q67 35 131 78q61 43 120 92q244 221 412 426q223 260 490 485q266 226 587 332l15 -12q-322 -358 -547 -719 q-234 -362 -238 -651q2 -100 68 -98q61 0 158 67q94 64 196 168q154 166 246 287l16 -10q-82 -121 -266 -314q-102 -106 -207 -172q-104 -69 -209 -71q-98 2 -137 61q-39 55 -37 135q0 125 43 242q39 114 94 219h-286q-168 -211 -408 -418q-239 -217 -524 -223 q-125 0 -219 59q-96 58 -98 183zM1040 661h277q231 406 577 727l-4 5q-467 -267 -850 -732zM1843 1568l5 10q110 78 212.5 159t191.5 160h34q5 0 9.5 -7t4.5 -12q-22 -73 -36 -147t-14 -142v-25q0 -1 0.5 -2t0.5 -3q0 -4 -3 -8t-5 -5l-19 -11q-5 -3 -12 0t-9 8 q-11 35 -17.5 85.5t-8.5 111.5q-75 -54 -151.5 -103.5t-158.5 -97.5q-4 -1 -10 0t-8 5zM2020 1925q33 58 93 110q61 53 123 54q75 -3 118 -32q24 -12 47 -20q21 -12 47 -12q43 0 79 22q36 21 67 60h30q-38 -60 -100 -110q-64 -54 -131 -55q-32 0 -57 12q-27 9 -53 20 q-43 32 -101 33q-38 0 -72 -24q-35 -24 -66 -58h-24z" />
<glyph unicode="&#x1eab;" horiz-adv-x="1063" d="M-4 190q2 103 55 203q53 101 141 180q181 174 383 181q136 0 181 -127l51 82l213 12q-29 -53 -86 -141q-62 -89 -125 -185q-64 -96 -109 -182q-47 -88 -47 -145q0 -54 51 -52q52 0 136 60q82 57 174 149q176 189 272 318l14 -9q-102 -143 -290 -344q-95 -100 -191 -159 q-98 -62 -192 -64q-64 2 -99 35q-39 33 -39 82q0 35 9 53h-4q-62 -71 -144 -119q-80 -49 -172 -51q-96 2 -139 70q-43 65 -43 153zM192 184q0 -59 23 -102q21 -45 80 -45q67 8 139 76q68 65 127 159q59 97 98 191q35 92 35 149q0 58 -18 88q-25 29 -82 29q-72 -2 -139 -59 q-72 -62 -131 -150q-60 -88 -95 -178q-37 -90 -37 -158zM498 846l5 10q110 78 212.5 159t191.5 160h34q5 0 9.5 -7t4.5 -12q-22 -73 -36 -147t-14 -142v-25q0 -1 0.5 -2t0.5 -3q0 -4 -3 -8t-5 -5l-19 -11q-5 -3 -12 0t-9 8q-11 35 -17.5 85.5t-8.5 111.5 q-75 -54 -151.5 -103.5t-158.5 -97.5q-4 -1 -10 0t-8 5zM676 1203q33 58 93 110q61 53 123 54q75 -3 118 -32q24 -12 47 -20q21 -12 47 -12q43 0 79 22q36 21 67 60h30q-38 -60 -100 -110q-64 -54 -131 -55q-32 0 -57 12q-27 9 -53 20q-43 32 -101 33q-38 0 -72 -24 q-35 -24 -66 -58h-24z" />
<glyph unicode="&#x1eac;" horiz-adv-x="1782" d="M-231 238q0 61 34 110q31 45 97 47q41 0 69 -24q29 -25 29 -64q0 -53 -31 -78q-30 -26 -88 -26q2 -86 74 -133q65 -50 143 -50q140 0 273 72q67 35 131 78q61 43 120 92q244 221 412 426q223 260 490 485q266 226 587 332l15 -12q-322 -358 -547 -719 q-234 -362 -238 -651q2 -100 68 -98q61 0 158 67q94 64 196 168q154 166 246 287l16 -10q-82 -121 -266 -314q-102 -106 -207 -172q-104 -69 -209 -71q-98 2 -137 61q-39 55 -37 135q0 125 43 242q39 114 94 219h-286q-168 -211 -408 -418q-239 -217 -524 -223 q-125 0 -219 59q-96 58 -98 183zM678 -190q0 42 28 67q26 26 64 26q41 0 66 -26q26 -25 26 -67q0 -37 -26 -63q-25 -26 -66 -28q-38 2 -64 28q-28 26 -28 63zM1040 661h277q231 406 577 727l-4 5q-467 -267 -850 -732zM1843 1568l5 10q110 78 212.5 159t191.5 160h34 q5 0 9.5 -7t4.5 -12q-22 -73 -36 -147t-14 -142v-25q0 -1 0.5 -2t0.5 -3q0 -4 -3 -8t-5 -5l-19 -11q-5 -3 -12 0t-9 8q-11 35 -17.5 85.5t-8.5 111.5q-75 -54 -151.5 -103.5t-158.5 -97.5q-4 -1 -10 0t-8 5z" />
<glyph unicode="&#x1ead;" horiz-adv-x="1063" d="M-4 190q2 103 55 203q53 101 141 180q181 174 383 181q136 0 181 -127l51 82l213 12q-29 -53 -86 -141q-62 -89 -125 -185q-64 -96 -109 -182q-47 -88 -47 -145q0 -54 51 -52q52 0 136 60q82 57 174 149q176 189 272 318l14 -9q-102 -143 -290 -344q-95 -100 -191 -159 q-98 -62 -192 -64q-64 2 -99 35q-39 33 -39 82q0 35 9 53h-4q-62 -71 -144 -119q-80 -49 -172 -51q-96 2 -139 70q-43 65 -43 153zM156 -190q0 42 28 67q26 26 64 26q41 0 66 -26q26 -25 26 -67q0 -37 -26 -63q-25 -26 -66 -28q-38 2 -64 28q-28 26 -28 63zM192 184 q0 -59 23 -102q21 -45 80 -45q67 8 139 76q68 65 127 159q59 97 98 191q35 92 35 149q0 58 -18 88q-25 29 -82 29q-72 -2 -139 -59q-72 -62 -131 -150q-60 -88 -95 -178q-37 -90 -37 -158zM498 846l5 10q110 78 212.5 159t191.5 160h34q5 0 9.5 -7t4.5 -12q-22 -73 -36 -147 t-14 -142v-25q0 -1 0.5 -2t0.5 -3q0 -4 -3 -8t-5 -5l-19 -11q-5 -3 -12 0t-9 8q-11 35 -17.5 85.5t-8.5 111.5q-75 -54 -151.5 -103.5t-158.5 -97.5q-4 -1 -10 0t-8 5z" />
<glyph unicode="&#x1eae;" horiz-adv-x="1782" d="M-231 238q0 61 34 110q31 45 97 47q41 0 69 -24q29 -25 29 -64q0 -53 -31 -78q-30 -26 -88 -26q2 -86 74 -133q65 -50 143 -50q140 0 273 72q67 35 131 78q61 43 120 92q244 221 412 426q223 260 490 485q266 226 587 332l15 -12q-322 -358 -547 -719 q-234 -362 -238 -651q2 -100 68 -98q61 0 158 67q94 64 196 168q154 166 246 287l16 -10q-82 -121 -266 -314q-102 -106 -207 -172q-104 -69 -209 -71q-98 2 -137 61q-39 55 -37 135q0 125 43 242q39 114 94 219h-286q-168 -211 -408 -418q-239 -217 -524 -223 q-125 0 -219 59q-96 58 -98 183zM1040 661h277q231 406 577 727l-4 5q-467 -267 -850 -732zM1975 1627q-30 60 3 138q10 31 38 36q18 2 18 -18q-2 -22 -2 -52q2 -26 23 -50q15 -25 73 -25t121 24q63 18 116 45q56 27 92 47q37 22 44 22q12 0 6 -18q-4 -13 -48 -45 q-45 -37 -113 -75q-64 -38 -135 -66q-74 -32 -135 -32q-77 2 -101 69zM2150 1804q0 12 26 33q23 18 54 47q32 31 61 67q27 37 37 80q8 37 26 80q15 41 45 43q64 -2 66 -65q-2 -47 -37 -97q-39 -51 -92 -98q-53 -45 -100 -74q-52 -30 -74 -30q-12 0 -12 14z" />
<glyph unicode="&#x1eaf;" horiz-adv-x="1063" d="M-4 190q2 103 55 203q53 101 141 180q181 174 383 181q136 0 181 -127l51 82l213 12q-29 -53 -86 -141q-62 -89 -125 -185q-64 -96 -109 -182q-47 -88 -47 -145q0 -54 51 -52q52 0 136 60q82 57 174 149q176 189 272 318l14 -9q-102 -143 -290 -344q-95 -100 -191 -159 q-98 -62 -192 -64q-64 2 -99 35q-39 33 -39 82q0 35 9 53h-4q-62 -71 -144 -119q-80 -49 -172 -51q-96 2 -139 70q-43 65 -43 153zM192 184q0 -59 23 -102q21 -45 80 -45q67 8 139 76q68 65 127 159q59 97 98 191q35 92 35 149q0 58 -18 88q-25 29 -82 29q-72 -2 -139 -59 q-72 -62 -131 -150q-60 -88 -95 -178q-37 -90 -37 -158zM635 874q-30 60 3 138q10 31 38 36q18 2 18 -18q-2 -22 -2 -52q2 -26 23 -50q15 -25 73 -25t121 24q63 18 116 45q56 27 92 47q37 22 44 22q12 0 6 -18q-4 -13 -48 -45q-45 -37 -113 -75q-64 -38 -135 -66 q-74 -32 -135 -32q-77 2 -101 69zM825 1049q0 12 26 33q23 18 54 47q32 31 61 67q27 37 37 80q8 37 26 80q15 41 45 43q64 -2 66 -65q-2 -47 -37 -97q-39 -51 -92 -98q-53 -45 -100 -74q-52 -30 -74 -30q-12 0 -12 14z" />
<glyph unicode="&#x1eb0;" horiz-adv-x="1782" d="M-231 238q0 61 34 110q31 45 97 47q41 0 69 -24q29 -25 29 -64q0 -53 -31 -78q-30 -26 -88 -26q2 -86 74 -133q65 -50 143 -50q140 0 273 72q67 35 131 78q61 43 120 92q244 221 412 426q223 260 490 485q266 226 587 332l15 -12q-322 -358 -547 -719 q-234 -362 -238 -651q2 -100 68 -98q61 0 158 67q94 64 196 168q154 166 246 287l16 -10q-82 -121 -266 -314q-102 -106 -207 -172q-104 -69 -209 -71q-98 2 -137 61q-39 55 -37 135q0 125 43 242q39 114 94 219h-286q-168 -211 -408 -418q-239 -217 -524 -223 q-125 0 -219 59q-96 58 -98 183zM1040 661h277q231 406 577 727l-4 5q-467 -267 -850 -732zM1975 1627q-30 60 3 138q10 31 38 36q18 2 18 -18q-2 -22 -2 -52q2 -26 23 -50q15 -25 73 -25t121 24q63 18 116 45q56 27 92 47q37 22 44 22q12 0 6 -18q-4 -13 -48 -45 q-45 -37 -113 -75q-64 -38 -135 -66q-74 -32 -135 -32q-77 2 -101 69zM2052 2085q0 63 65 65q31 -2 49 -43q17 -43 23 -80q12 -43 41 -80q29 -36 59 -67q33 -29 56 -47q22 -21 22 -33q0 -14 -12 -14q-23 0 -70 30q-47 29 -102 74q-53 47 -90 98q-41 50 -41 97z" />
<glyph unicode="&#x1eb1;" horiz-adv-x="1063" d="M-4 190q2 103 55 203q53 101 141 180q181 174 383 181q136 0 181 -127l51 82l213 12q-29 -53 -86 -141q-62 -89 -125 -185q-64 -96 -109 -182q-47 -88 -47 -145q0 -54 51 -52q52 0 136 60q82 57 174 149q176 189 272 318l14 -9q-102 -143 -290 -344q-95 -100 -191 -159 q-98 -62 -192 -64q-64 2 -99 35q-39 33 -39 82q0 35 9 53h-4q-62 -71 -144 -119q-80 -49 -172 -51q-96 2 -139 70q-43 65 -43 153zM192 184q0 -59 23 -102q21 -45 80 -45q67 8 139 76q68 65 127 159q59 97 98 191q35 92 35 149q0 58 -18 88q-25 29 -82 29q-72 -2 -139 -59 q-72 -62 -131 -150q-60 -88 -95 -178q-37 -90 -37 -158zM635 874q-30 60 3 138q10 31 38 36q18 2 18 -18q-2 -22 -2 -52q2 -26 23 -50q15 -25 73 -25t121 24q63 18 116 45q56 27 92 47q37 22 44 22q12 0 6 -18q-4 -13 -48 -45q-45 -37 -113 -75q-64 -38 -135 -66 q-74 -32 -135 -32q-77 2 -101 69zM689 1335q0 63 65 65q31 -2 49 -43q17 -43 23 -80q12 -43 41 -80q29 -36 59 -67q33 -29 56 -47q22 -21 22 -33q0 -14 -12 -14q-23 0 -70 30q-47 29 -102 74q-53 47 -90 98q-41 50 -41 97z" />
<glyph unicode="&#x1eb2;" horiz-adv-x="1782" d="M-231 238q2 -125 98 -183q94 -59 219 -59q285 6 524 223q240 207 408 418h286q-55 -105 -94 -219q-43 -117 -43 -242q-2 -80 37 -135q39 -59 137 -61q105 2 209 71q105 66 207 172q184 193 266 314l-16 10q-92 -121 -246 -287q-102 -104 -196 -168q-97 -67 -158 -67 q-66 -2 -68 98q4 289 238 651q225 361 547 719l-15 12q-321 -106 -587 -332q-267 -225 -490 -485q-168 -205 -412 -426q-59 -49 -120 -92q-64 -43 -131 -78q-133 -72 -273 -72q-78 0 -143 50q-72 47 -74 133q58 0 88 26q31 25 31 78q0 39 -29 64q-28 24 -69 24 q-66 -2 -97 -47q-34 -49 -34 -110zM1040 661q383 465 850 732l4 -5q-346 -321 -577 -727h-277zM1975 1627q24 -67 101 -69q61 0 135 32q71 28 135 66q68 38 113 75q44 32 48 45q6 18 -6 18q-7 0 -44 -22q-36 -20 -92 -47q-53 -27 -116 -45q-63 -24 -121 -24t-73 25 q-21 24 -23 50q0 30 2 52q0 20 -18 18q-28 -5 -38 -36q-33 -78 -3 -138zM2191.5 1774q0.5 3 0.5 11v4t1 9t2 9.5t1 5.5q11 17 17.5 25.5t12.5 15t13.5 13.5t21.5 21q42 25 71 46t36 34q4 6 7.5 9.5t7.5 9t8.5 15t9.5 26.5q5 15 -0.5 33t-27.5 23q-20 3 -33.5 3t-39.5 -7 q-11 -5 -24 -9t-15 -10q6 -2 13.5 -7.5t12.5 -15t6.5 -22.5t-4.5 -29q-5 -19 -16.5 -28t-37.5 -4q-14 3 -21.5 10.5t-11.5 17t-4.5 19.5t0.5 16q5 25 24 43.5t49 32.5q58 24 112 14q49 -11 76 -44t17 -81q-5 -36 -33.5 -64t-79.5 -45l-30 -10l-12 -4q-7 -2 -10 -3t-4.5 -2.5 t-4 -2.5t-9.5 -3q-23 -6 -40 -16t-26 -20q1 0 0 -1q-2 -2 -6 -10q0 -3 -1 -6l-2 -4l-2 -4q-2 -2 -3.5 -6.5t-3.5 -6.5q-4 -6 -11 -6q-7 2 -6.5 5z" />
<glyph unicode="&#x1eb3;" horiz-adv-x="1063" d="M-4 190q0 -88 43 -153q43 -68 139 -70q92 2 172 51q82 48 144 119h4q-9 -18 -9 -53q0 -49 39 -82q35 -33 99 -35q94 2 192 64q96 59 191 159q188 201 290 344l-14 9q-96 -129 -272 -318q-92 -92 -174 -149q-84 -60 -136 -60q-51 -2 -51 52q0 57 47 145q45 86 109 182 q63 96 125 185q57 88 86 141l-213 -12l-51 -82q-45 127 -181 127q-202 -7 -383 -181q-88 -79 -141 -180q-53 -100 -55 -203zM192 184q0 68 37 158q35 90 95 178q59 88 131 150q67 57 139 59q57 0 82 -29q18 -30 18 -88q0 -57 -35 -149q-39 -94 -98 -191q-59 -94 -127 -159 q-72 -68 -139 -76q-59 0 -80 45q-23 43 -23 102zM635 874q24 -67 101 -69q61 0 135 32q71 28 135 66q68 38 113 75q44 32 48 45q6 18 -6 18q-7 0 -44 -22q-36 -20 -92 -47q-53 -27 -116 -45q-63 -24 -121 -24t-73 25q-21 24 -23 50q0 30 2 52q0 20 -18 18q-28 -5 -38 -36 q-33 -78 -3 -138zM881.5 1039q0.5 3 0.5 11v4t1 9t2 9.5t1 5.5q11 17 17.5 25.5t12.5 15t13.5 13.5t21.5 21q42 25 71 46t36 34q4 6 7.5 9.5t7.5 9t8.5 15t9.5 26.5q5 15 -0.5 33t-27.5 23q-20 3 -33.5 3t-39.5 -7q-11 -5 -24 -9t-15 -10q6 -2 13.5 -7.5t12.5 -15t6.5 -22.5 t-4.5 -29q-5 -19 -16.5 -28t-37.5 -4q-14 3 -21.5 10.5t-11.5 17t-4.5 19.5t0.5 16q5 25 24 43.5t49 32.5q58 24 112 14q49 -11 76 -44t17 -81q-5 -36 -33.5 -64t-79.5 -45l-30 -10l-12 -4q-7 -2 -10 -3t-4.5 -2.5t-4 -2.5t-9.5 -3q-23 -6 -40 -16t-26 -20q1 0 0 -1 q-2 -2 -6 -10q0 -3 -1 -6l-2 -4l-2 -4q-2 -2 -3.5 -6.5t-3.5 -6.5q-4 -6 -11 -6q-7 2 -6.5 5z" />
<glyph unicode="&#x1eb4;" horiz-adv-x="1782" d="M-231 238q0 61 34 110q31 45 97 47q41 0 69 -24q29 -25 29 -64q0 -53 -31 -78q-30 -26 -88 -26q2 -86 74 -133q65 -50 143 -50q140 0 273 72q67 35 131 78q61 43 120 92q244 221 412 426q223 260 490 485q266 226 587 332l15 -12q-322 -358 -547 -719 q-234 -362 -238 -651q2 -100 68 -98q61 0 158 67q94 64 196 168q154 166 246 287l16 -10q-82 -121 -266 -314q-102 -106 -207 -172q-104 -69 -209 -71q-98 2 -137 61q-39 55 -37 135q0 125 43 242q39 114 94 219h-286q-168 -211 -408 -418q-239 -217 -524 -223 q-125 0 -219 59q-96 58 -98 183zM1040 661h277q231 406 577 727l-4 5q-467 -267 -850 -732zM1975 1627q-30 60 3 138q10 31 38 36q18 2 18 -18q-2 -22 -2 -52q2 -26 23 -50q15 -25 73 -25t121 24q63 18 116 45q56 27 92 47q37 22 44 22q12 0 6 -18q-4 -13 -48 -45 q-45 -37 -113 -75q-64 -38 -135 -66q-74 -32 -135 -32q-77 2 -101 69zM2050 1862q33 58 93 110q61 53 123 54q75 -3 118 -32q24 -12 47 -20q21 -12 47 -12q43 0 79 22q36 21 67 60h30q-38 -60 -100 -110q-64 -54 -131 -55q-32 0 -57 12q-27 9 -53 20q-43 32 -101 33 q-38 0 -72 -24q-35 -24 -66 -58h-24z" />
<glyph unicode="&#x1eb5;" horiz-adv-x="1063" d="M-4 190q2 103 55 203q53 101 141 180q181 174 383 181q136 0 181 -127l51 82l213 12q-29 -53 -86 -141q-62 -89 -125 -185q-64 -96 -109 -182q-47 -88 -47 -145q0 -54 51 -52q52 0 136 60q82 57 174 149q176 189 272 318l14 -9q-102 -143 -290 -344q-95 -100 -191 -159 q-98 -62 -192 -64q-64 2 -99 35q-39 33 -39 82q0 35 9 53h-4q-62 -71 -144 -119q-80 -49 -172 -51q-96 2 -139 70q-43 65 -43 153zM192 184q0 -59 23 -102q21 -45 80 -45q67 8 139 76q68 65 127 159q59 97 98 191q35 92 35 149q0 58 -18 88q-25 29 -82 29q-72 -2 -139 -59 q-72 -62 -131 -150q-60 -88 -95 -178q-37 -90 -37 -158zM635 874q-30 60 3 138q10 31 38 36q18 2 18 -18q-2 -22 -2 -52q2 -26 23 -50q15 -25 73 -25t121 24q63 18 116 45q56 27 92 47q37 22 44 22q12 0 6 -18q-4 -13 -48 -45q-45 -37 -113 -75q-64 -38 -135 -66 q-74 -32 -135 -32q-77 2 -101 69zM713 1111q33 58 93 110q61 53 123 54q75 -3 118 -32q24 -12 47 -20q21 -12 47 -12q43 0 79 22q36 21 67 60h30q-38 -60 -100 -110q-64 -54 -131 -55q-32 0 -57 12q-27 9 -53 20q-43 32 -101 33q-38 0 -72 -24q-35 -24 -66 -58h-24z" />
<glyph unicode="&#x1eb6;" horiz-adv-x="1782" d="M-231 238q0 61 34 110q31 45 97 47q41 0 69 -24q29 -25 29 -64q0 -53 -31 -78q-30 -26 -88 -26q2 -86 74 -133q65 -50 143 -50q140 0 273 72q67 35 131 78q61 43 120 92q244 221 412 426q223 260 490 485q266 226 587 332l15 -12q-322 -358 -547 -719 q-234 -362 -238 -651q2 -100 68 -98q61 0 158 67q94 64 196 168q154 166 246 287l16 -10q-82 -121 -266 -314q-102 -106 -207 -172q-104 -69 -209 -71q-98 2 -137 61q-39 55 -37 135q0 125 43 242q39 114 94 219h-286q-168 -211 -408 -418q-239 -217 -524 -223 q-125 0 -219 59q-96 58 -98 183zM678 -190q0 42 28 67q26 26 64 26q41 0 66 -26q26 -25 26 -67q0 -37 -26 -63q-25 -26 -66 -28q-38 2 -64 28q-28 26 -28 63zM1040 661h277q231 406 577 727l-4 5q-467 -267 -850 -732zM1975 1627q-30 60 3 138q10 31 38 36q18 2 18 -18 q-2 -22 -2 -52q2 -26 23 -50q15 -25 73 -25t121 24q63 18 116 45q56 27 92 47q37 22 44 22q12 0 6 -18q-4 -13 -48 -45q-45 -37 -113 -75q-64 -38 -135 -66q-74 -32 -135 -32q-77 2 -101 69z" />
<glyph unicode="&#x1eb7;" horiz-adv-x="1063" d="M-4 190q2 103 55 203q53 101 141 180q181 174 383 181q136 0 181 -127l51 82l213 12q-29 -53 -86 -141q-62 -89 -125 -185q-64 -96 -109 -182q-47 -88 -47 -145q0 -54 51 -52q52 0 136 60q82 57 174 149q176 189 272 318l14 -9q-102 -143 -290 -344q-95 -100 -191 -159 q-98 -62 -192 -64q-64 2 -99 35q-39 33 -39 82q0 35 9 53h-4q-62 -71 -144 -119q-80 -49 -172 -51q-96 2 -139 70q-43 65 -43 153zM156 -190q0 42 28 67q26 26 64 26q41 0 66 -26q26 -25 26 -67q0 -37 -26 -63q-25 -26 -66 -28q-38 2 -64 28q-28 26 -28 63zM192 184 q0 -59 23 -102q21 -45 80 -45q67 8 139 76q68 65 127 159q59 97 98 191q35 92 35 149q0 58 -18 88q-25 29 -82 29q-72 -2 -139 -59q-72 -62 -131 -150q-60 -88 -95 -178q-37 -90 -37 -158zM635 874q-30 60 3 138q10 31 38 36q18 2 18 -18q-2 -22 -2 -52q2 -26 23 -50 q15 -25 73 -25t121 24q63 18 116 45q56 27 92 47q37 22 44 22q12 0 6 -18q-4 -13 -48 -45q-45 -37 -113 -75q-64 -38 -135 -66q-74 -32 -135 -32q-77 2 -101 69z" />
<glyph unicode="&#x1eb8;" horiz-adv-x="1403" d="M111 322q2 147 88 231q84 80 192 133q57 29 107 55q49 25 90 56q41 30 65 67q27 37 27 86q20 291 170 414q149 117 362 115q60 0 119 -9q57 -12 105 -39q49 -24 79 -69q29 -45 29 -115q-4 -145 -119 -219q-114 -74 -252 -74q-77 0 -151 23l2 18q45 -16 94 -16 q272 0 279 270q-2 201 -201 205q-121 -2 -188 -84q-70 -84 -89 -197q-16 -139 -57 -219q-43 -82 -178 -145q-164 -72 -262 -170q-103 -98 -103 -299q3 -164 123 -248q117 -88 273 -88q166 0 280 94q115 94 119 267q-2 180 -174 184q-74 0 -135 -39q-62 -39 -111 -92l-14 10 q139 156 344 158q113 0 186 -60q74 -59 76 -174q-2 -106 -72 -180q-71 -74 -182 -119q-53 -20 -108 -37q-58 -16 -117 -28q-117 -21 -211 -21q-178 -2 -326 76q-71 43 -114 111q-45 67 -45 168zM442 -190q0 42 28 67q26 26 64 26q41 0 66 -26q26 -25 26 -67q0 -37 -26 -63 q-25 -26 -66 -28q-38 2 -64 28q-28 26 -28 63z" />
<glyph unicode="&#x1eb9;" horiz-adv-x="833" d="M-2 217q2 100 61 197q58 94 150 172q194 164 399 168q182 -2 187 -129q-2 -72 -70 -127q-70 -56 -170 -93q-49 -18 -98 -32q-52 -15 -99 -27q-94 -24 -153 -37q-10 -37 -10 -73q0 -89 51 -142q47 -57 135 -57q180 2 397 201q166 161 283 313l14 -14q-117 -166 -309 -347 q-141 -122 -270 -174q-131 -49 -246 -49q-117 2 -182 72q-68 65 -70 178zM156 -190q0 42 28 67q26 26 64 26q41 0 66 -26q26 -25 26 -67q0 -37 -26 -63q-25 -26 -66 -28q-38 2 -64 28q-28 26 -28 63zM209 330q174 39 297 141q59 49 92 102q33 54 33 103q-2 53 -56 53 q-49 -2 -106 -43q-59 -41 -113 -104q-53 -64 -92 -129q-39 -70 -55 -123z" />
<glyph unicode="&#x1eba;" horiz-adv-x="1403" d="M111 322q0 -101 45 -168q43 -68 114 -111q148 -78 326 -76q94 0 211 21q59 12 117 28q55 17 108 37q111 45 182 119q70 74 72 180q-2 115 -76 174q-73 60 -186 60q-205 -2 -344 -158l14 -10q49 53 111 92q61 39 135 39q172 -4 174 -184q-4 -173 -119 -267 q-114 -94 -280 -94q-156 0 -273 88q-120 84 -123 248q0 201 103 299q98 98 262 170q135 63 178 145q41 80 57 219q19 113 89 197q67 82 188 84q199 -4 201 -205q-7 -270 -279 -270q-49 0 -94 16l-2 -18q74 -23 151 -23q138 0 252 74q115 74 119 219q0 70 -29 115 q-30 45 -79 69q-48 27 -105 39q-59 9 -119 9q-213 2 -362 -115q-150 -123 -170 -414q0 -49 -27 -86q-24 -37 -65 -67q-41 -31 -90 -56q-50 -26 -107 -55q-108 -53 -192 -133q-86 -84 -88 -231zM1232.5 1553q0.5 3 0.5 11v4t1 9t2 9.5t1 5.5q11 17 17.5 25.5t12.5 15 t13.5 13.5t21.5 21q42 25 71 46t36 34q4 6 7.5 9.5t7.5 9t8.5 15t9.5 26.5q5 15 -0.5 33t-27.5 23q-20 3 -33.5 3t-39.5 -7q-11 -5 -24 -9t-15 -10q6 -2 13.5 -7.5t12.5 -15t6.5 -22.5t-4.5 -29q-5 -19 -16.5 -28t-37.5 -4q-14 3 -21.5 10.5t-11.5 17t-4.5 19.5t0.5 16 q5 25 24 43.5t49 32.5q58 24 112 14q49 -11 76 -44t17 -81q-5 -36 -33.5 -64t-79.5 -45l-30 -10l-12 -4q-7 -2 -10 -3t-4.5 -2.5t-4 -2.5t-9.5 -3q-23 -6 -40 -16t-26 -20q1 0 0 -1q-2 -2 -6 -10q0 -3 -1 -6l-2 -4l-2 -4q-2 -2 -3.5 -6.5t-3.5 -6.5q-4 -6 -11 -6 q-7 2 -6.5 5z" />
<glyph unicode="&#x1ebb;" horiz-adv-x="833" d="M-2 217q2 -113 70 -178q65 -70 182 -72q115 0 246 49q129 52 270 174q192 181 309 347l-14 14q-117 -152 -283 -313q-217 -199 -397 -201q-88 0 -135 57q-51 53 -51 142q0 36 10 73q59 13 153 37q47 12 99 27q49 14 98 32q100 37 170 93q68 55 70 127q-5 127 -187 129 q-205 -4 -399 -168q-92 -78 -150 -172q-59 -97 -61 -197zM209 330q16 53 55 123q39 65 92 129q54 63 113 104q57 41 106 43q54 0 56 -53q0 -49 -33 -103q-33 -53 -92 -102q-123 -102 -297 -141zM570.5 823q0.5 3 0.5 11v4t1 9t2 9.5t1 5.5q11 17 17.5 25.5t12.5 15 t13.5 13.5t21.5 21q42 25 71 46t36 34q4 6 7.5 9.5t7.5 9t8.5 15t9.5 26.5q5 15 -0.5 33t-27.5 23q-20 3 -33.5 3t-39.5 -7q-11 -5 -24 -9t-15 -10q6 -2 13.5 -7.5t12.5 -15t6.5 -22.5t-4.5 -29q-5 -19 -16.5 -28t-37.5 -4q-14 3 -21.5 10.5t-11.5 17t-4.5 19.5t0.5 16 q5 25 24 43.5t49 32.5q58 24 112 14q49 -11 76 -44t17 -81q-5 -36 -33.5 -64t-79.5 -45l-30 -10l-12 -4q-7 -2 -10 -3t-4.5 -2.5t-4 -2.5t-9.5 -3q-23 -6 -40 -16t-26 -20q1 0 0 -1q-2 -2 -6 -10q0 -3 -1 -6l-2 -4l-2 -4q-2 -2 -3.5 -6.5t-3.5 -6.5q-4 -6 -11 -6 q-7 2 -6.5 5z" />
<glyph unicode="&#x1ebc;" horiz-adv-x="1403" d="M111 322q2 147 88 231q84 80 192 133q57 29 107 55q49 25 90 56q41 30 65 67q27 37 27 86q20 291 170 414q149 117 362 115q60 0 119 -9q57 -12 105 -39q49 -24 79 -69q29 -45 29 -115q-4 -145 -119 -219q-114 -74 -252 -74q-77 0 -151 23l2 18q45 -16 94 -16 q272 0 279 270q-2 201 -201 205q-121 -2 -188 -84q-70 -84 -89 -197q-16 -139 -57 -219q-43 -82 -178 -145q-164 -72 -262 -170q-103 -98 -103 -299q3 -164 123 -248q117 -88 273 -88q166 0 280 94q115 94 119 267q-2 180 -174 184q-74 0 -135 -39q-62 -39 -111 -92l-14 10 q139 156 344 158q113 0 186 -60q74 -59 76 -174q-2 -106 -72 -180q-71 -74 -182 -119q-53 -20 -108 -37q-58 -16 -117 -28q-117 -21 -211 -21q-178 -2 -326 76q-71 43 -114 111q-45 67 -45 168zM999 1543q33 58 93 110q61 53 123 54q75 -3 118 -32q24 -12 47 -20 q21 -12 47 -12q43 0 79 22q36 21 67 60h30q-38 -60 -100 -110q-64 -54 -131 -55q-32 0 -57 12q-27 9 -53 20q-43 32 -101 33q-38 0 -72 -24q-35 -24 -66 -58h-24z" />
<glyph unicode="&#x1ebd;" horiz-adv-x="833" d="M-2 217q2 100 61 197q58 94 150 172q194 164 399 168q182 -2 187 -129q-2 -72 -70 -127q-70 -56 -170 -93q-49 -18 -98 -32q-52 -15 -99 -27q-94 -24 -153 -37q-10 -37 -10 -73q0 -89 51 -142q47 -57 135 -57q180 2 397 201q166 161 283 313l14 -14q-117 -166 -309 -347 q-141 -122 -270 -174q-131 -49 -246 -49q-117 2 -182 72q-68 65 -70 178zM209 330q174 39 297 141q59 49 92 102q33 54 33 103q-2 53 -56 53q-49 -2 -106 -43q-59 -41 -113 -104q-53 -64 -92 -129q-39 -70 -55 -123zM375 852q33 58 93 110q61 53 123 54q75 -3 118 -32 q24 -12 47 -20q21 -12 47 -12q43 0 79 22q36 21 67 60h30q-38 -60 -100 -110q-64 -54 -131 -55q-32 0 -57 12q-27 9 -53 20q-43 32 -101 33q-38 0 -72 -24q-35 -24 -66 -58h-24z" />
<glyph unicode="&#x1ebe;" horiz-adv-x="1403" d="M111 322q2 147 88 231q84 80 192 133q57 29 107 55q49 25 90 56q41 30 65 67q27 37 27 86q20 291 170 414q149 117 362 115q60 0 119 -9q57 -12 105 -39q49 -24 79 -69q29 -45 29 -115q-4 -145 -119 -219q-114 -74 -252 -74q-77 0 -151 23l2 18q45 -16 94 -16 q272 0 279 270q-2 201 -201 205q-121 -2 -188 -84q-70 -84 -89 -197q-16 -139 -57 -219q-43 -82 -178 -145q-164 -72 -262 -170q-103 -98 -103 -299q3 -164 123 -248q117 -88 273 -88q166 0 280 94q115 94 119 267q-2 180 -174 184q-74 0 -135 -39q-62 -39 -111 -92l-14 10 q139 156 344 158q113 0 186 -60q74 -59 76 -174q-2 -106 -72 -180q-71 -74 -182 -119q-53 -20 -108 -37q-58 -16 -117 -28q-117 -21 -211 -21q-178 -2 -326 76q-71 43 -114 111q-45 67 -45 168zM1038 1542l5 10q110 78 212.5 159t191.5 160h34q5 0 9.5 -7t4.5 -12 q-22 -73 -36 -147t-14 -142v-25q0 -1 0.5 -2t0.5 -3q0 -4 -3 -8t-5 -5l-19 -11q-5 -3 -12 0t-9 8q-11 35 -17.5 85.5t-8.5 111.5q-75 -54 -151.5 -103.5t-158.5 -97.5q-4 -1 -10 0t-8 5zM1540 1756q0 12 26 33q23 18 54 47q32 31 61 67q27 37 37 80q8 37 26 80q15 41 45 43 q64 -2 66 -65q-2 -47 -37 -97q-39 -51 -92 -98q-53 -45 -100 -74q-52 -30 -74 -30q-12 0 -12 14z" />
<glyph unicode="&#x1ebf;" horiz-adv-x="833" d="M-2 217q2 100 61 197q58 94 150 172q194 164 399 168q182 -2 187 -129q-2 -72 -70 -127q-70 -56 -170 -93q-49 -18 -98 -32q-52 -15 -99 -27q-94 -24 -153 -37q-10 -37 -10 -73q0 -89 51 -142q47 -57 135 -57q180 2 397 201q166 161 283 313l14 -14q-117 -166 -309 -347 q-141 -122 -270 -174q-131 -49 -246 -49q-117 2 -182 72q-68 65 -70 178zM209 330q174 39 297 141q59 49 92 102q33 54 33 103q-2 53 -56 53q-49 -2 -106 -43q-59 -41 -113 -104q-53 -64 -92 -129q-39 -70 -55 -123zM406 824l5 10q110 78 212.5 159t191.5 160h34q5 0 9.5 -7 t4.5 -12q-22 -73 -36 -147t-14 -142v-25q0 -1 0.5 -2t0.5 -3q0 -4 -3 -8t-5 -5l-19 -11q-5 -3 -12 0t-9 8q-11 35 -17.5 85.5t-8.5 111.5q-75 -54 -151.5 -103.5t-158.5 -97.5q-4 -1 -10 0t-8 5zM908 1038q0 12 26 33q23 18 54 47q32 31 61 67q27 37 37 80q8 37 26 80 q15 41 45 43q64 -2 66 -65q-2 -47 -37 -97q-39 -51 -92 -98q-53 -45 -100 -74q-52 -30 -74 -30q-12 0 -12 14z" />
<glyph unicode="&#x1ec0;" horiz-adv-x="1403" d="M111 322q2 147 88 231q84 80 192 133q57 29 107 55q49 25 90 56q41 30 65 67q27 37 27 86q20 291 170 414q149 117 362 115q60 0 119 -9q57 -12 105 -39q49 -24 79 -69q29 -45 29 -115q-4 -145 -119 -219q-114 -74 -252 -74q-77 0 -151 23l2 18q45 -16 94 -16 q272 0 279 270q-2 201 -201 205q-121 -2 -188 -84q-70 -84 -89 -197q-16 -139 -57 -219q-43 -82 -178 -145q-164 -72 -262 -170q-103 -98 -103 -299q3 -164 123 -248q117 -88 273 -88q166 0 280 94q115 94 119 267q-2 180 -174 184q-74 0 -135 -39q-62 -39 -111 -92l-14 10 q139 156 344 158q113 0 186 -60q74 -59 76 -174q-2 -106 -72 -180q-71 -74 -182 -119q-53 -20 -108 -37q-58 -16 -117 -28q-117 -21 -211 -21q-178 -2 -326 76q-71 43 -114 111q-45 67 -45 168zM1038 1542l5 10q110 78 212.5 159t191.5 160h34q5 0 9.5 -7t4.5 -12 q-22 -73 -36 -147t-14 -142v-25q0 -1 0.5 -2t0.5 -3q0 -4 -3 -8t-5 -5l-19 -11q-5 -3 -12 0t-9 8q-11 35 -17.5 85.5t-8.5 111.5q-75 -54 -151.5 -103.5t-158.5 -97.5q-4 -1 -10 0t-8 5zM1386 2114q0 63 65 65q31 -2 49 -43q17 -43 23 -80q12 -43 41 -80q29 -36 59 -67 q33 -29 56 -47q22 -21 22 -33q0 -14 -12 -14q-23 0 -70 30q-47 29 -102 74q-53 47 -90 98q-41 50 -41 97z" />
<glyph unicode="&#x1ec1;" horiz-adv-x="833" d="M-2 217q2 100 61 197q58 94 150 172q194 164 399 168q182 -2 187 -129q-2 -72 -70 -127q-70 -56 -170 -93q-49 -18 -98 -32q-52 -15 -99 -27q-94 -24 -153 -37q-10 -37 -10 -73q0 -89 51 -142q47 -57 135 -57q180 2 397 201q166 161 283 313l14 -14q-117 -166 -309 -347 q-141 -122 -270 -174q-131 -49 -246 -49q-117 2 -182 72q-68 65 -70 178zM209 330q174 39 297 141q59 49 92 102q33 54 33 103q-2 53 -56 53q-49 -2 -106 -43q-59 -41 -113 -104q-53 -64 -92 -129q-39 -70 -55 -123zM406 824l5 10q110 78 212.5 159t191.5 160h34q5 0 9.5 -7 t4.5 -12q-22 -73 -36 -147t-14 -142v-25q0 -1 0.5 -2t0.5 -3q0 -4 -3 -8t-5 -5l-19 -11q-5 -3 -12 0t-9 8q-11 35 -17.5 85.5t-8.5 111.5q-75 -54 -151.5 -103.5t-158.5 -97.5q-4 -1 -10 0t-8 5zM754 1396q0 63 65 65q31 -2 49 -43q17 -43 23 -80q12 -43 41 -80 q29 -36 59 -67q33 -29 56 -47q22 -21 22 -33q0 -14 -12 -14q-23 0 -70 30q-47 29 -102 74q-53 47 -90 98q-41 50 -41 97z" />
<glyph unicode="&#x1ec2;" horiz-adv-x="1403" d="M111 322q0 -101 45 -168q43 -68 114 -111q148 -78 326 -76q94 0 211 21q59 12 117 28q55 17 108 37q111 45 182 119q70 74 72 180q-2 115 -76 174q-73 60 -186 60q-205 -2 -344 -158l14 -10q49 53 111 92q61 39 135 39q172 -4 174 -184q-4 -173 -119 -267 q-114 -94 -280 -94q-156 0 -273 88q-120 84 -123 248q0 201 103 299q98 98 262 170q135 63 178 145q41 80 57 219q19 113 89 197q67 82 188 84q199 -4 201 -205q-7 -270 -279 -270q-49 0 -94 16l-2 -18q74 -23 151 -23q138 0 252 74q115 74 119 219q0 70 -29 115 q-30 45 -79 69q-48 27 -105 39q-59 9 -119 9q-213 2 -362 -115q-150 -123 -170 -414q0 -49 -27 -86q-24 -37 -65 -67q-41 -31 -90 -56q-50 -26 -107 -55q-108 -53 -192 -133q-86 -84 -88 -231zM1038 1542l6 -24q2 -4 8 -5t10 0q82 48 158.5 97.5t151.5 103.5 q2 -61 8.5 -111.5t17.5 -85.5q2 -5 9 -8t12 0l19 11q2 1 5 5t3 8q0 2 -0.5 3t-0.5 2v25q0 68 14 142t36 147q0 5 -4.5 12t-9.5 7h-34q-89 -79 -191.5 -160t-212.5 -159zM1524.5 1756q0.5 3 0.5 11v4t1 9t2 9.5t1 5.5q11 17 17.5 25.5t12.5 15t13.5 13.5t21.5 21q42 25 71 46 t36 34q4 6 7.5 9.5t7.5 9t8.5 15t9.5 26.5q5 15 -0.5 33t-27.5 23q-20 3 -33.5 3t-39.5 -7q-11 -5 -24 -9t-15 -10q6 -2 13.5 -7.5t12.5 -15t6.5 -22.5t-4.5 -29q-5 -19 -16.5 -28t-37.5 -4q-14 3 -21.5 10.5t-11.5 17t-4.5 19.5t0.5 16q5 25 24 43.5t49 32.5q58 24 112 14 q49 -11 76 -44t17 -81q-5 -36 -33.5 -64t-79.5 -45l-30 -10l-12 -4q-7 -2 -10 -3t-4.5 -2.5t-4 -2.5t-9.5 -3q-23 -6 -40 -16t-26 -20q1 0 0 -1q-2 -2 -6 -10q0 -3 -1 -6l-2 -4l-2 -4q-2 -2 -3.5 -6.5t-3.5 -6.5q-4 -6 -11 -6q-7 2 -6.5 5z" />
<glyph unicode="&#x1ec3;" horiz-adv-x="833" d="M-2 217q2 -113 70 -178q65 -70 182 -72q115 0 246 49q129 52 270 174q192 181 309 347l-14 14q-117 -152 -283 -313q-217 -199 -397 -201q-88 0 -135 57q-51 53 -51 142q0 36 10 73q59 13 153 37q47 12 99 27q49 14 98 32q100 37 170 93q68 55 70 127q-5 127 -187 129 q-205 -4 -399 -168q-92 -78 -150 -172q-59 -97 -61 -197zM209 330q16 53 55 123q39 65 92 129q54 63 113 104q57 41 106 43q54 0 56 -53q0 -49 -33 -103q-33 -53 -92 -102q-123 -102 -297 -141zM406 824l6 -24q2 -4 8 -5t10 0q82 48 158.5 97.5t151.5 103.5 q2 -61 8.5 -111.5t17.5 -85.5q2 -5 9 -8t12 0l19 11q2 1 5 5t3 8q0 2 -0.5 3t-0.5 2v25q0 68 14 142t36 147q0 5 -4.5 12t-9.5 7h-34q-89 -79 -191.5 -160t-212.5 -159zM892.5 1038q0.5 3 0.5 11v4t1 9t2 9.5t1 5.5q11 17 17.5 25.5t12.5 15t13.5 13.5t21.5 21q42 25 71 46 t36 34q4 6 7.5 9.5t7.5 9t8.5 15t9.5 26.5q5 15 -0.5 33t-27.5 23q-20 3 -33.5 3t-39.5 -7q-11 -5 -24 -9t-15 -10q6 -2 13.5 -7.5t12.5 -15t6.5 -22.5t-4.5 -29q-5 -19 -16.5 -28t-37.5 -4q-14 3 -21.5 10.5t-11.5 17t-4.5 19.5t0.5 16q5 25 24 43.5t49 32.5q58 24 112 14 q49 -11 76 -44t17 -81q-5 -36 -33.5 -64t-79.5 -45l-30 -10l-12 -4q-7 -2 -10 -3t-4.5 -2.5t-4 -2.5t-9.5 -3q-23 -6 -40 -16t-26 -20q1 0 0 -1q-2 -2 -6 -10q0 -3 -1 -6l-2 -4l-2 -4q-2 -2 -3.5 -6.5t-3.5 -6.5q-4 -6 -11 -6q-7 2 -6.5 5z" />
<glyph unicode="&#x1ec4;" horiz-adv-x="1403" d="M111 322q2 147 88 231q84 80 192 133q57 29 107 55q49 25 90 56q41 30 65 67q27 37 27 86q20 291 170 414q149 117 362 115q60 0 119 -9q57 -12 105 -39q49 -24 79 -69q29 -45 29 -115q-4 -145 -119 -219q-114 -74 -252 -74q-77 0 -151 23l2 18q45 -16 94 -16 q272 0 279 270q-2 201 -201 205q-121 -2 -188 -84q-70 -84 -89 -197q-16 -139 -57 -219q-43 -82 -178 -145q-164 -72 -262 -170q-103 -98 -103 -299q3 -164 123 -248q117 -88 273 -88q166 0 280 94q115 94 119 267q-2 180 -174 184q-74 0 -135 -39q-62 -39 -111 -92l-14 10 q139 156 344 158q113 0 186 -60q74 -59 76 -174q-2 -106 -72 -180q-71 -74 -182 -119q-53 -20 -108 -37q-58 -16 -117 -28q-117 -21 -211 -21q-178 -2 -326 76q-71 43 -114 111q-45 67 -45 168zM1038 1542l5 10q110 78 212.5 159t191.5 160h34q5 0 9.5 -7t4.5 -12 q-22 -73 -36 -147t-14 -142v-25q0 -1 0.5 -2t0.5 -3q0 -4 -3 -8t-5 -5l-19 -11q-5 -3 -12 0t-9 8q-11 35 -17.5 85.5t-8.5 111.5q-75 -54 -151.5 -103.5t-158.5 -97.5q-4 -1 -10 0t-8 5zM1215 1899q33 58 93 110q61 53 123 54q75 -3 118 -32q24 -12 47 -20q21 -12 47 -12 q43 0 79 22q36 21 67 60h30q-38 -60 -100 -110q-64 -54 -131 -55q-32 0 -57 12q-27 9 -53 20q-43 32 -101 33q-38 0 -72 -24q-35 -24 -66 -58h-24z" />
<glyph unicode="&#x1ec5;" horiz-adv-x="833" d="M-2 217q2 100 61 197q58 94 150 172q194 164 399 168q182 -2 187 -129q-2 -72 -70 -127q-70 -56 -170 -93q-49 -18 -98 -32q-52 -15 -99 -27q-94 -24 -153 -37q-10 -37 -10 -73q0 -89 51 -142q47 -57 135 -57q180 2 397 201q166 161 283 313l14 -14q-117 -166 -309 -347 q-141 -122 -270 -174q-131 -49 -246 -49q-117 2 -182 72q-68 65 -70 178zM209 330q174 39 297 141q59 49 92 102q33 54 33 103q-2 53 -56 53q-49 -2 -106 -43q-59 -41 -113 -104q-53 -64 -92 -129q-39 -70 -55 -123zM406 824l5 10q110 78 212.5 159t191.5 160h34q5 0 9.5 -7 t4.5 -12q-22 -73 -36 -147t-14 -142v-25q0 -1 0.5 -2t0.5 -3q0 -4 -3 -8t-5 -5l-19 -11q-5 -3 -12 0t-9 8q-11 35 -17.5 85.5t-8.5 111.5q-75 -54 -151.5 -103.5t-158.5 -97.5q-4 -1 -10 0t-8 5zM583 1181q33 58 93 110q61 53 123 54q75 -3 118 -32q24 -12 47 -20 q21 -12 47 -12q43 0 79 22q36 21 67 60h30q-38 -60 -100 -110q-64 -54 -131 -55q-32 0 -57 12q-27 9 -53 20q-43 32 -101 33q-38 0 -72 -24q-35 -24 -66 -58h-24z" />
<glyph unicode="&#x1ec6;" horiz-adv-x="1403" d="M111 322q2 147 88 231q84 80 192 133q57 29 107 55q49 25 90 56q41 30 65 67q27 37 27 86q20 291 170 414q149 117 362 115q60 0 119 -9q57 -12 105 -39q49 -24 79 -69q29 -45 29 -115q-4 -145 -119 -219q-114 -74 -252 -74q-77 0 -151 23l2 18q45 -16 94 -16 q272 0 279 270q-2 201 -201 205q-121 -2 -188 -84q-70 -84 -89 -197q-16 -139 -57 -219q-43 -82 -178 -145q-164 -72 -262 -170q-103 -98 -103 -299q3 -164 123 -248q117 -88 273 -88q166 0 280 94q115 94 119 267q-2 180 -174 184q-74 0 -135 -39q-62 -39 -111 -92l-14 10 q139 156 344 158q113 0 186 -60q74 -59 76 -174q-2 -106 -72 -180q-71 -74 -182 -119q-53 -20 -108 -37q-58 -16 -117 -28q-117 -21 -211 -21q-178 -2 -326 76q-71 43 -114 111q-45 67 -45 168zM442 -190q0 42 28 67q26 26 64 26q41 0 66 -26q26 -25 26 -67q0 -37 -26 -63 q-25 -26 -66 -28q-38 2 -64 28q-28 26 -28 63zM1038 1542l5 10q110 78 212.5 159t191.5 160h34q5 0 9.5 -7t4.5 -12q-22 -73 -36 -147t-14 -142v-25q0 -1 0.5 -2t0.5 -3q0 -4 -3 -8t-5 -5l-19 -11q-5 -3 -12 0t-9 8q-11 35 -17.5 85.5t-8.5 111.5q-75 -54 -151.5 -103.5 t-158.5 -97.5q-4 -1 -10 0t-8 5z" />
<glyph unicode="&#x1ec7;" horiz-adv-x="833" d="M-2 217q2 100 61 197q58 94 150 172q194 164 399 168q182 -2 187 -129q-2 -72 -70 -127q-70 -56 -170 -93q-49 -18 -98 -32q-52 -15 -99 -27q-94 -24 -153 -37q-10 -37 -10 -73q0 -89 51 -142q47 -57 135 -57q180 2 397 201q166 161 283 313l14 -14q-117 -166 -309 -347 q-141 -122 -270 -174q-131 -49 -246 -49q-117 2 -182 72q-68 65 -70 178zM116 -190q0 42 28 67q26 26 64 26q41 0 66 -26q26 -25 26 -67q0 -37 -26 -63q-25 -26 -66 -28q-38 2 -64 28q-28 26 -28 63zM209 330q174 39 297 141q59 49 92 102q33 54 33 103q-2 53 -56 53 q-49 -2 -106 -43q-59 -41 -113 -104q-53 -64 -92 -129q-39 -70 -55 -123zM406 824l5 10q110 78 212.5 159t191.5 160h34q5 0 9.5 -7t4.5 -12q-22 -73 -36 -147t-14 -142v-25q0 -1 0.5 -2t0.5 -3q0 -4 -3 -8t-5 -5l-19 -11q-5 -3 -12 0t-9 8q-11 35 -17.5 85.5t-8.5 111.5 q-75 -54 -151.5 -103.5t-158.5 -97.5q-4 -1 -10 0t-8 5z" />
<glyph unicode="&#x1ec8;" horiz-adv-x="1251" d="M-109 240q3 -74 43 -123q41 -51 103 -82q63 -29 133 -41q68 -14 127 -14q207 2 377 102q170 98 301 260q117 145 203 303q83 156 165 303q86 150 205 273q121 124 307 204q41 -2 99 -6q57 -6 71 -6q27 0 47 8q21 6 21 25q0 16 -16 24q-19 9 -46 9q-40 0 -122 -9 q-84 -12 -222 -12q-413 4 -903 -102q-227 -60 -376 -176q-154 -119 -156 -308q0 -122 82 -192q80 -74 198 -74q162 0 279 92q115 88 117 248q-2 72 -33 121l-21 -4q27 -53 29 -117q-2 -127 -88 -207q-84 -84 -197 -84q-90 0 -139 58q-55 53 -55 143q4 207 168 324 q160 118 393 172q233 53 461 69q227 15 372 12v-4q-333 -116 -495 -268q-164 -153 -279 -368q-157 -302 -331 -539q-176 -244 -453 -250q-102 0 -160 45q-61 45 -61 143q47 9 67 33q17 23 17 62q-4 96 -105 100q-61 -2 -92 -43q-35 -45 -35 -104zM1648.5 1565q0.5 3 0.5 11 v4t1 9t2 9.5t1 5.5q11 17 17.5 25.5t12.5 15t13.5 13.5t21.5 21q42 25 71 46t36 34q4 6 7.5 9.5t7.5 9t8.5 15t9.5 26.5q5 15 -0.5 33t-27.5 23q-20 3 -33.5 3t-39.5 -7q-11 -5 -24 -9t-15 -10q6 -2 13.5 -7.5t12.5 -15t6.5 -22.5t-4.5 -29q-5 -19 -16.5 -28t-37.5 -4 q-14 3 -21.5 10.5t-11.5 17t-4.5 19.5t0.5 16q5 25 24 43.5t49 32.5q58 24 112 14q49 -11 76 -44t17 -81q-5 -36 -33.5 -64t-79.5 -45l-30 -10l-12 -4q-7 -2 -10 -3t-4.5 -2.5t-4 -2.5t-9.5 -3q-23 -6 -40 -16t-26 -20q1 0 0 -1q-2 -2 -6 -10q0 -3 -1 -6l-2 -4l-2 -4 q-2 -2 -3.5 -6.5t-3.5 -6.5q-4 -6 -11 -6q-7 2 -6.5 5z" />
<glyph unicode="&#x1ec9;" horiz-adv-x="530" d="M-33 113q2 -60 39 -95q35 -36 103 -38q71 0 159 49q86 49 201 163q182 187 305 340l-18 13q-88 -109 -285 -316q-111 -112 -186 -159q-76 -52 -117 -50q-37 3 -37 56q-4 84 367 645l-211 -10q-178 -281 -250 -404q-70 -123 -70 -194zM428.5 823q0.5 3 0.5 11v4t1 9t2 9.5 t1 5.5q11 17 17.5 25.5t12.5 15t13.5 13.5t21.5 21q42 25 71 46t36 34q4 6 7.5 9.5t7.5 9t8.5 15t9.5 26.5q5 15 -0.5 33t-27.5 23q-20 3 -33.5 3t-39.5 -7q-11 -5 -24 -9t-15 -10q6 -2 13.5 -7.5t12.5 -15t6.5 -22.5t-4.5 -29q-5 -19 -16.5 -28t-37.5 -4q-14 3 -21.5 10.5 t-11.5 17t-4.5 19.5t0.5 16q5 25 24 43.5t49 32.5q58 24 112 14q49 -11 76 -44t17 -81q-5 -36 -33.5 -64t-79.5 -45l-30 -10l-12 -4q-7 -2 -10 -3t-4.5 -2.5t-4 -2.5t-9.5 -3q-23 -6 -40 -16t-26 -20q1 0 0 -1q-2 -2 -6 -10q0 -3 -1 -6l-2 -4l-2 -4q-2 -2 -3.5 -6.5 t-3.5 -6.5q-4 -6 -11 -6q-7 2 -6.5 5z" />
<glyph unicode="&#x1eca;" horiz-adv-x="1251" d="M-109 240q0 59 35 104q31 41 92 43q101 -4 105 -100q0 -39 -17 -62q-20 -24 -67 -33q0 -98 61 -143q58 -45 160 -45q277 6 453 250q174 237 331 539q115 215 279 368q162 152 495 268v4q-145 3 -372 -12q-228 -16 -461 -69q-233 -54 -393 -172q-164 -117 -168 -324 q0 -90 55 -143q49 -58 139 -58q113 0 197 84q86 80 88 207q-2 64 -29 117l21 4q31 -49 33 -121q-2 -160 -117 -248q-117 -92 -279 -92q-118 0 -198 74q-82 70 -82 192q2 189 156 308q149 116 376 176q490 106 903 102q138 0 222 12q82 9 122 9q27 0 46 -9q16 -8 16 -24 q0 -19 -21 -25q-20 -8 -47 -8q-14 0 -71 6q-58 4 -99 6q-186 -80 -307 -204q-119 -123 -205 -273q-82 -147 -165 -303q-86 -158 -203 -303q-131 -162 -301 -260q-170 -100 -377 -102q-59 0 -127 14q-70 12 -133 41q-62 31 -103 82q-40 49 -43 123zM259 -190q0 42 28 67 q26 26 64 26q41 0 66 -26q26 -25 26 -67q0 -37 -26 -63q-25 -26 -66 -28q-38 2 -64 28q-28 26 -28 63z" />
<glyph unicode="&#x1ecb;" horiz-adv-x="530" d="M-67 -190q0 42 28 67q26 26 64 26q41 0 66 -26q26 -25 26 -67q0 -37 -26 -63q-25 -26 -66 -28q-38 2 -64 28q-28 26 -28 63zM-33 113q0 71 70 194q72 123 250 404l211 10q-371 -561 -367 -645q0 -53 37 -56q41 -2 117 50q75 47 186 159q197 207 285 316l18 -13 q-123 -153 -305 -340q-115 -114 -201 -163q-88 -49 -159 -49q-68 2 -103 38q-37 35 -39 95zM498 1065q0 51 36 82q35 28 82 28q41 0 70 -26q29 -29 29 -70q-2 -41 -31 -74q-31 -34 -76 -34q-43 0 -76 24q-34 25 -34 70z" />
<glyph unicode="&#x1ecc;" horiz-adv-x="1517" d="M158 340q6 360 290 676q273 317 633 368q68 60 121 80q55 15 102 15q123 -2 183 -91q57 -90 57 -237q-2 -184 -90 -377q-88 -192 -197 -338q72 -26 152 -24q100 0 192 45q93 43 146 94l12 -14q-170 -150 -346 -150q-96 0 -174 29q-133 -172 -315 -305 q-185 -140 -408 -144q-201 4 -280 115q-80 108 -78 258zM323 -190q0 42 28 67q26 26 64 26q41 0 66 -26q26 -25 26 -67q0 -37 -26 -63q-25 -26 -66 -28q-38 2 -64 28q-28 26 -28 63zM367 322q-2 -127 45 -220q45 -96 161 -98q91 0 181 45q88 41 165 111q162 143 242 291 q-272 157 -276 475q2 247 172 428l-4 4q-152 -33 -277 -142q-127 -110 -219 -264q-188 -321 -190 -630zM967 975q-2 -139 45 -281q24 -67 67 -125q41 -59 99 -96q196 330 202 696q0 111 -35 185q-36 73 -124 75q-72 -2 -111 -45q92 -4 127 -53q33 -51 33 -117 q-2 -45 -11 -75l-22 2q8 32 8 75q0 62 -33 105q-37 43 -125 39q-59 -68 -90 -176q-30 -109 -30 -209z" />
<glyph unicode="&#x1ecd;" d="M8 209q0 113 60 211q53 96 141 172q186 158 401 162q111 -2 176 -60q64 -57 76 -143q12 -62 49 -96q35 -39 90 -39q105 0 209 131l13 -17q-41 -55 -97 -94q-55 -45 -125 -45q-90 0 -145 78q-51 -209 -215 -352q-164 -146 -385 -150q-113 2 -178 68q-70 63 -70 174z M113 -190q0 42 28 67q26 26 64 26q41 0 66 -26q26 -25 26 -67q0 -37 -26 -63q-25 -26 -66 -28q-38 2 -64 28q-28 26 -28 63zM180 100q0 -106 90 -108q82 2 156 76q74 71 133 176q127 225 131 376q0 107 -90 109q-78 -2 -149 -72q-74 -71 -138 -176q-131 -229 -133 -381z" />
<glyph unicode="&#x1ece;" horiz-adv-x="1517" d="M158 340q-2 -150 78 -258q79 -111 280 -115q223 4 408 144q182 133 315 305q78 -29 174 -29q176 0 346 150l-12 14q-53 -51 -146 -94q-92 -45 -192 -45q-80 -2 -152 24q109 146 197 338q88 193 90 377q0 147 -57 237q-60 89 -183 91q-47 0 -102 -15q-53 -20 -121 -80 q-360 -51 -633 -368q-284 -316 -290 -676zM367 322q2 309 190 630q92 154 219 264q125 109 277 142l4 -4q-170 -181 -172 -428q4 -318 276 -475q-80 -148 -242 -291q-77 -70 -165 -111q-90 -45 -181 -45q-116 2 -161 98q-47 93 -45 220zM967 975q0 100 30 209q31 108 90 176 q88 4 125 -39q33 -43 33 -105q0 -43 -8 -75l22 -2q9 30 11 75q0 66 -33 117q-35 49 -127 53q39 43 111 45q88 -2 124 -75q35 -74 35 -185q-6 -366 -202 -696q-58 37 -99 96q-43 58 -67 125q-47 142 -45 281zM1183.5 1565q0.5 3 0.5 11v4t1 9t2 9.5t1 5.5q11 17 17.5 25.5 t12.5 15t13.5 13.5t21.5 21q42 25 71 46t36 34q4 6 7.5 9.5t7.5 9t8.5 15t9.5 26.5q5 15 -0.5 33t-27.5 23q-20 3 -33.5 3t-39.5 -7q-11 -5 -24 -9t-15 -10q6 -2 13.5 -7.5t12.5 -15t6.5 -22.5t-4.5 -29q-5 -19 -16.5 -28t-37.5 -4q-14 3 -21.5 10.5t-11.5 17t-4.5 19.5 t0.5 16q5 25 24 43.5t49 32.5q58 24 112 14q49 -11 76 -44t17 -81q-5 -36 -33.5 -64t-79.5 -45l-30 -10l-12 -4q-7 -2 -10 -3t-4.5 -2.5t-4 -2.5t-9.5 -3q-23 -6 -40 -16t-26 -20q1 0 0 -1q-2 -2 -6 -10q0 -3 -1 -6l-2 -4l-2 -4q-2 -2 -3.5 -6.5t-3.5 -6.5q-4 -6 -11 -6 q-7 2 -6.5 5z" />
<glyph unicode="&#x1ecf;" d="M8 209q0 -111 70 -174q65 -66 178 -68q221 4 385 150q164 143 215 352q55 -78 145 -78q70 0 125 45q56 39 97 94l-13 17q-104 -131 -209 -131q-55 0 -90 39q-37 34 -49 96q-12 86 -76 143q-65 58 -176 60q-215 -4 -401 -162q-88 -76 -141 -172q-60 -98 -60 -211zM180 100 q2 152 133 381q64 105 138 176q71 70 149 72q90 -2 90 -109q-4 -151 -131 -376q-59 -105 -133 -176q-74 -74 -156 -76q-90 2 -90 108zM625.5 823q0.5 3 0.5 11v4t1 9t2 9.5t1 5.5q11 17 17.5 25.5t12.5 15t13.5 13.5t21.5 21q42 25 71 46t36 34q4 6 7.5 9.5t7.5 9t8.5 15 t9.5 26.5q5 15 -0.5 33t-27.5 23q-20 3 -33.5 3t-39.5 -7q-11 -5 -24 -9t-15 -10q6 -2 13.5 -7.5t12.5 -15t6.5 -22.5t-4.5 -29q-5 -19 -16.5 -28t-37.5 -4q-14 3 -21.5 10.5t-11.5 17t-4.5 19.5t0.5 16q5 25 24 43.5t49 32.5q58 24 112 14q49 -11 76 -44t17 -81 q-5 -36 -33.5 -64t-79.5 -45l-30 -10l-12 -4q-7 -2 -10 -3t-4.5 -2.5t-4 -2.5t-9.5 -3q-23 -6 -40 -16t-26 -20q1 0 0 -1q-2 -2 -6 -10q0 -3 -1 -6l-2 -4l-2 -4q-2 -2 -3.5 -6.5t-3.5 -6.5q-4 -6 -11 -6q-7 2 -6.5 5z" />
<glyph unicode="&#x1ed0;" horiz-adv-x="1517" d="M158 340q6 360 290 676q273 317 633 368q68 60 121 80q55 15 102 15q123 -2 183 -91q57 -90 57 -237q-2 -184 -90 -377q-88 -192 -197 -338q72 -26 152 -24q100 0 192 45q93 43 146 94l12 -14q-170 -150 -346 -150q-96 0 -174 29q-133 -172 -315 -305 q-185 -140 -408 -144q-201 4 -280 115q-80 108 -78 258zM367 322q-2 -127 45 -220q45 -96 161 -98q91 0 181 45q88 41 165 111q162 143 242 291q-272 157 -276 475q2 247 172 428l-4 4q-152 -33 -277 -142q-127 -110 -219 -264q-188 -321 -190 -630zM967 975 q-2 -139 45 -281q24 -67 67 -125q41 -59 99 -96q196 330 202 696q0 111 -35 185q-36 73 -124 75q-72 -2 -111 -45q92 -4 127 -53q33 -51 33 -117q-2 -45 -11 -75l-22 2q8 32 8 75q0 62 -33 105q-37 43 -125 39q-59 -68 -90 -176q-30 -109 -30 -209zM1073 1542l5 10 q110 78 212.5 159t191.5 160h34q5 0 9.5 -7t4.5 -12q-22 -73 -36 -147t-14 -142v-25q0 -1 0.5 -2t0.5 -3q0 -4 -3 -8t-5 -5l-19 -11q-5 -3 -12 0t-9 8q-11 35 -17.5 85.5t-8.5 111.5q-75 -54 -151.5 -103.5t-158.5 -97.5q-4 -1 -10 0t-8 5zM1575 1756q0 12 26 33 q23 18 54 47q32 31 61 67q27 37 37 80q8 37 26 80q15 41 45 43q64 -2 66 -65q-2 -47 -37 -97q-39 -51 -92 -98q-53 -45 -100 -74q-52 -30 -74 -30q-12 0 -12 14z" />
<glyph unicode="&#x1ed1;" d="M8 209q0 113 60 211q53 96 141 172q186 158 401 162q111 -2 176 -60q64 -57 76 -143q12 -62 49 -96q35 -39 90 -39q105 0 209 131l13 -17q-41 -55 -97 -94q-55 -45 -125 -45q-90 0 -145 78q-51 -209 -215 -352q-164 -146 -385 -150q-113 2 -178 68q-70 63 -70 174z M180 100q0 -106 90 -108q82 2 156 76q74 71 133 176q127 225 131 376q0 107 -90 109q-78 -2 -149 -72q-74 -71 -138 -176q-131 -229 -133 -381zM429 824l5 10q110 78 212.5 159t191.5 160h34q5 0 9.5 -7t4.5 -12q-22 -73 -36 -147t-14 -142v-25q0 -1 0.5 -2t0.5 -3 q0 -4 -3 -8t-5 -5l-19 -11q-5 -3 -12 0t-9 8q-11 35 -17.5 85.5t-8.5 111.5q-75 -54 -151.5 -103.5t-158.5 -97.5q-4 -1 -10 0t-8 5zM931 1038q0 12 26 33q23 18 54 47q32 31 61 67q27 37 37 80q8 37 26 80q15 41 45 43q64 -2 66 -65q-2 -47 -37 -97q-39 -51 -92 -98 q-53 -45 -100 -74q-52 -30 -74 -30q-12 0 -12 14z" />
<glyph unicode="&#x1ed2;" horiz-adv-x="1517" d="M158 340q6 360 290 676q273 317 633 368q68 60 121 80q55 15 102 15q123 -2 183 -91q57 -90 57 -237q-2 -184 -90 -377q-88 -192 -197 -338q72 -26 152 -24q100 0 192 45q93 43 146 94l12 -14q-170 -150 -346 -150q-96 0 -174 29q-133 -172 -315 -305 q-185 -140 -408 -144q-201 4 -280 115q-80 108 -78 258zM367 322q-2 -127 45 -220q45 -96 161 -98q91 0 181 45q88 41 165 111q162 143 242 291q-272 157 -276 475q2 247 172 428l-4 4q-152 -33 -277 -142q-127 -110 -219 -264q-188 -321 -190 -630zM967 975 q-2 -139 45 -281q24 -67 67 -125q41 -59 99 -96q196 330 202 696q0 111 -35 185q-36 73 -124 75q-72 -2 -111 -45q92 -4 127 -53q33 -51 33 -117q-2 -45 -11 -75l-22 2q8 32 8 75q0 62 -33 105q-37 43 -125 39q-59 -68 -90 -176q-30 -109 -30 -209zM1073 1542l5 10 q110 78 212.5 159t191.5 160h34q5 0 9.5 -7t4.5 -12q-22 -73 -36 -147t-14 -142v-25q0 -1 0.5 -2t0.5 -3q0 -4 -3 -8t-5 -5l-19 -11q-5 -3 -12 0t-9 8q-11 35 -17.5 85.5t-8.5 111.5q-75 -54 -151.5 -103.5t-158.5 -97.5q-4 -1 -10 0t-8 5zM1421 2114q0 63 65 65 q31 -2 49 -43q17 -43 23 -80q12 -43 41 -80q29 -36 59 -67q33 -29 56 -47q22 -21 22 -33q0 -14 -12 -14q-23 0 -70 30q-47 29 -102 74q-53 47 -90 98q-41 50 -41 97z" />
<glyph unicode="&#x1ed3;" d="M8 209q0 113 60 211q53 96 141 172q186 158 401 162q111 -2 176 -60q64 -57 76 -143q12 -62 49 -96q35 -39 90 -39q105 0 209 131l13 -17q-41 -55 -97 -94q-55 -45 -125 -45q-90 0 -145 78q-51 -209 -215 -352q-164 -146 -385 -150q-113 2 -178 68q-70 63 -70 174z M180 100q0 -106 90 -108q82 2 156 76q74 71 133 176q127 225 131 376q0 107 -90 109q-78 -2 -149 -72q-74 -71 -138 -176q-131 -229 -133 -381zM429 824l5 10q110 78 212.5 159t191.5 160h34q5 0 9.5 -7t4.5 -12q-22 -73 -36 -147t-14 -142v-25q0 -1 0.5 -2t0.5 -3 q0 -4 -3 -8t-5 -5l-19 -11q-5 -3 -12 0t-9 8q-11 35 -17.5 85.5t-8.5 111.5q-75 -54 -151.5 -103.5t-158.5 -97.5q-4 -1 -10 0t-8 5zM777 1396q0 63 65 65q31 -2 49 -43q17 -43 23 -80q12 -43 41 -80q29 -36 59 -67q33 -29 56 -47q22 -21 22 -33q0 -14 -12 -14q-23 0 -70 30 q-47 29 -102 74q-53 47 -90 98q-41 50 -41 97z" />
<glyph unicode="&#x1ed4;" horiz-adv-x="1517" d="M158 340q-2 -150 78 -258q79 -111 280 -115q223 4 408 144q182 133 315 305q78 -29 174 -29q176 0 346 150l-12 14q-53 -51 -146 -94q-92 -45 -192 -45q-80 -2 -152 24q109 146 197 338q88 193 90 377q0 147 -57 237q-60 89 -183 91q-47 0 -102 -15q-53 -20 -121 -80 q-360 -51 -633 -368q-284 -316 -290 -676zM367 322q2 309 190 630q92 154 219 264q125 109 277 142l4 -4q-170 -181 -172 -428q4 -318 276 -475q-80 -148 -242 -291q-77 -70 -165 -111q-90 -45 -181 -45q-116 2 -161 98q-47 93 -45 220zM967 975q0 100 30 209q31 108 90 176 q88 4 125 -39q33 -43 33 -105q0 -43 -8 -75l22 -2q9 30 11 75q0 66 -33 117q-35 49 -127 53q39 43 111 45q88 -2 124 -75q35 -74 35 -185q-6 -366 -202 -696q-58 37 -99 96q-43 58 -67 125q-47 142 -45 281zM1073 1542l6 -24q2 -4 8 -5t10 0q82 48 158.5 97.5t151.5 103.5 q2 -61 8.5 -111.5t17.5 -85.5q2 -5 9 -8t12 0l19 11q2 1 5 5t3 8q0 2 -0.5 3t-0.5 2v25q0 68 14 142t36 147q0 5 -4.5 12t-9.5 7h-34q-89 -79 -191.5 -160t-212.5 -159zM1559.5 1756q0.5 3 0.5 11v4t1 9t2 9.5t1 5.5q11 17 17.5 25.5t12.5 15t13.5 13.5t21.5 21q42 25 71 46 t36 34q4 6 7.5 9.5t7.5 9t8.5 15t9.5 26.5q5 15 -0.5 33t-27.5 23q-20 3 -33.5 3t-39.5 -7q-11 -5 -24 -9t-15 -10q6 -2 13.5 -7.5t12.5 -15t6.5 -22.5t-4.5 -29q-5 -19 -16.5 -28t-37.5 -4q-14 3 -21.5 10.5t-11.5 17t-4.5 19.5t0.5 16q5 25 24 43.5t49 32.5q58 24 112 14 q49 -11 76 -44t17 -81q-5 -36 -33.5 -64t-79.5 -45l-30 -10l-12 -4q-7 -2 -10 -3t-4.5 -2.5t-4 -2.5t-9.5 -3q-23 -6 -40 -16t-26 -20q1 0 0 -1q-2 -2 -6 -10q0 -3 -1 -6l-2 -4l-2 -4q-2 -2 -3.5 -6.5t-3.5 -6.5q-4 -6 -11 -6q-7 2 -6.5 5z" />
<glyph unicode="&#x1ed5;" d="M8 209q0 -111 70 -174q65 -66 178 -68q221 4 385 150q164 143 215 352q55 -78 145 -78q70 0 125 45q56 39 97 94l-13 17q-104 -131 -209 -131q-55 0 -90 39q-37 34 -49 96q-12 86 -76 143q-65 58 -176 60q-215 -4 -401 -162q-88 -76 -141 -172q-60 -98 -60 -211zM180 100 q2 152 133 381q64 105 138 176q71 70 149 72q90 -2 90 -109q-4 -151 -131 -376q-59 -105 -133 -176q-74 -74 -156 -76q-90 2 -90 108zM429 824l6 -24q2 -4 8 -5t10 0q82 48 158.5 97.5t151.5 103.5q2 -61 8.5 -111.5t17.5 -85.5q2 -5 9 -8t12 0l19 11q2 1 5 5t3 8 q0 2 -0.5 3t-0.5 2v25q0 68 14 142t36 147q0 5 -4.5 12t-9.5 7h-34q-89 -79 -191.5 -160t-212.5 -159zM915.5 1038q0.5 3 0.5 11v4t1 9t2 9.5t1 5.5q11 17 17.5 25.5t12.5 15t13.5 13.5t21.5 21q42 25 71 46t36 34q4 6 7.5 9.5t7.5 9t8.5 15t9.5 26.5q5 15 -0.5 33t-27.5 23 q-20 3 -33.5 3t-39.5 -7q-11 -5 -24 -9t-15 -10q6 -2 13.5 -7.5t12.5 -15t6.5 -22.5t-4.5 -29q-5 -19 -16.5 -28t-37.5 -4q-14 3 -21.5 10.5t-11.5 17t-4.5 19.5t0.5 16q5 25 24 43.5t49 32.5q58 24 112 14q49 -11 76 -44t17 -81q-5 -36 -33.5 -64t-79.5 -45l-30 -10l-12 -4 q-7 -2 -10 -3t-4.5 -2.5t-4 -2.5t-9.5 -3q-23 -6 -40 -16t-26 -20q1 0 0 -1q-2 -2 -6 -10q0 -3 -1 -6l-2 -4l-2 -4q-2 -2 -3.5 -6.5t-3.5 -6.5q-4 -6 -11 -6q-7 2 -6.5 5z" />
<glyph unicode="&#x1ed6;" horiz-adv-x="1517" d="M158 340q6 360 290 676q273 317 633 368q68 60 121 80q55 15 102 15q123 -2 183 -91q57 -90 57 -237q-2 -184 -90 -377q-88 -192 -197 -338q72 -26 152 -24q100 0 192 45q93 43 146 94l12 -14q-170 -150 -346 -150q-96 0 -174 29q-133 -172 -315 -305 q-185 -140 -408 -144q-201 4 -280 115q-80 108 -78 258zM367 322q-2 -127 45 -220q45 -96 161 -98q91 0 181 45q88 41 165 111q162 143 242 291q-272 157 -276 475q2 247 172 428l-4 4q-152 -33 -277 -142q-127 -110 -219 -264q-188 -321 -190 -630zM967 975 q-2 -139 45 -281q24 -67 67 -125q41 -59 99 -96q196 330 202 696q0 111 -35 185q-36 73 -124 75q-72 -2 -111 -45q92 -4 127 -53q33 -51 33 -117q-2 -45 -11 -75l-22 2q8 32 8 75q0 62 -33 105q-37 43 -125 39q-59 -68 -90 -176q-30 -109 -30 -209zM1073 1542l5 10 q110 78 212.5 159t191.5 160h34q5 0 9.5 -7t4.5 -12q-22 -73 -36 -147t-14 -142v-25q0 -1 0.5 -2t0.5 -3q0 -4 -3 -8t-5 -5l-19 -11q-5 -3 -12 0t-9 8q-11 35 -17.5 85.5t-8.5 111.5q-75 -54 -151.5 -103.5t-158.5 -97.5q-4 -1 -10 0t-8 5zM1249 1899q33 58 93 110 q61 53 123 54q75 -3 118 -32q24 -12 47 -20q21 -12 47 -12q43 0 79 22q36 21 67 60h30q-38 -60 -100 -110q-64 -54 -131 -55q-32 0 -57 12q-27 9 -53 20q-43 32 -101 33q-38 0 -72 -24q-35 -24 -66 -58h-24z" />
<glyph unicode="&#x1ed7;" d="M8 209q0 113 60 211q53 96 141 172q186 158 401 162q111 -2 176 -60q64 -57 76 -143q12 -62 49 -96q35 -39 90 -39q105 0 209 131l13 -17q-41 -55 -97 -94q-55 -45 -125 -45q-90 0 -145 78q-51 -209 -215 -352q-164 -146 -385 -150q-113 2 -178 68q-70 63 -70 174z M180 100q0 -106 90 -108q82 2 156 76q74 71 133 176q127 225 131 376q0 107 -90 109q-78 -2 -149 -72q-74 -71 -138 -176q-131 -229 -133 -381zM429 824l5 10q110 78 212.5 159t191.5 160h34q5 0 9.5 -7t4.5 -12q-22 -73 -36 -147t-14 -142v-25q0 -1 0.5 -2t0.5 -3 q0 -4 -3 -8t-5 -5l-19 -11q-5 -3 -12 0t-9 8q-11 35 -17.5 85.5t-8.5 111.5q-75 -54 -151.5 -103.5t-158.5 -97.5q-4 -1 -10 0t-8 5zM606 1181q33 58 93 110q61 53 123 54q75 -3 118 -32q24 -12 47 -20q21 -12 47 -12q43 0 79 22q36 21 67 60h30q-38 -60 -100 -110 q-64 -54 -131 -55q-32 0 -57 12q-27 9 -53 20q-43 32 -101 33q-38 0 -72 -24q-35 -24 -66 -58h-24z" />
<glyph unicode="&#x1ed8;" horiz-adv-x="1517" d="M158 340q6 360 290 676q273 317 633 368q68 60 121 80q55 15 102 15q123 -2 183 -91q57 -90 57 -237q-2 -184 -90 -377q-88 -192 -197 -338q72 -26 152 -24q100 0 192 45q93 43 146 94l12 -14q-170 -150 -346 -150q-96 0 -174 29q-133 -172 -315 -305 q-185 -140 -408 -144q-201 4 -280 115q-80 108 -78 258zM323 -190q0 42 28 67q26 26 64 26q41 0 66 -26q26 -25 26 -67q0 -37 -26 -63q-25 -26 -66 -28q-38 2 -64 28q-28 26 -28 63zM367 322q-2 -127 45 -220q45 -96 161 -98q91 0 181 45q88 41 165 111q162 143 242 291 q-272 157 -276 475q2 247 172 428l-4 4q-152 -33 -277 -142q-127 -110 -219 -264q-188 -321 -190 -630zM967 975q-2 -139 45 -281q24 -67 67 -125q41 -59 99 -96q196 330 202 696q0 111 -35 185q-36 73 -124 75q-72 -2 -111 -45q92 -4 127 -53q33 -51 33 -117 q-2 -45 -11 -75l-22 2q8 32 8 75q0 62 -33 105q-37 43 -125 39q-59 -68 -90 -176q-30 -109 -30 -209zM1073 1542l5 10q110 78 212.5 159t191.5 160h34q5 0 9.5 -7t4.5 -12q-22 -73 -36 -147t-14 -142v-25q0 -1 0.5 -2t0.5 -3q0 -4 -3 -8t-5 -5l-19 -11q-5 -3 -12 0t-9 8 q-11 35 -17.5 85.5t-8.5 111.5q-75 -54 -151.5 -103.5t-158.5 -97.5q-4 -1 -10 0t-8 5z" />
<glyph unicode="&#x1ed9;" d="M8 209q0 113 60 211q53 96 141 172q186 158 401 162q111 -2 176 -60q64 -57 76 -143q12 -62 49 -96q35 -39 90 -39q105 0 209 131l13 -17q-41 -55 -97 -94q-55 -45 -125 -45q-90 0 -145 78q-51 -209 -215 -352q-164 -146 -385 -150q-113 2 -178 68q-70 63 -70 174z M113 -190q0 42 28 67q26 26 64 26q41 0 66 -26q26 -25 26 -67q0 -37 -26 -63q-25 -26 -66 -28q-38 2 -64 28q-28 26 -28 63zM180 100q0 -106 90 -108q82 2 156 76q74 71 133 176q127 225 131 376q0 107 -90 109q-78 -2 -149 -72q-74 -71 -138 -176q-131 -229 -133 -381z M429 824l5 10q110 78 212.5 159t191.5 160h34q5 0 9.5 -7t4.5 -12q-22 -73 -36 -147t-14 -142v-25q0 -1 0.5 -2t0.5 -3q0 -4 -3 -8t-5 -5l-19 -11q-5 -3 -12 0t-9 8q-11 35 -17.5 85.5t-8.5 111.5q-75 -54 -151.5 -103.5t-158.5 -97.5q-4 -1 -10 0t-8 5z" />
<glyph unicode="&#x1eda;" horiz-adv-x="1517" d="M158 340q6 360 290 676q273 317 633 368q68 60 121 80q55 15 102 15q123 -2 183 -91q7 -12 14 -25q48 27 70 78q-14 2 -28 6q-13 4 -28 14q-28 18 -29 52q-3 35 21 66q33 48 79 54q44 6 79 -2q62 -17 58 -85q6 -47 -33 -103q-51 -71 -126 -103q-22 -10 -46 -18 q26 -73 26 -171q-2 -184 -90 -377q-88 -192 -197 -338q72 -26 152 -24q100 0 192 45q93 43 146 94l12 -14q-170 -150 -346 -150q-96 0 -174 29q-133 -172 -315 -305q-185 -140 -408 -144q-201 4 -280 115q-80 108 -78 258zM367 322q-2 -127 45 -220q45 -96 161 -98 q91 0 181 45q88 41 165 111q162 143 242 291q-272 157 -276 475q2 247 172 428l-4 4q-152 -33 -277 -142q-127 -110 -219 -264q-188 -321 -190 -630zM967 975q-2 -139 45 -281q24 -67 67 -125q41 -59 99 -96q196 330 202 696q0 111 -35 185q-36 73 -124 75q-72 -2 -111 -45 q92 -4 127 -53q33 -51 33 -117q-2 -45 -11 -75l-22 2q8 32 8 75q0 62 -33 105q-37 43 -125 39q-59 -68 -90 -176q-30 -109 -30 -209zM1135 1536q0 12 26 33q23 18 54 47q32 31 61 67q27 37 37 80q8 37 26 80q15 41 45 43q64 -2 66 -65q-2 -47 -37 -97q-39 -51 -92 -98 q-53 -45 -100 -74q-52 -30 -74 -30q-12 0 -12 14z" />
<glyph unicode="&#x1edb;" d="M8 209q0 113 60 211q53 96 141 172q186 158 401 162q111 -2 176 -60q23 -21 40 -46q49 24 70 72q-13 2 -25 6q-13 4 -26 13q-26 16 -27 48q-3 32 19 61q31 44 73 49q41 6 73 -2q57 -15 53 -78q6 -43 -30 -95q-47 -65 -116 -94q-22 -10 -44 -18q11 -28 16 -59 q12 -62 49 -96q35 -39 90 -39q105 0 209 131l13 -17q-41 -55 -97 -94q-55 -45 -125 -45q-90 0 -145 78q-51 -209 -215 -352q-164 -146 -385 -150q-113 2 -178 68q-70 63 -70 174zM180 100q0 -106 90 -108q82 2 156 76q74 71 133 176q127 225 131 376q0 107 -90 109 q-78 -2 -149 -72q-74 -71 -138 -176q-131 -229 -133 -381zM521 813q0 12 26 33q23 18 54 47q32 31 61 67q27 37 37 80q8 37 26 80q15 41 45 43q64 -2 66 -65q-2 -47 -37 -97q-39 -51 -92 -98q-53 -45 -100 -74q-52 -30 -74 -30q-12 0 -12 14z" />
<glyph unicode="&#x1edc;" horiz-adv-x="1517" d="M158 340q6 360 290 676q273 317 633 368q68 60 121 80q55 15 102 15q123 -2 183 -91q7 -12 14 -25q48 27 70 78q-14 2 -28 6q-13 4 -28 14q-28 18 -29 52q-3 35 21 66q33 48 79 54q44 6 79 -2q62 -17 58 -85q6 -47 -33 -103q-51 -71 -126 -103q-22 -10 -46 -18 q26 -73 26 -171q-2 -184 -90 -377q-88 -192 -197 -338q72 -26 152 -24q100 0 192 45q93 43 146 94l12 -14q-170 -150 -346 -150q-96 0 -174 29q-133 -172 -315 -305q-185 -140 -408 -144q-201 4 -280 115q-80 108 -78 258zM367 322q-2 -127 45 -220q45 -96 161 -98 q91 0 181 45q88 41 165 111q162 143 242 291q-272 157 -276 475q2 247 172 428l-4 4q-152 -33 -277 -142q-127 -110 -219 -264q-188 -321 -190 -630zM967 975q-2 -139 45 -281q24 -67 67 -125q41 -59 99 -96q196 330 202 696q0 111 -35 185q-36 73 -124 75q-72 -2 -111 -45 q92 -4 127 -53q33 -51 33 -117q-2 -45 -11 -75l-22 2q8 32 8 75q0 62 -33 105q-37 43 -125 39q-59 -68 -90 -176q-30 -109 -30 -209zM1069 1821q0 63 65 65q31 -2 49 -43q17 -43 23 -80q12 -43 41 -80q29 -36 59 -67q33 -29 56 -47q22 -21 22 -33q0 -14 -12 -14 q-23 0 -70 30q-47 29 -102 74q-53 47 -90 98q-41 50 -41 97z" />
<glyph unicode="&#x1edd;" d="M8 209q0 113 60 211q53 96 141 172q186 158 401 162q111 -2 176 -60q23 -21 40 -46q49 24 70 72q-13 2 -25 6q-13 4 -26 13q-26 16 -27 48q-3 32 19 61q31 44 73 49q41 6 73 -2q57 -15 53 -78q6 -43 -30 -95q-47 -65 -116 -94q-22 -10 -44 -18q11 -28 16 -59 q12 -62 49 -96q35 -39 90 -39q105 0 209 131l13 -17q-41 -55 -97 -94q-55 -45 -125 -45q-90 0 -145 78q-51 -209 -215 -352q-164 -146 -385 -150q-113 2 -178 68q-70 63 -70 174zM180 100q0 -106 90 -108q82 2 156 76q74 71 133 176q127 225 131 376q0 107 -90 109 q-78 -2 -149 -72q-74 -71 -138 -176q-131 -229 -133 -381zM418 1097q0 63 65 65q31 -2 49 -43q17 -43 23 -80q12 -43 41 -80q29 -36 59 -67q33 -29 56 -47q22 -21 22 -33q0 -14 -12 -14q-23 0 -70 30q-47 29 -102 74q-53 47 -90 98q-41 50 -41 97z" />
<glyph unicode="&#x1ede;" horiz-adv-x="1517" d="M158 340q-2 -150 78 -258q79 -111 280 -115q223 4 408 144q182 133 315 305q78 -29 174 -29q176 0 346 150l-12 14q-53 -51 -146 -94q-92 -45 -192 -45q-80 -2 -152 24q109 146 197 338q88 193 90 377q0 98 -26 171q24 8 46 18q75 32 126 103q39 56 33 103q4 68 -58 85 q-35 8 -79 2q-46 -6 -79 -54q-24 -31 -21 -66q1 -34 29 -52q15 -10 28 -14q14 -4 28 -6q-22 -51 -70 -78q-7 13 -14 25q-60 89 -183 91q-47 0 -102 -15q-53 -20 -121 -80q-360 -51 -633 -368q-284 -316 -290 -676zM367 322q2 309 190 630q92 154 219 264q125 109 277 142 l4 -4q-170 -181 -172 -428q4 -318 276 -475q-80 -148 -242 -291q-77 -70 -165 -111q-90 -45 -181 -45q-116 2 -161 98q-47 93 -45 220zM967 975q0 100 30 209q31 108 90 176q88 4 125 -39q33 -43 33 -105q0 -43 -8 -75l22 -2q9 30 11 75q0 66 -33 117q-35 49 -127 53 q39 43 111 45q88 -2 124 -75q35 -74 35 -185q-6 -366 -202 -696q-58 37 -99 96q-43 58 -67 125q-47 142 -45 281zM1183.5 1565q0.5 3 0.5 11v4t1 9t2 9.5t1 5.5q11 17 17.5 25.5t12.5 15t13.5 13.5t21.5 21q42 25 71 46t36 34q4 6 7.5 9.5t7.5 9t8.5 15t9.5 26.5 q5 15 -0.5 33t-27.5 23q-20 3 -33.5 3t-39.5 -7q-11 -5 -24 -9t-15 -10q6 -2 13.5 -7.5t12.5 -15t6.5 -22.5t-4.5 -29q-5 -19 -16.5 -28t-37.5 -4q-14 3 -21.5 10.5t-11.5 17t-4.5 19.5t0.5 16q5 25 24 43.5t49 32.5q58 24 112 14q49 -11 76 -44t17 -81q-5 -36 -33.5 -64 t-79.5 -45l-30 -10l-12 -4q-7 -2 -10 -3t-4.5 -2.5t-4 -2.5t-9.5 -3q-23 -6 -40 -16t-26 -20q1 0 0 -1q-2 -2 -6 -10q0 -3 -1 -6l-2 -4l-2 -4q-2 -2 -3.5 -6.5t-3.5 -6.5q-4 -6 -11 -6q-7 2 -6.5 5z" />
<glyph unicode="&#x1edf;" d="M8 209q0 -111 70 -174q65 -66 178 -68q221 4 385 150q164 143 215 352q55 -78 145 -78q70 0 125 45q56 39 97 94l-13 17q-104 -131 -209 -131q-55 0 -90 39q-37 34 -49 96q-5 31 -16 59q22 8 44 18q69 29 116 94q36 52 30 95q4 63 -53 78q-32 8 -73 2q-42 -5 -73 -49 q-22 -29 -19 -61q1 -32 27 -48q13 -9 26 -13q12 -4 25 -6q-21 -48 -70 -72q-17 25 -40 46q-65 58 -176 60q-215 -4 -401 -162q-88 -76 -141 -172q-60 -98 -60 -211zM180 100q2 152 133 381q64 105 138 176q71 70 149 72q90 -2 90 -109q-4 -151 -131 -376q-59 -105 -133 -176 q-74 -74 -156 -76q-90 2 -90 108zM625.5 823q0.5 3 0.5 11v4t1 9t2 9.5t1 5.5q11 17 17.5 25.5t12.5 15t13.5 13.5t21.5 21q42 25 71 46t36 34q4 6 7.5 9.5t7.5 9t8.5 15t9.5 26.5q5 15 -0.5 33t-27.5 23q-20 3 -33.5 3t-39.5 -7q-11 -5 -24 -9t-15 -10q6 -2 13.5 -7.5 t12.5 -15t6.5 -22.5t-4.5 -29q-5 -19 -16.5 -28t-37.5 -4q-14 3 -21.5 10.5t-11.5 17t-4.5 19.5t0.5 16q5 25 24 43.5t49 32.5q58 24 112 14q49 -11 76 -44t17 -81q-5 -36 -33.5 -64t-79.5 -45l-30 -10l-12 -4q-7 -2 -10 -3t-4.5 -2.5t-4 -2.5t-9.5 -3q-23 -6 -40 -16 t-26 -20q1 0 0 -1q-2 -2 -6 -10q0 -3 -1 -6l-2 -4l-2 -4q-2 -2 -3.5 -6.5t-3.5 -6.5q-4 -6 -11 -6q-7 2 -6.5 5z" />
<glyph unicode="&#x1ee0;" horiz-adv-x="1517" d="M158 340q6 360 290 676q273 317 633 368q68 60 121 80q55 15 102 15q123 -2 183 -91q7 -12 14 -25q48 27 70 78q-14 2 -28 6q-13 4 -28 14q-28 18 -29 52q-3 35 21 66q33 48 79 54q44 6 79 -2q62 -17 58 -85q6 -47 -33 -103q-51 -71 -126 -103q-22 -10 -46 -18 q26 -73 26 -171q-2 -184 -90 -377q-88 -192 -197 -338q72 -26 152 -24q100 0 192 45q93 43 146 94l12 -14q-170 -150 -346 -150q-96 0 -174 29q-133 -172 -315 -305q-185 -140 -408 -144q-201 4 -280 115q-80 108 -78 258zM367 322q-2 -127 45 -220q45 -96 161 -98 q91 0 181 45q88 41 165 111q162 143 242 291q-272 157 -276 475q2 247 172 428l-4 4q-152 -33 -277 -142q-127 -110 -219 -264q-188 -321 -190 -630zM967 975q-2 -139 45 -281q24 -67 67 -125q41 -59 99 -96q196 330 202 696q0 111 -35 185q-36 73 -124 75q-72 -2 -111 -45 q92 -4 127 -53q33 -51 33 -117q-2 -45 -11 -75l-22 2q8 32 8 75q0 62 -33 105q-37 43 -125 39q-59 -68 -90 -176q-30 -109 -30 -209zM982 1566q33 58 93 110q61 53 123 54q75 -3 118 -32q24 -12 47 -20q21 -12 47 -12q43 0 79 22q36 21 67 60h30q-38 -60 -100 -110 q-64 -54 -131 -55q-32 0 -57 12q-27 9 -53 20q-43 32 -101 33q-38 0 -72 -24q-35 -24 -66 -58h-24z" />
<glyph unicode="&#x1ee1;" d="M8 209q0 113 60 211q53 96 141 172q186 158 401 162q111 -2 176 -60q23 -21 40 -46q49 24 70 72q-13 2 -25 6q-13 4 -26 13q-26 16 -27 48q-3 32 19 61q31 44 73 49q41 6 73 -2q57 -15 53 -78q6 -43 -30 -95q-47 -65 -116 -94q-22 -10 -44 -18q11 -28 16 -59 q12 -62 49 -96q35 -39 90 -39q105 0 209 131l13 -17q-41 -55 -97 -94q-55 -45 -125 -45q-90 0 -145 78q-51 -209 -215 -352q-164 -146 -385 -150q-113 2 -178 68q-70 63 -70 174zM180 100q0 -106 90 -108q82 2 156 76q74 71 133 176q127 225 131 376q0 107 -90 109 q-78 -2 -149 -72q-74 -71 -138 -176q-131 -229 -133 -381zM407 891q33 58 93 110q61 53 123 54q75 -3 118 -32q24 -12 47 -20q21 -12 47 -12q43 0 79 22q36 21 67 60h30q-38 -60 -100 -110q-64 -54 -131 -55q-32 0 -57 12q-27 9 -53 20q-43 32 -101 33q-38 0 -72 -24 q-35 -24 -66 -58h-24z" />
<glyph unicode="&#x1ee2;" horiz-adv-x="1517" d="M158 340q6 360 290 676q273 317 633 368q68 60 121 80q55 15 102 15q123 -2 183 -91q7 -12 14 -25q48 27 70 78q-14 2 -28 6q-13 4 -28 14q-28 18 -29 52q-3 35 21 66q33 48 79 54q44 6 79 -2q62 -17 58 -85q6 -47 -33 -103q-51 -71 -126 -103q-22 -10 -46 -18 q26 -73 26 -171q-2 -184 -90 -377q-88 -192 -197 -338q72 -26 152 -24q100 0 192 45q93 43 146 94l12 -14q-170 -150 -346 -150q-96 0 -174 29q-133 -172 -315 -305q-185 -140 -408 -144q-201 4 -280 115q-80 108 -78 258zM323 -190q0 42 28 67q26 26 64 26q41 0 66 -26 q26 -25 26 -67q0 -37 -26 -63q-25 -26 -66 -28q-38 2 -64 28q-28 26 -28 63zM367 322q-2 -127 45 -220q45 -96 161 -98q91 0 181 45q88 41 165 111q162 143 242 291q-272 157 -276 475q2 247 172 428l-4 4q-152 -33 -277 -142q-127 -110 -219 -264q-188 -321 -190 -630z M967 975q-2 -139 45 -281q24 -67 67 -125q41 -59 99 -96q196 330 202 696q0 111 -35 185q-36 73 -124 75q-72 -2 -111 -45q92 -4 127 -53q33 -51 33 -117q-2 -45 -11 -75l-22 2q8 32 8 75q0 62 -33 105q-37 43 -125 39q-59 -68 -90 -176q-30 -109 -30 -209z" />
<glyph unicode="&#x1ee3;" d="M8 209q0 113 60 211q53 96 141 172q186 158 401 162q111 -2 176 -60q23 -21 40 -46q49 24 70 72q-13 2 -25 6q-13 4 -26 13q-26 16 -27 48q-3 32 19 61q31 44 73 49q41 6 73 -2q57 -15 53 -78q6 -43 -30 -95q-47 -65 -116 -94q-22 -10 -44 -18q11 -28 16 -59 q12 -62 49 -96q35 -39 90 -39q105 0 209 131l13 -17q-41 -55 -97 -94q-55 -45 -125 -45q-90 0 -145 78q-51 -209 -215 -352q-164 -146 -385 -150q-113 2 -178 68q-70 63 -70 174zM113 -190q0 42 28 67q26 26 64 26q41 0 66 -26q26 -25 26 -67q0 -37 -26 -63q-25 -26 -66 -28 q-38 2 -64 28q-28 26 -28 63zM180 100q0 -106 90 -108q82 2 156 76q74 71 133 176q127 225 131 376q0 107 -90 109q-78 -2 -149 -72q-74 -71 -138 -176q-131 -229 -133 -381z" />
<glyph unicode="&#x1ee4;" horiz-adv-x="1706" d="M188 917q0 121 72 226q70 104 182 182q238 166 510 170q94 0 158 -49q59 -49 61 -148q-2 -94 -98 -252q-96 -159 -221 -337q-125 -179 -219 -336q-99 -160 -101 -254q2 -82 84 -82q72 0 166 59q90 58 191 148q205 190 342 409l475 772l225 8l-532 -827 q-140 -213 -195 -330q-59 -116 -57 -186q-2 -72 57 -74q66 0 145 54q78 49 164 127q176 165 330 348l18 -15q-100 -122 -276 -303q-233 -245 -420 -247q-100 2 -141 47t-41 114q0 72 35 144q28 69 67 125l-4 4q-129 -162 -301 -293q-174 -137 -358 -141q-146 2 -146 153 q0 53 29 121t72 147q94 164 219 349q125 184 221 348q96 161 98 260q-2 98 -133 100q-209 -4 -389 -166q-86 -76 -139 -172q-55 -98 -55 -205q0 -57 34 -100q31 -47 91 -47q81 0 149 51q66 47 117 117l16 -12q-57 -78 -135 -134q-80 -59 -180 -59q-183 4 -187 186zM636 -190 q0 42 28 67q26 26 64 26q41 0 66 -26q26 -25 26 -67q0 -37 -26 -63q-25 -26 -66 -28q-38 2 -64 28q-28 26 -28 63z" />
<glyph unicode="&#x1ee5;" d="M-68 113q2 77 86 227q82 149 226 381l217 8q-162 -246 -260 -405q-103 -158 -105 -238q2 -55 49 -57q41 0 97 34q53 33 112 89q123 116 221 274l177 287l210 16q-161 -264 -264 -422q-106 -160 -106 -246q0 -45 39 -45q28 0 61 21q35 16 74 45q80 59 156 135 q196 209 290 336l17 -12q-107 -146 -287 -336q-201 -221 -367 -225q-61 2 -96 38q-39 35 -39 91q2 79 25 116l-4 4q-72 -82 -170 -161q-99 -84 -230 -88q-61 2 -94 40q-35 39 -35 93zM85 -190q0 42 28 67q26 26 64 26q41 0 66 -26q26 -25 26 -67q0 -37 -26 -63 q-25 -26 -66 -28q-38 2 -64 28q-28 26 -28 63z" />
<glyph unicode="&#x1ee6;" horiz-adv-x="1706" d="M188 917q4 -182 187 -186q100 0 180 59q78 56 135 134l-16 12q-51 -70 -117 -117q-68 -51 -149 -51q-60 0 -91 47q-34 43 -34 100q0 107 55 205q53 96 139 172q180 162 389 166q131 -2 133 -100q-2 -99 -98 -260q-96 -164 -221 -348q-125 -185 -219 -349 q-43 -79 -72 -147t-29 -121q0 -151 146 -153q184 4 358 141q172 131 301 293l4 -4q-39 -56 -67 -125q-35 -72 -35 -144q0 -69 41 -114t141 -47q187 2 420 247q176 181 276 303l-18 15q-154 -183 -330 -348q-86 -78 -164 -127q-79 -54 -145 -54q-59 2 -57 74q-2 70 57 186 q55 117 195 330l532 827l-225 -8l-475 -772q-137 -219 -342 -409q-101 -90 -191 -148q-94 -59 -166 -59q-82 0 -84 82q2 94 101 254q94 157 219 336q125 178 221 337q96 158 98 252q-2 99 -61 148q-64 49 -158 49q-272 -4 -510 -170q-112 -78 -182 -182q-72 -105 -72 -226z M1517.5 1565q0.5 3 0.5 11v4t1 9t2 9.5t1 5.5q11 17 17.5 25.5t12.5 15t13.5 13.5t21.5 21q42 25 71 46t36 34q4 6 7.5 9.5t7.5 9t8.5 15t9.5 26.5q5 15 -0.5 33t-27.5 23q-20 3 -33.5 3t-39.5 -7q-11 -5 -24 -9t-15 -10q6 -2 13.5 -7.5t12.5 -15t6.5 -22.5t-4.5 -29 q-5 -19 -16.5 -28t-37.5 -4q-14 3 -21.5 10.5t-11.5 17t-4.5 19.5t0.5 16q5 25 24 43.5t49 32.5q58 24 112 14q49 -11 76 -44t17 -81q-5 -36 -33.5 -64t-79.5 -45l-30 -10l-12 -4q-7 -2 -10 -3t-4.5 -2.5t-4 -2.5t-9.5 -3q-23 -6 -40 -16t-26 -20q1 0 0 -1q-2 -2 -6 -10 q0 -3 -1 -6l-2 -4l-2 -4q-2 -2 -3.5 -6.5t-3.5 -6.5q-4 -6 -11 -6q-7 2 -6.5 5z" />
<glyph unicode="&#x1ee7;" d="M-68 113q0 -54 35 -93q33 -38 94 -40q131 4 230 88q98 79 170 161l4 -4q-23 -37 -25 -116q0 -56 39 -91q35 -36 96 -38q166 4 367 225q180 190 287 336l-17 12q-94 -127 -290 -336q-76 -76 -156 -135q-39 -29 -74 -45q-33 -21 -61 -21q-39 0 -39 45q0 86 106 246 q103 158 264 422l-210 -16l-177 -287q-98 -158 -221 -274q-59 -56 -112 -89q-56 -34 -97 -34q-47 2 -49 57q2 80 105 238q98 159 260 405l-217 -8q-144 -232 -226 -381q-84 -150 -86 -227zM611.5 823q0.5 3 0.5 11v4t1 9t2 9.5t1 5.5q11 17 17.5 25.5t12.5 15t13.5 13.5 t21.5 21q42 25 71 46t36 34q4 6 7.5 9.5t7.5 9t8.5 15t9.5 26.5q5 15 -0.5 33t-27.5 23q-20 3 -33.5 3t-39.5 -7q-11 -5 -24 -9t-15 -10q6 -2 13.5 -7.5t12.5 -15t6.5 -22.5t-4.5 -29q-5 -19 -16.5 -28t-37.5 -4q-14 3 -21.5 10.5t-11.5 17t-4.5 19.5t0.5 16q5 25 24 43.5 t49 32.5q58 24 112 14q49 -11 76 -44t17 -81q-5 -36 -33.5 -64t-79.5 -45l-30 -10l-12 -4q-7 -2 -10 -3t-4.5 -2.5t-4 -2.5t-9.5 -3q-23 -6 -40 -16t-26 -20q1 0 0 -1q-2 -2 -6 -10q0 -3 -1 -6l-2 -4l-2 -4q-2 -2 -3.5 -6.5t-3.5 -6.5q-4 -6 -11 -6q-7 2 -6.5 5z" />
<glyph unicode="&#x1ee8;" horiz-adv-x="1706" d="M188 917q0 121 72 226q70 104 182 182q238 166 510 170q94 0 158 -49q59 -49 61 -148q-2 -94 -98 -252q-96 -159 -221 -337q-125 -179 -219 -336q-99 -160 -101 -254q2 -82 84 -82q72 0 166 59q90 58 191 148q205 190 342 409l475 772l225 8l-56 -87q106 23 137 95 q-14 2 -28 6q-13 4 -28 14q-28 18 -29 52q-3 35 21 66q33 48 79 54q44 6 79 -2q62 -17 58 -85q6 -47 -33 -103q-51 -71 -126 -103q-74 -33 -160 -40l-446 -694q-140 -213 -195 -330q-59 -116 -57 -186q-2 -72 57 -74q66 0 145 54q78 49 164 127q176 165 330 348l18 -15 q-100 -122 -276 -303q-233 -245 -420 -247q-100 2 -141 47t-41 114q0 72 35 144q28 69 67 125l-4 4q-129 -162 -301 -293q-174 -137 -358 -141q-146 2 -146 153q0 53 29 121t72 147q94 164 219 349q125 184 221 348q96 161 98 260q-2 98 -133 100q-209 -4 -389 -166 q-86 -76 -139 -172q-55 -98 -55 -205q0 -57 34 -100q31 -47 91 -47q81 0 149 51q66 47 117 117l16 -12q-57 -78 -135 -134q-80 -59 -180 -59q-183 4 -187 186zM1470 1536q0 12 26 33q23 18 54 47q32 31 61 67q27 37 37 80q8 37 26 80q15 41 45 43q64 -2 66 -65 q-2 -47 -37 -97q-39 -51 -92 -98q-53 -45 -100 -74q-52 -30 -74 -30q-12 0 -12 14z" />
<glyph unicode="&#x1ee9;" d="M-68 113q2 77 86 227q82 149 226 381l217 8q-162 -246 -260 -405q-103 -158 -105 -238q2 -55 49 -57q41 0 97 34q53 33 112 89q123 116 221 274l177 287l210 16q-21 -35 -41 -68q74 24 99 80q-13 2 -25 6q-13 4 -26 13q-26 16 -27 48q-3 32 19 61q31 44 73 49q41 6 73 -2 q57 -15 53 -78q6 -43 -30 -95q-47 -65 -116 -94q-57 -26 -122 -34q-115 -186 -194 -308q-106 -160 -106 -246q0 -45 39 -45q28 0 61 21q35 16 74 45q80 59 156 135q196 209 290 336l17 -12q-107 -146 -287 -336q-201 -221 -367 -225q-61 2 -96 38q-39 35 -39 91q2 79 25 116 l-4 4q-72 -82 -170 -161q-99 -84 -230 -88q-61 2 -94 40q-35 39 -35 93zM527 813q0 12 26 33q23 18 54 47q32 31 61 67q27 37 37 80q8 37 26 80q15 41 45 43q64 -2 66 -65q-2 -47 -37 -97q-39 -51 -92 -98q-53 -45 -100 -74q-52 -30 -74 -30q-12 0 -12 14z" />
<glyph unicode="&#x1eea;" horiz-adv-x="1706" d="M188 917q0 121 72 226q70 104 182 182q238 166 510 170q94 0 158 -49q59 -49 61 -148q-2 -94 -98 -252q-96 -159 -221 -337q-125 -179 -219 -336q-99 -160 -101 -254q2 -82 84 -82q72 0 166 59q90 58 191 148q205 190 342 409l475 772l225 8l-56 -87q106 23 137 95 q-14 2 -28 6q-13 4 -28 14q-28 18 -29 52q-3 35 21 66q33 48 79 54q44 6 79 -2q62 -17 58 -85q6 -47 -33 -103q-51 -71 -126 -103q-74 -33 -160 -40l-446 -694q-140 -213 -195 -330q-59 -116 -57 -186q-2 -72 57 -74q66 0 145 54q78 49 164 127q176 165 330 348l18 -15 q-100 -122 -276 -303q-233 -245 -420 -247q-100 2 -141 47t-41 114q0 72 35 144q28 69 67 125l-4 4q-129 -162 -301 -293q-174 -137 -358 -141q-146 2 -146 153q0 53 29 121t72 147q94 164 219 349q125 184 221 348q96 161 98 260q-2 98 -133 100q-209 -4 -389 -166 q-86 -76 -139 -172q-55 -98 -55 -205q0 -57 34 -100q31 -47 91 -47q81 0 149 51q66 47 117 117l16 -12q-57 -78 -135 -134q-80 -59 -180 -59q-183 4 -187 186zM1254 1821q0 63 65 65q31 -2 49 -43q17 -43 23 -80q12 -43 41 -80q29 -36 59 -67q33 -29 56 -47q22 -21 22 -33 q0 -14 -12 -14q-23 0 -70 30q-47 29 -102 74q-53 47 -90 98q-41 50 -41 97z" />
<glyph unicode="&#x1eeb;" d="M-68 113q2 77 86 227q82 149 226 381l217 8q-162 -246 -260 -405q-103 -158 -105 -238q2 -55 49 -57q41 0 97 34q53 33 112 89q123 116 221 274l177 287l210 16q-21 -35 -41 -68q74 24 99 80q-13 2 -25 6q-13 4 -26 13q-26 16 -27 48q-3 32 19 61q31 44 73 49q41 6 73 -2 q57 -15 53 -78q6 -43 -30 -95q-47 -65 -116 -94q-57 -26 -122 -34q-115 -186 -194 -308q-106 -160 -106 -246q0 -45 39 -45q28 0 61 21q35 16 74 45q80 59 156 135q196 209 290 336l17 -12q-107 -146 -287 -336q-201 -221 -367 -225q-61 2 -96 38q-39 35 -39 91q2 79 25 116 l-4 4q-72 -82 -170 -161q-99 -84 -230 -88q-61 2 -94 40q-35 39 -35 93zM420 1097q0 63 65 65q31 -2 49 -43q17 -43 23 -80q12 -43 41 -80q29 -36 59 -67q33 -29 56 -47q22 -21 22 -33q0 -14 -12 -14q-23 0 -70 30q-47 29 -102 74q-53 47 -90 98q-41 50 -41 97z" />
<glyph unicode="&#x1eec;" horiz-adv-x="1706" d="M188 917q4 -182 187 -186q100 0 180 59q78 56 135 134l-16 12q-51 -70 -117 -117q-68 -51 -149 -51q-60 0 -91 47q-34 43 -34 100q0 107 55 205q53 96 139 172q180 162 389 166q131 -2 133 -100q-2 -99 -98 -260q-96 -164 -221 -348q-125 -185 -219 -349 q-43 -79 -72 -147t-29 -121q0 -151 146 -153q184 4 358 141q172 131 301 293l4 -4q-39 -56 -67 -125q-35 -72 -35 -144q0 -69 41 -114t141 -47q187 2 420 247q176 181 276 303l-18 15q-154 -183 -330 -348q-86 -78 -164 -127q-79 -54 -145 -54q-59 2 -57 74q-2 70 57 186 q55 117 195 330l446 694q86 7 160 40q75 32 126 103q39 56 33 103q4 68 -58 85q-35 8 -79 2q-46 -6 -79 -54q-24 -31 -21 -66q1 -34 29 -52q15 -10 28 -14q14 -4 28 -6q-31 -72 -137 -95l56 87l-225 -8l-475 -772q-137 -219 -342 -409q-101 -90 -191 -148q-94 -59 -166 -59 q-82 0 -84 82q2 94 101 254q94 157 219 336q125 178 221 337q96 158 98 252q-2 99 -61 148q-64 49 -158 49q-272 -4 -510 -170q-112 -78 -182 -182q-72 -105 -72 -226zM1517.5 1565q0.5 3 0.5 11v4t1 9t2 9.5t1 5.5q11 17 17.5 25.5t12.5 15t13.5 13.5t21.5 21q42 25 71 46 t36 34q4 6 7.5 9.5t7.5 9t8.5 15t9.5 26.5q5 15 -0.5 33t-27.5 23q-20 3 -33.5 3t-39.5 -7q-11 -5 -24 -9t-15 -10q6 -2 13.5 -7.5t12.5 -15t6.5 -22.5t-4.5 -29q-5 -19 -16.5 -28t-37.5 -4q-14 3 -21.5 10.5t-11.5 17t-4.5 19.5t0.5 16q5 25 24 43.5t49 32.5q58 24 112 14 q49 -11 76 -44t17 -81q-5 -36 -33.5 -64t-79.5 -45l-30 -10l-12 -4q-7 -2 -10 -3t-4.5 -2.5t-4 -2.5t-9.5 -3q-23 -6 -40 -16t-26 -20q1 0 0 -1q-2 -2 -6 -10q0 -3 -1 -6l-2 -4l-2 -4q-2 -2 -3.5 -6.5t-3.5 -6.5q-4 -6 -11 -6q-7 2 -6.5 5z" />
<glyph unicode="&#x1eed;" d="M-68 113q0 -54 35 -93q33 -38 94 -40q131 4 230 88q98 79 170 161l4 -4q-23 -37 -25 -116q0 -56 39 -91q35 -36 96 -38q166 4 367 225q180 190 287 336l-17 12q-94 -127 -290 -336q-76 -76 -156 -135q-39 -29 -74 -45q-33 -21 -61 -21q-39 0 -39 45q0 86 106 246 q79 122 194 308q65 8 122 34q69 29 116 94q36 52 30 95q4 63 -53 78q-32 8 -73 2q-42 -5 -73 -49q-22 -29 -19 -61q1 -32 27 -48q13 -9 26 -13q12 -4 25 -6q-25 -56 -99 -80q20 33 41 68l-210 -16l-177 -287q-98 -158 -221 -274q-59 -56 -112 -89q-56 -34 -97 -34 q-47 2 -49 57q2 80 105 238q98 159 260 405l-217 -8q-144 -232 -226 -381q-84 -150 -86 -227zM611.5 823q0.5 3 0.5 11v4t1 9t2 9.5t1 5.5q11 17 17.5 25.5t12.5 15t13.5 13.5t21.5 21q42 25 71 46t36 34q4 6 7.5 9.5t7.5 9t8.5 15t9.5 26.5q5 15 -0.5 33t-27.5 23 q-20 3 -33.5 3t-39.5 -7q-11 -5 -24 -9t-15 -10q6 -2 13.5 -7.5t12.5 -15t6.5 -22.5t-4.5 -29q-5 -19 -16.5 -28t-37.5 -4q-14 3 -21.5 10.5t-11.5 17t-4.5 19.5t0.5 16q5 25 24 43.5t49 32.5q58 24 112 14q49 -11 76 -44t17 -81q-5 -36 -33.5 -64t-79.5 -45l-30 -10l-12 -4 q-7 -2 -10 -3t-4.5 -2.5t-4 -2.5t-9.5 -3q-23 -6 -40 -16t-26 -20q1 0 0 -1q-2 -2 -6 -10q0 -3 -1 -6l-2 -4l-2 -4q-2 -2 -3.5 -6.5t-3.5 -6.5q-4 -6 -11 -6q-7 2 -6.5 5z" />
<glyph unicode="&#x1eee;" horiz-adv-x="1706" d="M188 917q0 121 72 226q70 104 182 182q238 166 510 170q94 0 158 -49q59 -49 61 -148q-2 -94 -98 -252q-96 -159 -221 -337q-125 -179 -219 -336q-99 -160 -101 -254q2 -82 84 -82q72 0 166 59q90 58 191 148q205 190 342 409l475 772l225 8l-56 -87q106 23 137 95 q-14 2 -28 6q-13 4 -28 14q-28 18 -29 52q-3 35 21 66q33 48 79 54q44 6 79 -2q62 -17 58 -85q6 -47 -33 -103q-51 -71 -126 -103q-74 -33 -160 -40l-446 -694q-140 -213 -195 -330q-59 -116 -57 -186q-2 -72 57 -74q66 0 145 54q78 49 164 127q176 165 330 348l18 -15 q-100 -122 -276 -303q-233 -245 -420 -247q-100 2 -141 47t-41 114q0 72 35 144q28 69 67 125l-4 4q-129 -162 -301 -293q-174 -137 -358 -141q-146 2 -146 153q0 53 29 121t72 147q94 164 219 349q125 184 221 348q96 161 98 260q-2 98 -133 100q-209 -4 -389 -166 q-86 -76 -139 -172q-55 -98 -55 -205q0 -57 34 -100q31 -47 91 -47q81 0 149 51q66 47 117 117l16 -12q-57 -78 -135 -134q-80 -59 -180 -59q-183 4 -187 186zM1284 1568q33 58 93 110q61 53 123 54q75 -3 118 -32q24 -12 47 -20q21 -12 47 -12q43 0 79 22q36 21 67 60h30 q-38 -60 -100 -110q-64 -54 -131 -55q-32 0 -57 12q-27 9 -53 20q-43 32 -101 33q-38 0 -72 -24q-35 -24 -66 -58h-24z" />
<glyph unicode="&#x1eef;" d="M-68 113q2 77 86 227q82 149 226 381l217 8q-162 -246 -260 -405q-103 -158 -105 -238q2 -55 49 -57q41 0 97 34q53 33 112 89q123 116 221 274l177 287l210 16q-21 -35 -41 -68q74 24 99 80q-13 2 -25 6q-13 4 -26 13q-26 16 -27 48q-3 32 19 61q31 44 73 49q41 6 73 -2 q57 -15 53 -78q6 -43 -30 -95q-47 -65 -116 -94q-57 -26 -122 -34q-115 -186 -194 -308q-106 -160 -106 -246q0 -45 39 -45q28 0 61 21q35 16 74 45q80 59 156 135q196 209 290 336l17 -12q-107 -146 -287 -336q-201 -221 -367 -225q-61 2 -96 38q-39 35 -39 91q2 79 25 116 l-4 4q-72 -82 -170 -161q-99 -84 -230 -88q-61 2 -94 40q-35 39 -35 93zM361 852q33 58 93 110q61 53 123 54q75 -3 118 -32q24 -12 47 -20q21 -12 47 -12q43 0 79 22q36 21 67 60h30q-38 -60 -100 -110q-64 -54 -131 -55q-32 0 -57 12q-27 9 -53 20q-43 32 -101 33 q-38 0 -72 -24q-35 -24 -66 -58h-24z" />
<glyph unicode="&#x1ef0;" horiz-adv-x="1706" d="M188 917q0 121 72 226q70 104 182 182q238 166 510 170q94 0 158 -49q59 -49 61 -148q-2 -94 -98 -252q-96 -159 -221 -337q-125 -179 -219 -336q-99 -160 -101 -254q2 -82 84 -82q72 0 166 59q90 58 191 148q205 190 342 409l475 772l225 8l-56 -87q106 23 137 95 q-14 2 -28 6q-13 4 -28 14q-28 18 -29 52q-3 35 21 66q33 48 79 54q44 6 79 -2q62 -17 58 -85q6 -47 -33 -103q-51 -71 -126 -103q-74 -33 -160 -40l-446 -694q-140 -213 -195 -330q-59 -116 -57 -186q-2 -72 57 -74q66 0 145 54q78 49 164 127q176 165 330 348l18 -15 q-100 -122 -276 -303q-233 -245 -420 -247q-100 2 -141 47t-41 114q0 72 35 144q28 69 67 125l-4 4q-129 -162 -301 -293q-174 -137 -358 -141q-146 2 -146 153q0 53 29 121t72 147q94 164 219 349q125 184 221 348q96 161 98 260q-2 98 -133 100q-209 -4 -389 -166 q-86 -76 -139 -172q-55 -98 -55 -205q0 -57 34 -100q31 -47 91 -47q81 0 149 51q66 47 117 117l16 -12q-57 -78 -135 -134q-80 -59 -180 -59q-183 4 -187 186zM636 -190q0 42 28 67q26 26 64 26q41 0 66 -26q26 -25 26 -67q0 -37 -26 -63q-25 -26 -66 -28q-38 2 -64 28 q-28 26 -28 63z" />
<glyph unicode="&#x1ef1;" d="M-68 113q2 77 86 227q82 149 226 381l217 8q-162 -246 -260 -405q-103 -158 -105 -238q2 -55 49 -57q41 0 97 34q53 33 112 89q123 116 221 274l177 287l210 16q-21 -35 -41 -68q74 24 99 80q-13 2 -25 6q-13 4 -26 13q-26 16 -27 48q-3 32 19 61q31 44 73 49q41 6 73 -2 q57 -15 53 -78q6 -43 -30 -95q-47 -65 -116 -94q-57 -26 -122 -34q-115 -186 -194 -308q-106 -160 -106 -246q0 -45 39 -45q28 0 61 21q35 16 74 45q80 59 156 135q196 209 290 336l17 -12q-107 -146 -287 -336q-201 -221 -367 -225q-61 2 -96 38q-39 35 -39 91q2 79 25 116 l-4 4q-72 -82 -170 -161q-99 -84 -230 -88q-61 2 -94 40q-35 39 -35 93zM85 -190q0 42 28 67q26 26 64 26q41 0 66 -26q26 -25 26 -67q0 -37 -26 -63q-25 -26 -66 -28q-38 2 -64 28q-28 26 -28 63z" />
<glyph unicode="&#x1ef2;" horiz-adv-x="1593" d="M-190 -350q2 96 71 164q66 69 160 69q125 0 233 -61l-2 -17q-57 27 -118 29q-86 0 -129 -63q-43 -62 -43 -146q0 -88 55 -159q53 -74 178 -76q205 4 377 174q174 166 336 424l282 434l-4 4q-123 -154 -303 -295q-184 -145 -389 -151q-139 2 -141 137q0 53 28 125 q29 69 74 149q96 164 221 346t221 342q97 160 99 254q0 121 -109 121q-217 -4 -393 -164q-186 -158 -190 -375q0 -55 28 -102q29 -51 84 -51q82 2 141 49q58 45 109 102l14 -10q-55 -67 -129 -121q-75 -57 -174 -57q-82 0 -135 45q-57 43 -57 131q0 109 65 211 q64 102 170 184q224 176 514 183q43 0 86 -7q41 -8 74 -26q72 -39 74 -135q-2 -111 -99 -275q-96 -166 -221 -348q-125 -180 -221 -334q-100 -153 -102 -243q0 -82 82 -82q63 0 141 43q78 41 160 104q168 135 272 277q397 583 606 962l228 10l-945 -1491 q-157 -235 -378 -399q-222 -166 -502 -170q-164 0 -279 64q-116 65 -120 221zM1362 1821q0 63 65 65q31 -2 49 -43q17 -43 23 -80q12 -43 41 -80q29 -36 59 -67q33 -29 56 -47q22 -21 22 -33q0 -14 -12 -14q-23 0 -70 30q-47 29 -102 74q-53 47 -90 98q-41 50 -41 97z" />
<glyph unicode="&#x1ef3;" d="M-766 -365q4 123 96 177q88 55 205 53q53 0 92 -8v-19q-14 2 -37 2q-86 0 -133 -61q-49 -64 -51 -158q2 -108 68 -168q63 -61 164 -63q157 2 286 96q129 92 234 233q106 142 192 289q82 148 150 262l-4 4q-62 -79 -179 -182q-59 -47 -120 -78q-66 -32 -131 -34 q-66 2 -97 40q-30 37 -30 91q2 51 30 118q29 66 72 144q96 159 209 348l217 8q-170 -266 -266 -422q-99 -160 -99 -223q2 -53 54 -55q36 0 96 39q55 36 121 102q135 133 247 315q95 154 132 236l200 8q-213 -381 -430 -756q201 64 381 232t303 344l17 -15 q-142 -206 -328 -368q-191 -162 -391 -219q-148 -254 -369 -414q-221 -164 -516 -168q-153 0 -266 62q-115 59 -119 208zM454 1097q0 63 65 65q31 -2 49 -43q17 -43 23 -80q12 -43 41 -80q29 -36 59 -67q33 -29 56 -47q22 -21 22 -33q0 -14 -12 -14q-23 0 -70 30 q-47 29 -102 74q-53 47 -90 98q-41 50 -41 97z" />
<glyph unicode="&#x1ef4;" horiz-adv-x="1593" d="M-190 -350q2 96 71 164q66 69 160 69q125 0 233 -61l-2 -17q-57 27 -118 29q-86 0 -129 -63q-43 -62 -43 -146q0 -88 55 -159q53 -74 178 -76q205 4 377 174q174 166 336 424l282 434l-4 4q-123 -154 -303 -295q-184 -145 -389 -151q-139 2 -141 137q0 53 28 125 q29 69 74 149q96 164 221 346t221 342q97 160 99 254q0 121 -109 121q-217 -4 -393 -164q-186 -158 -190 -375q0 -55 28 -102q29 -51 84 -51q82 2 141 49q58 45 109 102l14 -10q-55 -67 -129 -121q-75 -57 -174 -57q-82 0 -135 45q-57 43 -57 131q0 109 65 211 q64 102 170 184q224 176 514 183q43 0 86 -7q41 -8 74 -26q72 -39 74 -135q-2 -111 -99 -275q-96 -166 -221 -348q-125 -180 -221 -334q-100 -153 -102 -243q0 -82 82 -82q63 0 141 43q78 41 160 104q168 135 272 277q397 583 606 962l228 10l-945 -1491 q-157 -235 -378 -399q-222 -166 -502 -170q-164 0 -279 64q-116 65 -120 221zM450 -190q0 42 28 67q26 26 64 26q41 0 66 -26q26 -25 26 -67q0 -37 -26 -63q-25 -26 -66 -28q-38 2 -64 28q-28 26 -28 63z" />
<glyph unicode="&#x1ef5;" d="M-766 -365q4 123 96 177q88 55 205 53q53 0 92 -8v-19q-14 2 -37 2q-86 0 -133 -61q-49 -64 -51 -158q2 -108 68 -168q63 -61 164 -63q157 2 286 96q129 92 234 233q106 142 192 289q82 148 150 262l-4 4q-62 -79 -179 -182q-59 -47 -120 -78q-66 -32 -131 -34 q-66 2 -97 40q-30 37 -30 91q2 51 30 118q29 66 72 144q96 159 209 348l217 8q-170 -266 -266 -422q-99 -160 -99 -223q2 -53 54 -55q36 0 96 39q55 36 121 102q135 133 247 315q95 154 132 236l200 8q-213 -381 -430 -756q201 64 381 232t303 344l17 -15 q-142 -206 -328 -368q-191 -162 -391 -219q-148 -254 -369 -414q-221 -164 -516 -168q-153 0 -266 62q-115 59 -119 208zM-40 -190q0 42 28 67q26 26 64 26q41 0 66 -26q26 -25 26 -67q0 -37 -26 -63q-25 -26 -66 -28q-38 2 -64 28q-28 26 -28 63z" />
<glyph unicode="&#x1ef6;" horiz-adv-x="1593" d="M-190 -350q4 -156 120 -221q115 -64 279 -64q280 4 502 170q221 164 378 399l945 1491l-228 -10q-209 -379 -606 -962q-104 -142 -272 -277q-82 -63 -160 -104q-78 -43 -141 -43q-82 0 -82 82q2 90 102 243q96 154 221 334q125 182 221 348q97 164 99 275q-2 96 -74 135 q-33 18 -74 26q-43 7 -86 7q-290 -7 -514 -183q-106 -82 -170 -184q-65 -102 -65 -211q0 -88 57 -131q53 -45 135 -45q99 0 174 57q74 54 129 121l-14 10q-51 -57 -109 -102q-59 -47 -141 -49q-55 0 -84 51q-28 47 -28 102q4 217 190 375q176 160 393 164q109 0 109 -121 q-2 -94 -99 -254q-96 -160 -221 -342t-221 -346q-45 -80 -74 -149q-28 -72 -28 -125q2 -135 141 -137q205 6 389 151q180 141 303 295l4 -4l-282 -434q-162 -258 -336 -424q-172 -170 -377 -174q-125 2 -178 76q-55 71 -55 159q0 84 43 146q43 63 129 63q61 -2 118 -29l2 17 q-108 61 -233 61q-94 0 -160 -69q-69 -68 -71 -164zM1508.5 1533q0.5 3 0.5 11v4t1 9t2 9.5t1 5.5q11 17 17.5 25.5t12.5 15t13.5 13.5t21.5 21q42 25 71 46t36 34q4 6 7.5 9.5t7.5 9t8.5 15t9.5 26.5q5 15 -0.5 33t-27.5 23q-20 3 -33.5 3t-39.5 -7q-11 -5 -24 -9t-15 -10 q6 -2 13.5 -7.5t12.5 -15t6.5 -22.5t-4.5 -29q-5 -19 -16.5 -28t-37.5 -4q-14 3 -21.5 10.5t-11.5 17t-4.5 19.5t0.5 16q5 25 24 43.5t49 32.5q58 24 112 14q49 -11 76 -44t17 -81q-5 -36 -33.5 -64t-79.5 -45l-30 -10l-12 -4q-7 -2 -10 -3t-4.5 -2.5t-4 -2.5t-9.5 -3 q-23 -6 -40 -16t-26 -20q1 0 0 -1q-2 -2 -6 -10q0 -3 -1 -6l-2 -4l-2 -4q-2 -2 -3.5 -6.5t-3.5 -6.5q-4 -6 -11 -6q-7 2 -6.5 5z" />
<glyph unicode="&#x1ef7;" d="M-766 -365q4 -149 119 -208q113 -62 266 -62q295 4 516 168q221 160 369 414q200 57 391 219q186 162 328 368l-17 15q-123 -176 -303 -344t-381 -232q217 375 430 756l-200 -8q-37 -82 -132 -236q-112 -182 -247 -315q-66 -66 -121 -102q-60 -39 -96 -39q-52 2 -54 55 q0 63 99 223q96 156 266 422l-217 -8q-113 -189 -209 -348q-43 -78 -72 -144q-28 -67 -30 -118q0 -54 30 -91q31 -38 97 -40q65 2 131 34q61 31 120 78q117 103 179 182l4 -4q-68 -114 -150 -262q-86 -147 -192 -289q-105 -141 -234 -233q-129 -94 -286 -96q-101 2 -164 63 q-66 60 -68 168q2 94 51 158q47 61 133 61q23 0 37 -2v19q-39 8 -92 8q-117 2 -205 -53q-92 -54 -96 -177zM605.5 823q0.5 3 0.5 11v4t1 9t2 9.5t1 5.5q11 17 17.5 25.5t12.5 15t13.5 13.5t21.5 21q42 25 71 46t36 34q4 6 7.5 9.5t7.5 9t8.5 15t9.5 26.5q5 15 -0.5 33 t-27.5 23q-20 3 -33.5 3t-39.5 -7q-11 -5 -24 -9t-15 -10q6 -2 13.5 -7.5t12.5 -15t6.5 -22.5t-4.5 -29q-5 -19 -16.5 -28t-37.5 -4q-14 3 -21.5 10.5t-11.5 17t-4.5 19.5t0.5 16q5 25 24 43.5t49 32.5q58 24 112 14q49 -11 76 -44t17 -81q-5 -36 -33.5 -64t-79.5 -45 l-30 -10l-12 -4q-7 -2 -10 -3t-4.5 -2.5t-4 -2.5t-9.5 -3q-23 -6 -40 -16t-26 -20q1 0 0 -1q-2 -2 -6 -10q0 -3 -1 -6l-2 -4l-2 -4q-2 -2 -3.5 -6.5t-3.5 -6.5q-4 -6 -11 -6q-7 2 -6.5 5z" />
<glyph unicode="&#x1ef8;" horiz-adv-x="1593" d="M-190 -350q2 96 71 164q66 69 160 69q125 0 233 -61l-2 -17q-57 27 -118 29q-86 0 -129 -63q-43 -62 -43 -146q0 -88 55 -159q53 -74 178 -76q205 4 377 174q174 166 336 424l282 434l-4 4q-123 -154 -303 -295q-184 -145 -389 -151q-139 2 -141 137q0 53 28 125 q29 69 74 149q96 164 221 346t221 342q97 160 99 254q0 121 -109 121q-217 -4 -393 -164q-186 -158 -190 -375q0 -55 28 -102q29 -51 84 -51q82 2 141 49q58 45 109 102l14 -10q-55 -67 -129 -121q-75 -57 -174 -57q-82 0 -135 45q-57 43 -57 131q0 109 65 211 q64 102 170 184q224 176 514 183q43 0 86 -7q41 -8 74 -26q72 -39 74 -135q-2 -111 -99 -275q-96 -166 -221 -348q-125 -180 -221 -334q-100 -153 -102 -243q0 -82 82 -82q63 0 141 43q78 41 160 104q168 135 272 277q397 583 606 962l228 10l-945 -1491 q-157 -235 -378 -399q-222 -166 -502 -170q-164 0 -279 64q-116 65 -120 221zM1284 1568q33 58 93 110q61 53 123 54q75 -3 118 -32q24 -12 47 -20q21 -12 47 -12q43 0 79 22q36 21 67 60h30q-38 -60 -100 -110q-64 -54 -131 -55q-32 0 -57 12q-27 9 -53 20q-43 32 -101 33 q-38 0 -72 -24q-35 -24 -66 -58h-24z" />
<glyph unicode="&#x1ef9;" d="M-766 -365q4 123 96 177q88 55 205 53q53 0 92 -8v-19q-14 2 -37 2q-86 0 -133 -61q-49 -64 -51 -158q2 -108 68 -168q63 -61 164 -63q157 2 286 96q129 92 234 233q106 142 192 289q82 148 150 262l-4 4q-62 -79 -179 -182q-59 -47 -120 -78q-66 -32 -131 -34 q-66 2 -97 40q-30 37 -30 91q2 51 30 118q29 66 72 144q96 159 209 348l217 8q-170 -266 -266 -422q-99 -160 -99 -223q2 -53 54 -55q36 0 96 39q55 36 121 102q135 133 247 315q95 154 132 236l200 8q-213 -381 -430 -756q201 64 381 232t303 344l17 -15 q-142 -206 -328 -368q-191 -162 -391 -219q-148 -254 -369 -414q-221 -164 -516 -168q-153 0 -266 62q-115 59 -119 208zM361 852q33 58 93 110q61 53 123 54q75 -3 118 -32q24 -12 47 -20q21 -12 47 -12q43 0 79 22q36 21 67 60h30q-38 -60 -100 -110q-64 -54 -131 -55 q-32 0 -57 12q-27 9 -53 20q-43 32 -101 33q-38 0 -72 -24q-35 -24 -66 -58h-24z" />
<glyph unicode="&#x2000;" horiz-adv-x="1102" />
<glyph unicode="&#x2001;" horiz-adv-x="2205" />
<glyph unicode="&#x2002;" horiz-adv-x="1102" />
<glyph unicode="&#x2003;" horiz-adv-x="2205" />
<glyph unicode="&#x2004;" horiz-adv-x="735" />
<glyph unicode="&#x2005;" horiz-adv-x="551" />
<glyph unicode="&#x2006;" horiz-adv-x="367" />
<glyph unicode="&#x2007;" horiz-adv-x="367" />
<glyph unicode="&#x2008;" horiz-adv-x="275" />
<glyph unicode="&#x2009;" horiz-adv-x="441" />
<glyph unicode="&#x200a;" horiz-adv-x="122" />
<glyph unicode="&#x2010;" horiz-adv-x="758" d="M41 295l88 131h481l-86 -131h-483z" />
<glyph unicode="&#x2011;" horiz-adv-x="758" d="M41 295l88 131h481l-86 -131h-483z" />
<glyph unicode="&#x2012;" horiz-adv-x="758" d="M41 295l88 131h481l-86 -131h-483z" />
<glyph unicode="&#x2013;" horiz-adv-x="1024" d="M-111 301l84 119h1024l-84 -119h-1024z" />
<glyph unicode="&#x2014;" horiz-adv-x="2048" d="M-111 301l84 119h2048l-84 -119h-2048z" />
<glyph unicode="&#x2018;" horiz-adv-x="455" d="M258 901q0 82 49 143q47 62 119 105q154 82 299 96v-20q-127 -19 -234 -78q-108 -62 -137 -201q23 6 47 8q80 -2 82 -84q0 -45 -24 -73q-25 -31 -76 -31q-59 0 -90 41q-35 39 -35 94z" />
<glyph unicode="&#x2019;" horiz-adv-x="455" d="M229 770v20q131 19 238 80q106 62 133 199q-23 -8 -47 -8q-80 2 -82 84q0 47 27 76q24 28 73 28q60 -2 95 -37q30 -39 30 -98q0 -78 -45 -139q-47 -62 -121 -105q-153 -86 -301 -100z" />
<glyph unicode="&#x201a;" horiz-adv-x="455" d="M-192 -254q131 19 237 80q107 61 133 199q-22 -9 -47 -9q-80 2 -82 84q0 47 27 76q24 29 73 29q60 -2 95 -37q30 -39 30 -98q0 -78 -45 -140q-47 -61 -120 -104q-154 -86 -301 -100v20z" />
<glyph unicode="&#x201c;" horiz-adv-x="797" d="M279 901q0 82 49 143q47 62 118 105q154 82 299 96v-20q-127 -19 -233 -78q-109 -62 -137 -201q22 6 47 8q80 -2 82 -84q0 -45 -25 -73q-24 -31 -76 -31q-59 0 -90 41q-34 39 -34 94zM620 901q0 82 50 143q47 62 118 105q154 82 299 96v-20q-127 -19 -233 -78 q-109 -62 -137 -201q22 6 47 8q80 -2 82 -84q0 -45 -25 -73q-24 -31 -76 -31q-59 0 -90 41q-35 39 -35 94z" />
<glyph unicode="&#x201d;" horiz-adv-x="797" d="M229 770v20q131 19 238 80q106 62 133 199q-23 -8 -47 -8q-80 2 -82 84q0 47 27 76q24 28 73 28q60 -2 95 -37q30 -39 30 -98q0 -78 -45 -139q-47 -62 -121 -105q-153 -86 -301 -100zM571 770v20q131 19 238 80q106 62 133 199q-23 -8 -47 -8q-80 2 -82 84q0 47 27 76 q24 28 73 28q60 -2 95 -37q30 -39 30 -98q0 -78 -45 -139q-47 -62 -121 -105q-153 -86 -301 -100z" />
<glyph unicode="&#x201e;" horiz-adv-x="797" d="M-192 -254q131 19 237 80q107 61 133 199q-22 -9 -47 -9q-80 2 -82 84q0 47 27 76q24 29 73 29q60 -2 95 -37q30 -39 30 -98q0 -78 -45 -140q-47 -61 -120 -104q-154 -86 -301 -100v20zM158 -254q131 19 237 80q107 61 133 199q-22 -9 -47 -9q-80 2 -82 84q0 47 27 76 q25 29 74 29q59 -2 94 -37q31 -39 31 -98q0 -78 -45 -140q-48 -61 -121 -104q-154 -86 -301 -100v20z" />
<glyph unicode="&#x2026;" horiz-adv-x="2048" d="M45 102q0 52 35 82q33 33 80 33q51 0 82 -33q32 -30 32 -82q0 -47 -32 -79q-31 -33 -82 -35q-47 2 -80 35q-35 32 -35 79zM729 102q0 52 35 82q33 33 80 33q51 0 82 -33q32 -30 32 -82q0 -47 -32 -79q-31 -33 -82 -35q-47 2 -80 35q-35 32 -35 79zM1413 102q0 52 35 82 q33 33 80 33q51 0 82 -33q32 -30 32 -82q0 -47 -32 -79q-31 -33 -82 -35q-47 2 -80 35q-35 32 -35 79z" />
<glyph unicode="&#x202f;" horiz-adv-x="441" />
<glyph unicode="&#x2039;" horiz-adv-x="645" d="M137 354l481 346l15 -16l-320 -334l125 -317l-18 -13z" />
<glyph unicode="&#x203a;" horiz-adv-x="645" d="M55 39l332 328l-125 321l19 12l268 -333l-477 -347z" />
<glyph unicode="&#x205f;" horiz-adv-x="551" />
<glyph unicode="&#x2122;" horiz-adv-x="2027" d="M119 1266v180h708v-180h-45q-12 59 -43 96q-32 35 -96 35h-104v-615q-2 -71 12 -90q14 -18 90 -24v-45h-336v45q78 6 92 24q13 19 11 90v615h-105q-63 0 -92 -35q-33 -37 -47 -96h-45zM913 1401v45h236l321 -645l336 645h201v-45q-64 -2 -88 -31q-27 -31 -27 -86v-502 q-2 -71 13 -90q12 -18 88 -24v-45h-334v45q78 6 92 24q12 19 10 90v473h-4l-317 -639h-19l-311 633h-4v-450q0 -64 22 -95q21 -28 84 -36v-45h-266v45q66 8 88 36q19 31 19 95v505q-43 95 -140 97z" />
<glyph unicode="&#x25fc;" horiz-adv-x="755" d="M0 0v755h755v-755h-755z" />
</font>
</defs>
</svg>
